<?xml version="1.0" encoding="utf-8"?>
<!-- Generator: Adobe Illustrator 16.0.0, SVG Export Plug-In . SVG Version: 6.00 Build 0)  -->
<!DOCTYPE svg PUBLIC "-//W3C//DTD SVG 1.1//EN" "http://www.w3.org/Graphics/SVG/1.1/DTD/svg11.dtd">
<svg version="1.1" id="_x32_1.5-inch_iMac" xmlns="http://www.w3.org/2000/svg" xmlns:xlink="http://www.w3.org/1999/xlink" x="0px"
	 y="0px" width="52.941px" height="34.659px" viewBox="-4.132 12.378 52.941 34.659"
	 enable-background="new -4.132 12.378 52.941 34.659" xml:space="preserve">
<g display="none">
	<rect x="14.626" y="14.456" display="inline" fill="#F0F1F2" width="31.021" height="19.762"/>
	<g display="inline">
		<g>
			<g>
				<defs>
					<rect id="SVGID_1_" x="14.49" y="14.456" width="31.02" height="19.762"/>
				</defs>
				<clipPath id="SVGID_2_">
					<use xlink:href="#SVGID_1_"  overflow="visible"/>
				</clipPath>
				<g clip-path="url(#SVGID_2_)">
					<g>
						<rect x="18.708" y="17.716" fill="#FFFFFF" width="3.401" height="22.108"/>
						<rect x="37.859" y="17.716" fill="#FFFFFF" width="3.399" height="22.108"/>
					</g>
					<g>
						<rect x="22.578" y="17.749" fill="#FFFFFF" width="14.844" height="25.313"/>
						<g>
							<rect x="22.865" y="22.409" fill="#52E892" width="14.344" height="15.706"/>
							<g>
								<circle opacity="0.3" fill="#DBDCDD" enable-background="new    " cx="24.873" cy="20.115" r="1.363"/>
								<rect x="26.953" y="19.756" opacity="0.3" fill="#C1C1C1" enable-background="new    " width="8.891" height="0.718"/>
								<rect x="23.582" y="38.977" opacity="0.3" fill="#DBDCDD" enable-background="new    " width="10.184" height="0.859"/>
								<rect x="35.271" y="38.977" opacity="0.3" fill="#DBDCDD" enable-background="new    " width="1.002" height="1.004"/>
							</g>
							<g>
								<path fill="#575656" d="M31.039,32.951c0,0,2.727,0,2.727,1.361c0,1.363,0,2.728,0,2.728S31.039,33.667,31.039,32.951z"/>
								<g>
									<path fill="#575656" d="M29.82,30.657c-1.937-0.146-1.578,1.649-1.578,1.649v3.584h2.51c1.291,0,1.508-0.431,1.508-1.289
										C32.188,33.381,31.758,30.729,29.82,30.657z"/>
									<path fill="#838F92" d="M28.674,35.893C28.674,35.893,28.674,35.82,28.674,35.893v-3.586c0-0.431,0.359-0.719,0.717-0.719
										c0.43,0,0.717,0.357,0.717,0.719v2.868c0,0.286,0,0.502,0,0.718h1.363v-5.164c0-0.932-0.934-2.008-1.865-2.008h0.144
										c-1.36,0-2.438,0.932-2.438,2.295v4.807h1.363V35.893z"/>
									<path fill="#AFBFC2" d="M28.531,35.893c0.143,0,0.215-0.146,0.143-0.216c-0.072-0.358-0.432-0.573-0.789-0.573
										s-0.717,0.215-0.789,0.573c0,0.146,0.072,0.216,0.146,0.216H28.531z"/>
									<path fill="#AFBFC2" d="M31.613,35.893c0.072,0,0.145-0.07,0.145-0.146c-0.072-0.358-0.43-0.646-0.789-0.646
										s-0.717,0.287-0.789,0.646c0,0.073,0.072,0.146,0.144,0.146H31.613z"/>
									<path fill="#AFBFC2" d="M32.402,26.855c0,1.434-1.435,3.586-3.084,3.586c-1.648,0-2.867-2.152-2.867-3.586v-0.215
										c0-1.436,1.291-2.295,3.012-2.295l0,0c1.648,0,3.012,0.86,3.012,2.295v0.215H32.402z"/>
									<path fill="#F3A5AE" d="M28.889,28.792v1.722c0,0.288,0.287,0.572,0.574,0.572l0,0c0.285,0,0.502-0.284,0.502-0.572v-1.722
										H28.889z"/>
									<path fill="#FFFFFF" d="M30.896,28.721c-0.072-0.215-0.215-0.5-0.359-0.646c-0.357-0.288-0.572-0.646-0.572-1.005
										c-0.145-1.004-0.359-2.796-0.359-2.796h-0.358l-0.285,2.725c-0.071,0.358-0.215,0.717-0.502,0.933
										c-0.287,0.215-0.433,0.43-0.502,0.717c-0.146,0.574,0.646,1.004,1.506,1.004C30.322,29.652,30.969,29.294,30.896,28.721z"
										/>
									<path fill="#11201C" d="M29.391,28.146L29.391,28.146L29.391,28.146L29.391,28.146L29.391,28.146
										c-0.645,0-1.076,0.287-0.789,0.646c0.646,0.788,1.146,0.358,1.506,0C30.537,28.434,30.037,28.146,29.391,28.146z"/>
									<path fill="#AFBFC2" d="M26.881,25.852c0,0-0.072-2.652,0.359-2.796c0.43-0.144,1.291,1.506,1.291,1.506L26.881,25.852z"/>
									<path fill="#AFBFC2" d="M31.758,25.852c0,0,0.07-2.652-0.359-2.796c-0.428-0.144-1.291,1.506-1.291,1.506L31.758,25.852z"
										/>
									<path fill="#FFD4BC" d="M30.537,24.561l0.502-0.717c0.072-0.071,0.145,0,0.145,0.071l0.072,1.004L30.537,24.561z"/>
									<path fill="#FFD4BC" d="M28.172,24.633l-0.574-0.646c-0.07-0.072-0.143,0-0.143,0.072l-0.072,1.004L28.172,24.633z"/>
									<ellipse fill="#11201C" cx="30.824" cy="26.784" rx="0.215" ry="0.287"/>
									<ellipse fill="#11201C" cx="27.957" cy="26.784" rx="0.215" ry="0.287"/>
								</g>
							</g>
						</g>
						<g>
							<g opacity="0.3">
								<rect x="23.582" y="41.413" fill="#DBDCDD" width="1.363" height="0.717"/>
							</g>
							<g opacity="0.3">
								<rect x="27.383" y="41.413" fill="#DBDCDD" width="1.363" height="0.717"/>
							</g>
							<g>
								<rect x="30.969" y="41.413" opacity="0.3" fill="#DBDCDD" enable-background="new    " width="1.361" height="0.717"/>
							</g>
							<g>
								<rect x="34.553" y="41.413" opacity="0.3" fill="#DBDCDD" enable-background="new    " width="1.363" height="0.717"/>
							</g>
						</g>
					</g>
					<g display="none">
						<rect x="26.666" y="20.749" display="inline" fill="#FFFFFF" width="7.041" height="12.006"/>
						<g display="inline">
							<rect x="26.803" y="22.959" fill="#63AFC6" width="6.803" height="7.449"/>
							<g>
								<circle opacity="0.3" fill="#DBDCDD" enable-background="new    " cx="27.755" cy="21.871" r="0.646"/>
								<rect x="28.742" y="21.701" opacity="0.3" fill="#C1C1C1" enable-background="new    " width="4.217" height="0.34"/>
								<rect x="27.143" y="30.816" opacity="0.3" fill="#DBDCDD" enable-background="new    " width="4.83" height="0.408"/>
								<rect x="32.688" y="30.816" opacity="0.3" fill="#DBDCDD" enable-background="new    " width="0.477" height="0.477"/>
							</g>
							<g display="none">
								<path display="inline" fill="#575656" d="M30.68,27.959c0,0,1.293,0,1.293,0.646c0,0.646,0,1.293,0,1.293
									S30.68,28.299,30.68,27.959z"/>
								<g display="inline">
									<path fill="#575656" d="M30.102,26.871c-0.918-0.068-0.748,0.781-0.748,0.781v1.701h1.191c0.611,0,0.713-0.205,0.713-0.611
										C31.225,28.163,31.021,26.904,30.102,26.871z"/>
									<path fill="#838F92" d="M29.559,29.354C29.559,29.354,29.559,29.32,29.559,29.354v-1.699c0-0.204,0.17-0.342,0.34-0.342
										c0.203,0,0.34,0.17,0.34,0.342v1.359c0,0.137,0,0.238,0,0.34h0.646v-2.449c0-0.44-0.441-0.951-0.885-0.951h0.068
										c-0.646,0-1.156,0.441-1.156,1.089v2.278h0.646V29.354z"/>
									<path fill="#AFBFC2" d="M29.49,29.354c0.066,0,0.102-0.067,0.066-0.102c-0.033-0.17-0.203-0.271-0.373-0.271
										s-0.341,0.103-0.375,0.271c0,0.068,0.034,0.102,0.067,0.102H29.49z"/>
									<path fill="#AFBFC2" d="M30.952,29.354c0.034,0,0.067-0.033,0.067-0.067c-0.033-0.17-0.203-0.306-0.373-0.306
										s-0.34,0.136-0.375,0.306c0,0.034,0.035,0.067,0.067,0.067H30.952z"/>
									<path fill="#AFBFC2" d="M31.326,25.068c0,0.68-0.68,1.702-1.463,1.702c-0.781,0-1.359-1.021-1.359-1.702v-0.102
										c0-0.68,0.611-1.088,1.428-1.088l0,0c0.783,0,1.43,0.408,1.43,1.088v0.102H31.326z"/>
									<path fill="#F3A5AE" d="M29.66,25.986v0.815c0,0.138,0.136,0.271,0.271,0.271l0,0c0.137,0,0.237-0.136,0.237-0.271v-0.815
										H29.66z"/>
									<path fill="#FFFFFF" d="M30.611,25.952c-0.033-0.103-0.103-0.237-0.17-0.306c-0.17-0.138-0.271-0.307-0.271-0.478
										C30.102,24.694,30,23.844,30,23.844h-0.17l-0.137,1.292c-0.033,0.17-0.103,0.34-0.238,0.442
										c-0.135,0.102-0.203,0.204-0.237,0.34c-0.067,0.271,0.306,0.477,0.714,0.477S30.646,26.225,30.611,25.952z"/>
									<path fill="#11201C" d="M29.898,25.68L29.898,25.68L29.898,25.68L29.898,25.68L29.898,25.68
										c-0.308,0-0.512,0.137-0.375,0.307c0.307,0.375,0.545,0.171,0.715,0C30.441,25.816,30.204,25.68,29.898,25.68z"/>
									<path fill="#AFBFC2" d="M28.707,24.592c0,0-0.033-1.258,0.17-1.327c0.205-0.068,0.613,0.714,0.613,0.714L28.707,24.592z"/>
									<path fill="#AFBFC2" d="M31.021,24.592c0,0,0.033-1.258-0.17-1.327c-0.205-0.068-0.613,0.714-0.613,0.714L31.021,24.592z"
										/>
									<path fill="#FFD4BC" d="M30.441,23.979l0.238-0.34c0.034-0.034,0.067,0,0.067,0.034l0.034,0.476L30.441,23.979z"/>
									<path fill="#FFD4BC" d="M29.32,24.014l-0.272-0.306c-0.034-0.034-0.067,0-0.067,0.034l-0.035,0.476L29.32,24.014z"/>
									<ellipse fill="#11201C" cx="30.578" cy="25.034" rx="0.102" ry="0.136"/>
									<ellipse fill="#11201C" cx="29.218" cy="25.034" rx="0.103" ry="0.136"/>
								</g>
							</g>
							<g>
								<g>
									<path fill="#D07422" d="M29.729,29.115c-0.17-0.102-0.272-0.17-0.375-0.271c-0.102-0.101-0.203-0.203-0.271-0.34
										c-0.138-0.238-0.237-0.477-0.272-0.749c0.137,0.204,0.307,0.374,0.512,0.511c0.102,0.068,0.203,0.103,0.306,0.137
										c0.103,0.033,0.237,0.066,0.272,0.066L29.729,29.115z"/>
								</g>
								<path fill="#9C571A" d="M29.762,27.381l0.852,0.612v1.292h-0.75c-0.372,0-0.61-0.067-0.61-0.34
									C29.252,28.57,29.523,27.585,29.762,27.381z"/>
								<path fill="#D48B4D" d="M30.51,29.285L30.51,29.285v-1.122c0-0.136-0.102-0.204-0.238-0.204
									c-0.135,0-0.236,0.102-0.236,0.238v0.885c0,0.102,0,0.17,0,0.203h-0.408v-2.108h0.544c0.408,0,0.748,0.341,0.748,0.749
									v1.359H30.51z"/>
								<path fill="#FFE2D1" d="M30.545,29.285c-0.035,0-0.068-0.033-0.035-0.067c0.035-0.103,0.137-0.17,0.238-0.17
									c0.104,0,0.204,0.067,0.238,0.17c0,0.034,0,0.067-0.034,0.067H30.545z"/>
								<path fill="#FFE2D1" d="M29.626,29.285c-0.034,0-0.034,0-0.034-0.033c0.034-0.104,0.137-0.204,0.238-0.204
									c0.136,0,0.204,0.103,0.238,0.204c0,0.033,0,0.033-0.034,0.033H29.626z"/>
								<g>
									<path fill="#D48B4D" d="M29.115,26.021c0,0-0.373-0.035-0.611-0.375c-0.17-0.237-0.205-0.579-0.137-0.986l0.033-0.136
										l0.137-0.034c0,0,0.104-0.034,0.238-0.034c0.578,0,0.885,0.306,0.885,0.85v0.068l-0.477,0.612L29.115,26.021z"/>
									<path fill="#FFD4BC" d="M29.115,25.816c0,0-0.781-0.068-0.545-1.088c0,0,0.92-0.204,0.92,0.646L29.115,25.816z"/>
									<path fill="#D48B4D" d="M31.43,26.021c0,0,0.373-0.035,0.611-0.375c0.17-0.237,0.204-0.579,0.136-0.986l-0.034-0.136
										l-0.136-0.034c0,0-0.136-0.034-0.272-0.034c-0.577,0-0.918,0.306-0.918,0.85v0.068l0.511,0.612L31.43,26.021z"/>
									<path fill="#FFD4BC" d="M31.43,25.816c0,0,0.781-0.068,0.543-1.088c0,0-0.918-0.204-0.918,0.646L31.43,25.816z"/>
									<path fill="#D48B4D" d="M28.877,26.123c0,0.646,0.646,1.564,1.395,1.564c0.75,0,1.328-0.953,1.328-1.564V26.02
										c0-0.646-0.578-1.021-1.361-1.021l0,0c-0.747,0-1.36,0.374-1.36,1.021L28.877,26.123L28.877,26.123z"/>
									<path fill="#FFE2D1" d="M29.218,27.041c0.272,0.374,0.646,0.646,1.089,0.646c0.441,0,0.816-0.308,1.055-0.715l-0.375-0.308
										c-0.407-0.306-0.951-0.306-1.325,0L29.218,27.041z"/>
									<ellipse fill="#5A2A00" cx="30.885" cy="26.226" rx="0.137" ry="0.204"/>
									<ellipse fill="#5A2A00" cx="29.729" cy="26.226" rx="0.135" ry="0.204"/>
									<path fill="#FFE2D1" d="M30.307,27.041L30.307,27.041c-0.103,0-0.17-0.068-0.17-0.17V25.68c0-0.102,0.067-0.17,0.17-0.17
										l0,0c0.103,0,0.17,0.068,0.17,0.17v1.191C30.441,26.973,30.374,27.041,30.307,27.041z"/>
									<path fill="#11201C" d="M30.307,26.77L30.307,26.77L30.307,26.77L30.307,26.77L30.307,26.77
										c0.203,0,0.373,0.067,0.271,0.237c-0.137,0.306-0.408,0.306-0.51,0C30,26.837,30.137,26.77,30.307,26.77z"/>
								</g>
								<path fill="#F3A5AE" d="M30.17,27.381v0.238c0,0.102,0.102,0.204,0.204,0.204l0,0c0.103,0,0.171-0.103,0.171-0.204v-0.204
									H30.17V27.381z"/>
							</g>
						</g>
						<g display="inline">
							<g opacity="0.3">
								<rect x="27.143" y="31.973" fill="#DBDCDD" width="0.646" height="0.34"/>
							</g>
							<g>
								<rect x="28.945" y="31.973" opacity="0.3" fill="#DBDCDD" enable-background="new    " width="0.646" height="0.34"/>
							</g>
							<g opacity="0.3">
								<rect x="30.646" y="31.973" fill="#DBDCDD" width="0.646" height="0.34"/>
							</g>
							<g>
								<rect x="32.348" y="31.973" opacity="0.3" fill="#DBDCDD" enable-background="new    " width="0.646" height="0.34"/>
							</g>
						</g>
					</g>
					<g display="none">
						<rect x="34.148" y="20.749" display="inline" fill="#FFFFFF" width="7.041" height="12.006"/>
						<g display="inline">
							<rect x="34.285" y="22.959" fill="#EAD168" width="6.803" height="7.449"/>
							<g opacity="0.3">
								<circle fill="#DBDCDD" cx="35.238" cy="21.871" r="0.646"/>
								<rect x="36.225" y="21.701" fill="#C1C1C1" width="4.219" height="0.34"/>
								<rect x="34.626" y="30.816" fill="#DBDCDD" width="4.829" height="0.408"/>
								<rect x="40.17" y="30.816" fill="#DBDCDD" width="0.477" height="0.477"/>
							</g>
							<g display="none">
								<path display="inline" fill="#575656" d="M38.163,27.959c0,0,1.292,0,1.292,0.646c0,0.646,0,1.293,0,1.293
									S38.163,28.299,38.163,27.959z"/>
								<g display="inline">
									<path fill="#575656" d="M37.585,26.871c-0.919-0.068-0.748,0.781-0.748,0.781v1.701h1.19c0.611,0,0.715-0.205,0.715-0.611
										C38.707,28.163,38.504,26.904,37.585,26.871z"/>
									<path fill="#838F92" d="M37.041,29.354C37.041,29.354,37.041,29.32,37.041,29.354v-1.699c0-0.204,0.17-0.342,0.34-0.342
										c0.204,0,0.34,0.17,0.34,0.342v1.359c0,0.137,0,0.238,0,0.34h0.646v-2.449c0-0.44-0.441-0.951-0.885-0.951h0.067
										c-0.646,0-1.155,0.441-1.155,1.089v2.278h0.646L37.041,29.354L37.041,29.354z"/>
									<path fill="#AFBFC2" d="M36.973,29.354c0.068,0,0.103-0.067,0.068-0.102c-0.034-0.17-0.204-0.271-0.375-0.271
										c-0.17,0-0.34,0.103-0.373,0.271c0,0.068,0.033,0.102,0.066,0.102H36.973z"/>
									<path fill="#AFBFC2" d="M38.436,29.354c0.033,0,0.068-0.033,0.068-0.067c-0.035-0.17-0.205-0.306-0.375-0.306
										s-0.34,0.136-0.374,0.306c0,0.034,0.034,0.067,0.068,0.067H38.436z"/>
									<path fill="#AFBFC2" d="M38.811,25.068c0,0.68-0.682,1.702-1.463,1.702c-0.783,0-1.361-1.021-1.361-1.702v-0.102
										c0-0.68,0.613-1.088,1.43-1.088l0,0c0.782,0,1.43,0.408,1.43,1.088v0.102H38.811z"/>
									<path fill="#F3A5AE" d="M37.143,25.986v0.815c0,0.138,0.137,0.271,0.272,0.271l0,0c0.136,0,0.237-0.136,0.237-0.271v-0.815
										H37.143z"/>
									<path fill="#FFFFFF" d="M38.096,25.952c-0.035-0.103-0.103-0.237-0.17-0.306c-0.137-0.138-0.238-0.272-0.238-0.478
										c-0.067-0.476-0.17-1.326-0.17-1.326h-0.17l-0.137,1.292c-0.034,0.17-0.102,0.34-0.238,0.442
										c-0.136,0.103-0.203,0.204-0.238,0.34c-0.067,0.272,0.308,0.478,0.716,0.478C37.857,26.395,38.129,26.225,38.096,25.952z"
										/>
									<path fill="#11201C" d="M37.381,25.68L37.381,25.68L37.381,25.68L37.381,25.68L37.381,25.68
										c-0.307,0-0.51,0.137-0.374,0.307c0.306,0.375,0.544,0.171,0.714,0C37.926,25.816,37.688,25.68,37.381,25.68z"/>
									<path fill="#AFBFC2" d="M36.189,24.592c0,0-0.033-1.258,0.17-1.327c0.205-0.068,0.613,0.714,0.613,0.714L36.189,24.592z"/>
									<path fill="#AFBFC2" d="M38.504,24.592c0,0,0.033-1.258-0.17-1.327c-0.205-0.068-0.613,0.714-0.613,0.714L38.504,24.592z"
										/>
									<path fill="#FFD4BC" d="M37.926,23.979l0.237-0.34c0.034-0.034,0.067,0,0.067,0.034l0.035,0.476L37.926,23.979z"/>
									<path fill="#FFD4BC" d="M36.803,24.014l-0.271-0.306c-0.035-0.034-0.068,0-0.068,0.034l-0.034,0.476L36.803,24.014z"/>
									<ellipse fill="#11201C" cx="38.061" cy="25.034" rx="0.104" ry="0.136"/>
									<ellipse fill="#11201C" cx="36.701" cy="25.034" rx="0.102" ry="0.136"/>
								</g>
							</g>
							<g>
								<g>
									<path fill="#D07422" d="M38.57,28.707c0.068,0,0.137-0.033,0.205-0.066c0.067-0.035,0.137-0.068,0.203-0.104
										c0.137-0.102,0.238-0.203,0.307-0.34c-0.033,0.17-0.102,0.34-0.203,0.477c-0.034,0.068-0.104,0.137-0.17,0.203
										c-0.068,0.068-0.137,0.104-0.238,0.171L38.57,28.707z"/>
								</g>
								<path fill="#754114" d="M37.959,27.245c-0.85-0.068-0.68,0.714-0.68,0.714v1.531h1.055c0.543,0,0.646-0.17,0.646-0.545
									C39.014,28.436,38.811,27.279,37.959,27.245z"/>
								<path fill="#9C571A" d="M37.449,29.456C37.449,29.456,37.449,29.422,37.449,29.456v-1.429c0-0.17,0.136-0.307,0.306-0.307
									c0.171,0,0.306,0.137,0.306,0.307v1.121c0,0.137,0,0.205,0,0.308h0.58v-1.938c0-0.408-0.408-0.852-0.816-0.852h0.066
									c-0.578,0-1.054,0.477-1.054,1.055v1.734L37.449,29.456L37.449,29.456z"/>
								<path fill="#D48B4D" d="M37.381,29.49c0.034,0,0.102-0.034,0.068-0.104c-0.034-0.136-0.17-0.238-0.34-0.238
									s-0.308,0.104-0.342,0.238c0,0.034,0.034,0.104,0.068,0.104H37.381z"/>
								<path fill="#D48B4D" d="M38.775,29.49c0.033,0,0.067-0.034,0.067-0.068c-0.034-0.17-0.17-0.271-0.34-0.271
									s-0.308,0.136-0.341,0.271c0,0.034,0.033,0.068,0.068,0.068H38.775z"/>
								<path fill="#D48B4D" d="M36.496,26.258c0-0.543,0.613-1.394,1.327-1.394s1.259,0.851,1.259,1.394v0.104
									c0,0.543-0.578,0.918-1.293,0.918l0,0c-0.715,0-1.293-0.34-1.293-0.918V26.258z"/>
								<path fill="#FFE2D1" d="M36.531,26.395c0.033,0.545,0.476,0.852,1.258,0.852c0.68,0,1.293-0.307,1.293-0.852h-0.441
									c-0.238,0-0.478-0.17-0.512-0.408l-0.271-1.122l-0.375,1.157c-0.066,0.203-0.271,0.373-0.51,0.373H36.531z"/>
								<ellipse fill="#FFFFFF" cx="37.789" cy="26.735" rx="0.68" ry="0.51"/>
								<path fill="#11201C" d="M37.789,26.43L37.789,26.43C37.789,26.43,37.755,26.43,37.789,26.43c-0.034,0,0,0-0.034,0l0,0
									c-0.237,0-0.374,0.103-0.272,0.236c0.238,0.307,0.443,0.137,0.578,0C38.197,26.564,38.027,26.43,37.789,26.43z"/>
								<path fill="#9C571A" d="M37.348,25.034c0,0-0.137-0.17-0.545,0s-0.477,0.612-0.51,0.952
									c-0.068,0.477-0.511,1.123,0.271,0.986C37.312,26.803,36.293,25.374,37.348,25.034z"/>
								<path fill="#9C571A" d="M38.367,25.034c0,0,0.137-0.17,0.545,0.034c0.408,0.204,0.408,0.647,0.441,0.987
									c0,0.478,0.375,1.156-0.34,0.952C38.266,26.803,39.389,25.611,38.367,25.034z"/>
								<path fill="#F3A5AE" d="M37.585,27.041v0.271c0,0.137,0.103,0.237,0.238,0.237l0,0c0.136,0,0.237-0.102,0.237-0.237v-0.271
									H37.585z"/>
								<ellipse fill="#5A2A00" cx="38.266" cy="25.952" rx="0.103" ry="0.136"/>
								<ellipse fill="#5A2A00" cx="37.245" cy="25.952" rx="0.103" ry="0.136"/>
							</g>
						</g>
						<g display="inline" opacity="0.3">
							<g>
								<rect x="34.626" y="31.973" fill="#DBDCDD" width="0.646" height="0.34"/>
							</g>
							<g>
								<rect x="36.43" y="31.973" fill="#DBDCDD" width="0.646" height="0.34"/>
							</g>
							<g>
								<rect x="38.129" y="31.973" fill="#DBDCDD" width="0.646" height="0.34"/>
							</g>
							<g>
								<rect x="39.83" y="31.973" fill="#DBDCDD" width="0.646" height="0.34"/>
							</g>
						</g>
					</g>
				</g>
			</g>
		</g>
	</g>
	<rect x="14.694" y="14.286" display="inline" fill="none" width="30.613" height="18.708"/>
	<g display="inline">
		<path fill="#52E892" d="M14.66,30.646c0.034-0.068,30.646,0,30.646,0v3.367H14.694L14.66,30.646z"/>
		<path fill="#F3A5AE" d="M21.36,28.57c-0.306-0.17-0.544,0.104-0.544,0.342c0-0.238-0.272-0.512-0.544-0.342
			c-0.408,0.238,0,0.92,0.544,1.123C21.36,29.456,21.735,28.775,21.36,28.57z"/>
		<path fill="#F3A5AE" d="M41.021,23.844c-0.272-0.136-0.477,0.102-0.477,0.306c0-0.204-0.238-0.442-0.477-0.306
			c-0.34,0.204,0,0.816,0.477,0.986C41.021,24.66,41.359,24.048,41.021,23.844z"/>
		<path fill="#F3A5AE" d="M39.729,18.027c-0.307-0.17-0.545,0.102-0.545,0.34c0-0.238-0.271-0.51-0.543-0.34
			c-0.408,0.238,0,0.918,0.543,1.122C39.729,18.912,40.102,18.231,39.729,18.027z"/>
		<g>
			<g>
				<path fill="#FFD4BC" d="M28.707,20.782c0,0-0.34-0.476-0.51-0.238c-0.17,0.238,0.137,0.986,0.51,0.85V20.782z"/>
				<path fill="#FFD4BC" d="M32.823,20.782c0,0,0.34-0.476,0.511-0.238c0.17,0.238-0.137,0.986-0.511,0.85V20.782z"/>
				<g>
					<path fill="#754114" d="M30.918,30.611v0.205c0,0.067,0.068,0.136,0.137,0.136h0.816c0.102,0,0.136-0.103,0.102-0.204
						c-0.068-0.102-0.918-0.271-0.918-0.271C30.986,30.477,30.918,30.51,30.918,30.611z"/>
					<path fill="#754114" d="M30.545,30.611v0.205c0,0.067-0.068,0.136-0.137,0.136h-0.816c-0.102,0-0.137-0.103-0.102-0.204
						c0.066-0.102,0.918-0.271,0.918-0.271C30.51,30.477,30.545,30.51,30.545,30.611z"/>
					<path fill="#EA9300" d="M29.523,26.701h2.482l-0.441,3.844h-0.646c0,0,0.068-3.062-0.17-3.096c-0.238,0-0.17,3.096-0.17,3.096
						h-0.782L29.523,26.701z"/>
					<path fill="#62C5CF" d="M27.177,24.422c1.089-0.34,2.212-1.531,3.062-1.531c0.545,0,0.953,0,0.953,0s0.408-0.068,0.815,0.306
						c0.272,0.238,0.511,1.021,0.952,1.735c0.545,0.884,0.953,1.02,1.43,1.292c0.17,0.373-0.307,0.307-0.341,0.373
						c-1.53-1.189-2.211-2.415-2.211-2.415s0.374,1.769,0.306,3.027c0,0-0.713,0.034-1.359,0.034c-0.682,0-1.36-0.104-1.36-0.104
						c-0.067-1.225,0.103-3.026,0.103-3.026l-2.619,1.088C26.633,25.034,27.177,24.422,27.177,24.422z"/>
					<path fill="#FFD4BC" d="M30.238,22.925c0,0.272,0.238,0.476,0.51,0.476l0,0c0.307,0,0.545-0.204,0.545-0.476v-0.646
						c0-0.272-0.238-0.578-0.545-0.578l0,0c-0.307,0-0.51,0.306-0.51,0.578V22.925z"/>
					<path fill="#FFD4BC" d="M33.061,19.048v2.483c0,0.646-0.543,1.19-1.258,1.19h-2.041c-0.68,0-1.258-0.544-1.258-1.19v-2.449
						L33.061,19.048z"/>
					<path fill="#FFC0AD" d="M30.852,22.585c0.748,0,1.461,0,2.143-0.646c-0.17,0.442-0.646,0.782-1.156,0.782h-2.041
						c-0.544,0-1.021-0.34-1.189-0.851C29.252,22.585,30.068,22.585,30.852,22.585z"/>
					<ellipse fill="#5A2A00" cx="31.904" cy="20.646" rx="0.205" ry="0.34"/>
					<ellipse fill="#5A2A00" cx="29.693" cy="20.646" rx="0.205" ry="0.34"/>
					<path opacity="0.8" fill="#191919" enable-background="new    " d="M30.816,21.19c0.136,0,0.271-0.034,0.373-0.068
						c0,0.034,0.035,0.068,0.035,0.068c0,0.136-0.17,0.272-0.375,0.272c-0.203,0-0.373-0.102-0.373-0.272
						c0-0.034,0-0.068,0.032-0.068C30.545,21.19,30.68,21.19,30.816,21.19z"/>
					<ellipse fill="#FFC0AD" cx="31.904" cy="21.361" rx="0.272" ry="0.272"/>
					<ellipse fill="#FFC0AD" cx="29.693" cy="21.361" rx="0.272" ry="0.272"/>
					<g>
						<g>
							<path id="XMLID_3_" fill="#B83336" d="M31.258,21.701c0,0.272-0.236,0.51-0.51,0.51c-0.271,0-0.51-0.204-0.51-0.51"/>
						</g>
						<g>
							<g>
								<defs>
									<path id="SVGID_3_" d="M31.258,21.701c0,0.272-0.236,0.51-0.51,0.51c-0.271,0-0.51-0.204-0.51-0.51"/>
								</defs>
								<clipPath id="SVGID_4_">
									<use xlink:href="#SVGID_3_"  overflow="visible"/>
								</clipPath>
								<ellipse clip-path="url(#SVGID_4_)" fill="#FC6B79" cx="30.885" cy="22.347" rx="0.476" ry="0.476"/>
							</g>
						</g>
					</g>
				</g>
				<path fill="#754114" d="M33.061,21.123h-0.17V19.66c0-0.34-0.306-0.578-0.646-0.51l-1.226,0.272
					c-0.17,0.034-0.373,0.068-0.543,0l-1.26-0.272c-0.238-0.068-0.441,0.136-0.441,0.375v1.564h-0.238c0,0-0.714-1.973,0.033-2.823
					c0.75-0.816,2.619-1.599,3.709-0.238c0,0,0.408-0.136,0.781,0.306C33.504,18.81,33.334,20,33.061,21.123z"/>
			</g>
			<g>
				<g>
					<path fill="#575656" d="M27.109,27.688l-0.035,0.033l-0.033,0.034l0,0v0.034c0,0.034,0,0.034,0,0.068c0,0.033,0,0.067,0,0.102
						c0,0.068,0.033,0.102,0.068,0.17c0.066,0.104,0.136,0.17,0.238,0.238c0.17,0.137,0.406,0.17,0.61,0.137
						c0.204-0.068,0.442-0.205,0.578-0.408c0.103-0.103,0.137-0.238,0.237-0.375c0.068-0.136,0.103-0.271,0.17-0.408
						c0.138,0.068,0.272,0.138,0.443,0.205c0.135,0.067,0.271,0.17,0.407,0.271c0.272,0.238,0.511,0.545,0.714,0.918
						c0.17,0.408,0.271,0.885,0.238,1.43c0,0.271-0.068,0.543-0.137,0.815c-0.033,0.136-0.103,0.272-0.17,0.407
						c-0.033,0.068-0.067,0.137-0.103,0.205c-0.032,0.033-0.032,0.067-0.067,0.137l-0.033,0.066l0,0l-0.034,0.034l-0.067,0.068
						L27.109,27.688z"/>
				</g>
				<path fill="#575656" d="M27.381,27.312c-1.359-0.103-1.088,1.155-1.088,1.155v2.449h1.734c0.885,0,1.055-0.271,1.055-0.884
					C29.082,29.218,28.742,27.381,27.381,27.312z"/>
				<path fill="#838F92" d="M26.6,30.952v-0.034v-2.482c0-0.271,0.237-0.477,0.51-0.477c0.271,0,0.511,0.238,0.511,0.51v2.008
					c0,0.203,0,0.34,0,0.477h0.952v-3.571c0-0.68-0.646-1.36-1.293-1.36h0.103c-0.918,0-1.7,0.646-1.7,1.6v3.333H26.6V30.952z"/>
				<path fill="#AFBFC2" d="M26.496,30.952c0.068,0,0.137-0.067,0.104-0.136c-0.067-0.238-0.307-0.408-0.545-0.408
					c-0.271,0-0.477,0.17-0.545,0.408c0,0.067,0.035,0.136,0.137,0.136H26.496z"/>
				<path fill="#AFBFC2" d="M28.641,30.952c0.066,0,0.103-0.067,0.103-0.103c-0.068-0.271-0.272-0.441-0.545-0.441
					s-0.511,0.203-0.546,0.441c0,0.067,0.035,0.103,0.104,0.103H28.641z"/>
				<path fill="#AFBFC2" d="M29.184,24.694c0,0.986-0.985,2.483-2.143,2.483s-2.007-1.497-2.007-2.483v-0.17
					c0-0.986,0.918-1.599,2.075-1.599l0,0c1.156,0,2.074,0.612,2.074,1.599V24.694L29.184,24.694z"/>
				<path fill="#F3A5AE" d="M26.77,26.055v1.19c0,0.204,0.17,0.407,0.373,0.374l0,0c0.205,0,0.375-0.17,0.375-0.408v-1.156H26.77z"
					/>
				<path fill="#FFFFFF" d="M28.129,25.952c-0.033-0.17-0.136-0.341-0.271-0.442c-0.205-0.169-0.34-0.408-0.375-0.68
					c-0.066-0.714-0.236-1.939-0.236-1.939l-0.238,0.034l-0.203,1.905c-0.035,0.238-0.171,0.476-0.375,0.646
					c-0.171,0.135-0.306,0.306-0.373,0.51c-0.068,0.408,0.44,0.715,1.02,0.715C27.654,26.701,28.197,26.359,28.129,25.952z"/>
				<path fill="#11201C" d="M27.109,25.545L27.109,25.545C27.109,25.545,27.074,25.545,27.109,25.545
					C27.074,25.545,27.109,25.545,27.109,25.545L27.109,25.545c-0.478,0-0.75,0.17-0.545,0.477c0.441,0.543,0.783,0.271,1.055,0
					C27.891,25.749,27.585,25.578,27.109,25.545z"/>
				<path fill="#AFBFC2" d="M25.374,23.979c0,0-0.068-1.836,0.237-1.938c0.307-0.102,0.92,1.054,0.92,1.054L25.374,23.979z"/>
				<path fill="#AFBFC2" d="M28.742,23.979c0,0,0.066-1.836-0.238-1.938c-0.307-0.102-0.919,1.054-0.919,1.054L28.742,23.979z"/>
				<path fill="#FFD4BC" d="M27.891,23.061l0.375-0.51c0.033-0.034,0.103-0.034,0.103,0.034l0.067,0.714L27.891,23.061z"/>
				<path fill="#FFD4BC" d="M26.258,23.129l-0.406-0.476c-0.035-0.034-0.104-0.034-0.104,0.034l-0.033,0.714L26.258,23.129z"/>
				<ellipse fill="#11201C" cx="28.061" cy="24.626" rx="0.138" ry="0.204"/>
				<ellipse fill="#11201C" cx="26.123" cy="24.626" rx="0.135" ry="0.204"/>
			</g>
			<g>
				<g>
					<path fill="#D07422" d="M34.285,26.904c-0.102,0.035-0.102,0.068-0.102,0.103c-0.035,0.034-0.035,0.034-0.035,0.067
						c0,0.035-0.033,0.068-0.033,0.137s0,0.137,0,0.238c0.033,0.136,0.068,0.271,0.103,0.408c0.103,0.238,0.272,0.477,0.476,0.646
						c0.408,0.373,0.953,0.544,1.564,0.476c0.408,0.408,0.715,1.056,0.749,1.77c0.034,0.375,0,0.748-0.103,1.123
						c-0.033,0.203-0.103,0.408-0.203,0.578c-0.035,0.102-0.104,0.203-0.17,0.306c-0.035,0.034-0.068,0.103-0.104,0.171
						c-0.033,0.033-0.033,0.067-0.068,0.067c-0.033,0.034-0.033,0.067-0.17,0.103L34.285,26.904z"/>
				</g>
				<path fill="#754114" d="M34.218,27.482c-1.292-0.067-1.021,1.123-1.021,1.123v2.347h1.633c0.85,0,0.986-0.272,0.986-0.851
					C35.816,29.32,35.51,27.585,34.218,27.482z"/>
				<path fill="#9C571A" d="M33.4,30.885C33.4,30.885,33.4,30.852,33.4,30.885v-2.211c0-0.271,0.238-0.477,0.477-0.477
					c0.271,0,0.477,0.203,0.477,0.477v1.734c0,0.17,0,0.34,0,0.441h0.885v-2.959c0-0.646-0.611-1.293-1.225-1.293h0.103
					c-0.884,0-1.599,0.715-1.599,1.6v2.652h0.885v0.035H33.4z"/>
				<path fill="#D48B4D" d="M33.334,30.952c0.066,0,0.135-0.067,0.102-0.136c-0.067-0.238-0.271-0.375-0.51-0.375
					s-0.443,0.17-0.511,0.375c-0.034,0.067,0.034,0.136,0.103,0.136H33.334z"/>
				<path fill="#D48B4D" d="M35.441,30.952c0.067,0,0.104-0.034,0.067-0.103c-0.067-0.238-0.271-0.441-0.544-0.441
					s-0.477,0.17-0.544,0.441c0,0.067,0.033,0.103,0.068,0.103H35.441z"/>
				<path fill="#D48B4D" d="M31.939,25.952c0-0.85,0.951-2.143,2.039-2.143c1.09,0,1.905,1.292,1.905,2.143v0.136
					c0,0.852-0.885,1.395-1.973,1.395l0,0c-1.089,0-1.974-0.543-1.974-1.395v-0.136H31.939z"/>
				<path fill="#FFE2D1" d="M32.007,26.189c0.067,0.816,0.748,1.328,1.938,1.293c1.055,0,1.973-0.51,2.007-1.293h-0.681
					c-0.373,0-0.715-0.271-0.816-0.611l-0.441-1.734l-0.611,1.803c-0.067,0.307-0.408,0.545-0.75,0.545h-0.646V26.189z"/>
				<ellipse fill="#FFFFFF" cx="33.945" cy="26.734" rx="1.055" ry="0.748"/>
				<path fill="#11201C" d="M33.912,26.258L33.912,26.258C33.912,26.258,33.877,26.258,33.912,26.258c-0.035,0,0,0-0.068,0l0,0
					c-0.375,0-0.578,0.137-0.408,0.408c0.34,0.443,0.681,0.238,0.885,0C34.559,26.43,34.285,26.258,33.912,26.258z"/>
				<path fill="#9C571A" d="M33.23,24.116c0,0-0.203-0.272-0.851,0c-0.647,0.272-0.715,0.952-0.782,1.462
					c-0.103,0.748-0.748,1.734,0.408,1.496C33.197,26.837,31.633,24.626,33.23,24.116z"/>
				<path fill="#9C571A" d="M34.83,24.116c0,0,0.238-0.272,0.85,0.068c0.613,0.34,0.646,1.021,0.646,1.531
					c0.033,0.748,0.613,1.803-0.544,1.462C34.66,26.837,36.43,24.966,34.83,24.116z"/>
				<path fill="#F3A5AE" d="M33.605,27.177v0.408c0,0.204,0.17,0.341,0.373,0.341l0,0c0.205,0,0.342-0.171,0.342-0.375v-0.408
					h-0.715V27.177z"/>
				<ellipse fill="#5A2A00" cx="34.693" cy="25.51" rx="0.137" ry="0.204"/>
				<ellipse fill="#5A2A00" cx="33.129" cy="25.544" rx="0.137" ry="0.204"/>
			</g>
			<path fill="#F3A5AE" d="M22.721,18.844c-0.442-0.238-0.816,0.17-0.816,0.51c0-0.34-0.374-0.748-0.816-0.51
				c-0.578,0.34,0,1.36,0.816,1.667C22.755,20.17,23.333,19.184,22.721,18.844z"/>
			<path fill="#F3A5AE" d="M35.204,21.123c-0.341-0.17-0.612,0.102-0.612,0.374c0-0.272-0.271-0.578-0.611-0.374
				c-0.442,0.238,0,1.021,0.611,1.258C35.238,22.143,35.646,21.395,35.204,21.123z"/>
			<path fill="#F3A5AE" d="M34.523,18.061c-0.17-0.102-0.307,0.068-0.307,0.204c0-0.136-0.136-0.306-0.306-0.204
				c-0.238,0.136,0,0.544,0.306,0.646C34.523,18.605,34.762,18.197,34.523,18.061z"/>
			<path fill="#F3A5AE" d="M27.211,20.204c-0.17-0.102-0.307,0.068-0.307,0.17c0-0.136-0.137-0.272-0.307-0.17
				c-0.203,0.136,0,0.51,0.307,0.612C27.211,20.68,27.415,20.306,27.211,20.204z"/>
		</g>
	</g>
	<rect x="14.592" y="14.796" display="inline" fill="#FFFFFF" width="31.021" height="1.871"/>
	<g display="inline">
		<path fill="#404041" d="M46.123,33.979V14.83c0-0.68-0.545-1.225-1.225-1.225H15.442c-0.681,0-1.225,0.544-1.225,1.225v19.148
			c0,0.342,0.136,0.612,0.34,0.852h31.225C45.986,34.626,46.123,34.32,46.123,33.979z M45,33.469H15.17V14.83h29.796v18.639H45z"/>
		<polygon fill="#D0D2D3" points="45.782,34.83 14.558,34.83 10.68,34.83 10.68,35.545 49.693,35.545 49.693,34.83 		"/>
		<circle fill="#929497" cx="30.204" cy="14.286" r="0.17"/>
		<path fill="#BBBDBF" d="M30.17,34.83h-0.068h-2.721c0,0,0.068,0.477,0.51,0.477c0.375,0,1.803,0,2.178,0c0.068,0,0.103,0,0.103,0
			c0.375,0,1.804,0,2.179,0c0.44,0,0.51-0.477,0.51-0.477H30.17z"/>
		<path fill="#E6E7E8" d="M10.68,35.545c0,0,0.238,0.51,2.245,0.51c2.007,0,17.177,0,17.177,0h0.17c0,0,15.137,0,17.178,0
			c2.006,0,2.244-0.51,2.244-0.51"/>
	</g>
	<g display="inline">
		<path opacity="0.2" fill="#0074FF" enable-background="new    " d="M40.816,15.986L40.816,15.986c-0.205,0-0.34-0.136-0.34-0.34
			l0,0c0-0.204,0.135-0.34,0.34-0.34l0,0c0.203,0,0.34,0.136,0.34,0.34l0,0C41.156,15.851,41.021,15.986,40.816,15.986z"/>
		<path opacity="0.2" fill="#0074FF" enable-background="new    " d="M39.796,15.986L39.796,15.986c-0.204,0-0.341-0.136-0.341-0.34
			l0,0c0-0.204,0.137-0.34,0.341-0.34l0,0c0.204,0,0.341,0.136,0.341,0.34l0,0C40.137,15.851,40,15.986,39.796,15.986z"/>
		<rect x="19.048" y="15.306" opacity="0.2" fill="#0074FF" enable-background="new    " width="2.721" height="0.68"/>
		<path opacity="0.2" fill="#0074FF" enable-background="new    " d="M38.775,15.986L38.775,15.986c-0.205,0-0.34-0.136-0.34-0.34
			l0,0c0-0.204,0.135-0.34,0.34-0.34l0,0c0.203,0,0.34,0.136,0.34,0.34l0,0C39.115,15.851,38.979,15.986,38.775,15.986z"/>
		<path opacity="0.2" fill="#0074FF" enable-background="new    " d="M37.074,15.986L37.074,15.986c-0.203,0-0.34-0.136-0.34-0.34
			l0,0c0-0.204,0.137-0.34,0.34-0.34l0,0c0.205,0,0.341,0.136,0.341,0.34l0,0C37.415,15.851,37.279,15.986,37.074,15.986z"/>
		<path opacity="0.2" fill="#0074FF" enable-background="new    " d="M36.055,15.986L36.055,15.986c-0.203,0-0.34-0.136-0.34-0.34
			l0,0c0-0.204,0.137-0.34,0.34-0.34l0,0c0.203,0,0.34,0.136,0.34,0.34l0,0C36.395,15.851,36.258,15.986,36.055,15.986z"/>
	</g>
</g>
<g>
	<rect x="1.154" y="18.103" fill="#F0F1F2" width="41.557" height="26.474"/>
	<g>
		<g>
			<defs>
				<rect id="SVGID_5_" x="0.973" y="18.103" width="41.555" height="26.474"/>
			</defs>
			<clipPath id="SVGID_6_">
				<use xlink:href="#SVGID_5_"  overflow="visible"/>
			</clipPath>
			<g clip-path="url(#SVGID_6_)">
				<g>
					<rect x="6.622" y="22.47" fill="#FFFFFF" width="4.557" height="29.617"/>
					<rect x="32.278" y="22.47" fill="#FFFFFF" width="4.556" height="29.617"/>
				</g>
				<g>
					<rect x="11.807" y="22.513" fill="#FFFFFF" width="19.886" height="33.912"/>
					<g>
						<rect x="12.191" y="28.757" fill="#0074FF" width="19.216" height="21.04"/>
						<g>
							<circle opacity="0.3" fill="#DBDCDD" enable-background="new    " cx="14.881" cy="25.684" r="1.825"/>
							<rect x="17.668" y="25.202" opacity="0.3" fill="#C1C1C1" enable-background="new    " width="11.91" height="0.962"/>
							<rect x="13.151" y="50.95" opacity="0.3" fill="#DBDCDD" enable-background="new    " width="13.644" height="1.152"/>
							<rect x="28.812" y="50.95" opacity="0.3" fill="#DBDCDD" enable-background="new    " width="1.343" height="1.346"/>
						</g>
						<g>
							<path fill="#575656" d="M23.142,42.879c0,0,3.653,0,3.653,1.825c0,1.826,0,3.652,0,3.652S23.142,43.838,23.142,42.879z"/>
							<g>
								<path fill="#575656" d="M21.51,39.807c-2.594-0.194-2.114,2.209-2.114,2.209v4.803h3.362c1.729,0,2.02-0.577,2.02-1.727
									C24.681,43.455,24.104,39.9,21.51,39.807z"/>
								<path fill="#838F92" d="M19.974,46.818C19.974,46.818,19.974,46.725,19.974,46.818v-4.803c0-0.577,0.481-0.963,0.96-0.963
									c0.576,0,0.96,0.48,0.96,0.963v3.843c0,0.383,0,0.672,0,0.96h1.827V39.9c0-1.247-1.251-2.689-2.499-2.689h0.19
									c-1.823,0-3.265,1.249-3.265,3.075v6.438h1.826V46.818z"/>
								<path fill="#AFBFC2" d="M19.782,46.818c0.191,0,0.288-0.193,0.191-0.288c-0.097-0.479-0.578-0.769-1.058-0.769
									c-0.479,0-0.96,0.289-1.057,0.769c0,0.194,0.097,0.288,0.193,0.288H19.782z"/>
								<path fill="#AFBFC2" d="M23.911,46.818c0.097,0,0.193-0.094,0.193-0.193c-0.097-0.48-0.575-0.863-1.057-0.863
									s-0.96,0.383-1.057,0.863c0,0.1,0.097,0.193,0.19,0.193H23.911z"/>
								<path fill="#AFBFC2" d="M24.969,34.713c0,1.921-1.921,4.805-4.132,4.805c-2.208,0-3.841-2.884-3.841-4.805v-0.287
									c0-1.922,1.729-3.075,4.034-3.075l0,0c2.209,0,4.035,1.153,4.035,3.075v0.287H24.969z"/>
								<path fill="#F3A5AE" d="M20.262,37.308v2.305c0,0.388,0.384,0.769,0.769,0.769l0,0c0.382,0,0.673-0.381,0.673-0.769v-2.305
									H20.262z"/>
								<path fill="#FFFFFF" d="M22.951,37.211c-0.097-0.287-0.288-0.67-0.481-0.863c-0.479-0.387-0.767-0.865-0.767-1.347
									c-0.193-1.345-0.481-3.745-0.481-3.745H20.74l-0.382,3.649c-0.097,0.48-0.288,0.961-0.673,1.25
									c-0.385,0.286-0.578,0.575-0.672,0.959c-0.194,0.769,0.863,1.346,2.017,1.346C22.182,38.46,23.048,37.979,22.951,37.211z"/>
								<path fill="#11201C" d="M20.934,36.441L20.934,36.441L20.934,36.441L20.934,36.441L20.934,36.441
									c-0.863,0-1.441,0.386-1.057,0.866c0.866,1.056,1.535,0.48,2.017,0C22.47,36.827,21.8,36.441,20.934,36.441z"/>
								<path fill="#AFBFC2" d="M17.571,33.368c0,0-0.097-3.555,0.481-3.747c0.576-0.192,1.729,2.018,1.729,2.018L17.571,33.368z"/>
								<path fill="#AFBFC2" d="M24.104,33.368c0,0,0.095-3.555-0.481-3.747c-0.575-0.192-1.729,2.018-1.729,2.018L24.104,33.368z"
									/>
								<path fill="#FFD4BC" d="M22.47,31.639l0.672-0.96c0.098-0.096,0.194,0,0.194,0.096l0.097,1.345L22.47,31.639z"/>
								<path fill="#FFD4BC" d="M19.301,31.735l-0.769-0.864c-0.095-0.097-0.191,0-0.191,0.097l-0.097,1.345L19.301,31.735z"/>
								<ellipse fill="#11201C" cx="22.854" cy="34.617" rx="0.287" ry="0.384"/>
								<ellipse fill="#11201C" cx="19.014" cy="34.617" rx="0.287" ry="0.384"/>
							</g>
						</g>
					</g>
					<g>
						<g opacity="0.3">
							<rect x="13.151" y="54.215" fill="#DBDCDD" width="1.826" height="0.961"/>
						</g>
						<g opacity="0.3">
							<rect x="18.244" y="54.215" fill="#DBDCDD" width="1.826" height="0.961"/>
						</g>
						<g>
							<rect x="23.048" y="54.215" opacity="0.3" fill="#DBDCDD" enable-background="new    " width="1.823" height="0.961"/>
						</g>
						<g>
							<rect x="27.849" y="54.215" opacity="0.3" fill="#DBDCDD" enable-background="new    " width="1.827" height="0.961"/>
						</g>
					</g>
				</g>
				<g display="none">
					<rect x="17.283" y="26.532" display="inline" fill="#FFFFFF" width="9.433" height="16.084"/>
					<g display="inline">
						<rect x="17.467" y="29.493" fill="#63AFC6" width="9.113" height="9.979"/>
						<g>
							<circle opacity="0.3" fill="#DBDCDD" enable-background="new    " cx="18.742" cy="28.036" r="0.866"/>
							<rect x="20.065" y="27.808" opacity="0.3" fill="#C1C1C1" enable-background="new    " width="5.648" height="0.456"/>
							<rect x="17.922" y="40.02" opacity="0.3" fill="#DBDCDD" enable-background="new    " width="6.471" height="0.547"/>
							<rect x="25.351" y="40.02" opacity="0.3" fill="#DBDCDD" enable-background="new    " width="0.637" height="0.639"/>
						</g>
						<g display="none">
							<path display="inline" fill="#575656" d="M22.66,36.191c0,0,1.732,0,1.732,0.866s0,1.732,0,1.732S22.66,36.646,22.66,36.191z
								"/>
							<g display="inline">
								<path fill="#575656" d="M21.886,34.734c-1.229-0.092-1.002,1.048-1.002,1.048v2.277h1.597c0.818,0,0.954-0.273,0.954-0.818
									C23.391,36.465,23.117,34.778,21.886,34.734z"/>
								<path fill="#838F92" d="M21.157,38.06C21.157,38.06,21.157,38.016,21.157,38.06v-2.277c0-0.273,0.229-0.457,0.457-0.457
									c0.271,0,0.455,0.228,0.455,0.457v1.822c0,0.182,0,0.319,0,0.455h0.866v-3.281c0-0.591-0.593-1.275-1.186-1.275h0.092
									c-0.866,0-1.549,0.593-1.549,1.459v3.054h0.864V38.06z"/>
								<path fill="#AFBFC2" d="M21.067,38.06c0.09,0,0.136-0.092,0.09-0.136c-0.046-0.228-0.273-0.365-0.501-0.365
									s-0.455,0.138-0.501,0.365c0,0.092,0.046,0.136,0.09,0.136H21.067z"/>
								<path fill="#AFBFC2" d="M23.025,38.06c0.046,0,0.092-0.044,0.092-0.092c-0.046-0.228-0.273-0.409-0.501-0.409
									s-0.455,0.182-0.503,0.409c0,0.048,0.048,0.092,0.092,0.092H23.025z"/>
								<path fill="#AFBFC2" d="M23.526,32.318c0,0.911-0.91,2.278-1.959,2.278c-1.047,0-1.821-1.367-1.821-2.278v-0.137
									c0-0.911,0.818-1.458,1.912-1.458l0,0c1.05,0,1.914,0.547,1.914,1.458v0.137H23.526z"/>
								<path fill="#F3A5AE" d="M21.295,33.549v1.094c0,0.184,0.182,0.363,0.363,0.363l0,0c0.184,0,0.319-0.18,0.319-0.363v-1.094
									H21.295z"/>
								<path fill="#FFFFFF" d="M22.57,33.503c-0.046-0.136-0.138-0.317-0.228-0.409c-0.229-0.184-0.365-0.41-0.365-0.639
									c-0.092-0.638-0.228-1.776-0.228-1.776h-0.228l-0.184,1.731c-0.044,0.228-0.136,0.455-0.318,0.592
									c-0.181,0.136-0.272,0.273-0.318,0.455c-0.092,0.365,0.409,0.639,0.956,0.639S22.616,33.868,22.57,33.503z"/>
								<path fill="#11201C" d="M21.614,33.138L21.614,33.138L21.614,33.138L21.614,33.138L21.614,33.138
									c-0.411,0-0.685,0.184-0.503,0.411c0.411,0.501,0.73,0.228,0.958,0C22.343,33.321,22.023,33.138,21.614,33.138z"/>
								<path fill="#AFBFC2" d="M20.018,31.681c0,0-0.044-1.686,0.228-1.777c0.275-0.091,0.822,0.957,0.822,0.957L20.018,31.681z"/>
								<path fill="#AFBFC2" d="M23.117,31.681c0,0,0.046-1.686-0.228-1.777c-0.273-0.091-0.82,0.957-0.82,0.957L23.117,31.681z"/>
								<path fill="#FFD4BC" d="M22.343,30.86l0.317-0.455c0.048-0.046,0.092,0,0.092,0.045l0.046,0.638L22.343,30.86z"/>
								<path fill="#FFD4BC" d="M20.84,30.906l-0.365-0.41c-0.046-0.046-0.092,0-0.092,0.046l-0.046,0.638L20.84,30.906z"/>
								<ellipse fill="#11201C" cx="22.524" cy="32.273" rx="0.136" ry="0.182"/>
								<ellipse fill="#11201C" cx="20.702" cy="32.273" rx="0.138" ry="0.182"/>
							</g>
						</g>
						<g>
							<g>
								<path fill="#D07422" d="M21.387,37.74c-0.229-0.136-0.366-0.228-0.503-0.363c-0.136-0.136-0.273-0.273-0.363-0.455
									c-0.184-0.319-0.319-0.639-0.365-1.004c0.182,0.273,0.409,0.501,0.685,0.685c0.136,0.092,0.271,0.136,0.409,0.182
									s0.318,0.09,0.365,0.09L21.387,37.74z"/>
							</g>
							<path fill="#9C571A" d="M21.431,35.417l1.14,0.82v1.73h-1.003c-0.5,0-0.819-0.09-0.819-0.455
								C20.748,37.012,21.111,35.69,21.431,35.417z"/>
							<path fill="#D48B4D" d="M22.433,37.968L22.433,37.968v-1.503c0-0.182-0.136-0.273-0.319-0.273
								c-0.18,0-0.317,0.136-0.317,0.319v1.186c0,0.136,0,0.228,0,0.271h-0.547v-2.824h0.729c0.547,0,1.002,0.457,1.002,1.004v1.82
								H22.433z"/>
							<path fill="#FFE2D1" d="M22.48,37.968c-0.048,0-0.092-0.044-0.048-0.09c0.048-0.138,0.184-0.228,0.319-0.228
								c0.138,0,0.273,0.09,0.319,0.228c0,0.046,0,0.09-0.046,0.09H22.48z"/>
							<path fill="#FFE2D1" d="M21.249,37.968c-0.046,0-0.046,0-0.046-0.044c0.046-0.138,0.184-0.273,0.319-0.273
								c0.182,0,0.273,0.136,0.319,0.273c0,0.044,0,0.044-0.046,0.044H21.249z"/>
							<g>
								<path fill="#D48B4D" d="M20.564,33.595c0,0-0.499-0.046-0.818-0.501c-0.228-0.319-0.275-0.775-0.184-1.322l0.046-0.182
									l0.182-0.046c0,0,0.138-0.045,0.319-0.045c0.774,0,1.186,0.409,1.186,1.139v0.091l-0.639,0.82L20.564,33.595z"/>
								<path fill="#FFD4BC" d="M20.564,33.321c0,0-1.046-0.092-0.729-1.458c0,0,1.231-0.273,1.231,0.865L20.564,33.321z"/>
								<path fill="#D48B4D" d="M23.664,33.595c0,0,0.501-0.046,0.82-0.501c0.228-0.319,0.273-0.775,0.182-1.322L24.62,31.59
									l-0.182-0.046c0,0-0.182-0.045-0.365-0.045c-0.774,0-1.229,0.409-1.229,1.139v0.091l0.683,0.82L23.664,33.595z"/>
								<path fill="#FFD4BC" d="M23.664,33.321c0,0,1.048-0.092,0.729-1.458c0,0-1.229-0.273-1.229,0.865L23.664,33.321z"/>
								<path fill="#D48B4D" d="M20.245,33.732c0,0.864,0.866,2.096,1.868,2.096c1.004,0,1.778-1.277,1.778-2.096v-0.138
									c0-0.866-0.774-1.367-1.822-1.367l0,0c-1.002,0-1.824,0.501-1.824,1.367V33.732z"/>
								<path fill="#FFE2D1" d="M20.702,34.962c0.365,0.501,0.865,0.866,1.459,0.866c0.591,0,1.094-0.411,1.411-0.958l-0.501-0.41
									c-0.547-0.41-1.275-0.41-1.776,0L20.702,34.962z"/>
								<ellipse fill="#5A2A00" cx="22.936" cy="33.868" rx="0.182" ry="0.273"/>
								<ellipse fill="#5A2A00" cx="21.387" cy="33.868" rx="0.181" ry="0.273"/>
								<path fill="#FFE2D1" d="M22.161,34.962L22.161,34.962c-0.138,0-0.228-0.092-0.228-0.228v-1.597
									c0-0.136,0.09-0.228,0.228-0.228l0,0c0.136,0,0.228,0.092,0.228,0.228v1.597C22.343,34.87,22.251,34.962,22.161,34.962z"/>
								<path fill="#11201C" d="M22.161,34.597L22.161,34.597L22.161,34.597L22.161,34.597L22.161,34.597
									c0.271,0,0.499,0.092,0.363,0.319c-0.182,0.409-0.547,0.409-0.683,0C21.75,34.688,21.934,34.597,22.161,34.597z"/>
							</g>
							<path fill="#F3A5AE" d="M21.978,35.417v0.319c0,0.136,0.136,0.273,0.273,0.273l0,0c0.138,0,0.229-0.138,0.229-0.273v-0.273
								h-0.503V35.417z"/>
						</g>
					</g>
					<g display="inline">
						<g opacity="0.3">
							<rect x="17.922" y="41.568" fill="#DBDCDD" width="0.866" height="0.455"/>
						</g>
						<g>
							<rect x="20.337" y="41.568" opacity="0.3" fill="#DBDCDD" enable-background="new    " width="0.866" height="0.455"/>
						</g>
						<g opacity="0.3">
							<rect x="22.616" y="41.568" fill="#DBDCDD" width="0.866" height="0.455"/>
						</g>
						<g>
							<rect x="24.896" y="41.568" opacity="0.3" fill="#DBDCDD" enable-background="new    " width="0.864" height="0.455"/>
						</g>
					</g>
				</g>
				<g display="none">
					<rect x="27.309" y="26.532" display="inline" fill="#FFFFFF" width="9.433" height="16.084"/>
					<g display="inline">
						<rect x="27.49" y="29.493" fill="#EAD168" width="9.113" height="9.979"/>
						<g opacity="0.3">
							<circle fill="#DBDCDD" cx="28.768" cy="28.036" r="0.866"/>
							<rect x="30.089" y="27.808" fill="#C1C1C1" width="5.65" height="0.456"/>
							<rect x="27.947" y="40.02" fill="#DBDCDD" width="6.469" height="0.547"/>
							<rect x="35.374" y="40.02" fill="#DBDCDD" width="0.639" height="0.639"/>
						</g>
						<g display="none">
							<path display="inline" fill="#575656" d="M32.686,36.191c0,0,1.73,0,1.73,0.866s0,1.732,0,1.732S32.686,36.646,32.686,36.191
								z"/>
							<g display="inline">
								<path fill="#575656" d="M31.911,34.734c-1.231-0.092-1.002,1.048-1.002,1.048v2.277h1.595c0.82,0,0.957-0.273,0.957-0.818
									C33.414,36.465,33.143,34.778,31.911,34.734z"/>
								<path fill="#838F92" d="M31.183,38.06C31.183,38.06,31.183,38.016,31.183,38.06v-2.277c0-0.273,0.228-0.457,0.455-0.457
									c0.273,0,0.455,0.228,0.455,0.457v1.822c0,0.182,0,0.319,0,0.455h0.866v-3.281c0-0.591-0.592-1.275-1.186-1.275h0.092
									c-0.866,0-1.549,0.593-1.549,1.459v3.054h0.866V38.06z"/>
								<path fill="#AFBFC2" d="M31.091,38.06c0.092,0,0.136-0.092,0.092-0.136c-0.046-0.228-0.273-0.365-0.503-0.365
									c-0.228,0-0.455,0.138-0.499,0.365c0,0.092,0.044,0.136,0.09,0.136H31.091z"/>
								<path fill="#AFBFC2" d="M33.051,38.06c0.044,0,0.092-0.044,0.092-0.092c-0.048-0.228-0.275-0.409-0.503-0.409
									s-0.455,0.182-0.501,0.409c0,0.048,0.046,0.092,0.092,0.092H33.051z"/>
								<path fill="#AFBFC2" d="M33.552,32.318c0,0.911-0.912,2.278-1.959,2.278c-1.049,0-1.823-1.367-1.823-2.278v-0.137
									c0-0.911,0.82-1.458,1.914-1.458l0,0c1.048,0,1.914,0.547,1.914,1.458v0.137H33.552z"/>
								<path fill="#F3A5AE" d="M31.318,33.549v1.094c0,0.184,0.184,0.363,0.365,0.363l0,0c0.182,0,0.317-0.18,0.317-0.363v-1.094
									H31.318z"/>
								<path fill="#FFFFFF" d="M32.596,33.503c-0.048-0.136-0.138-0.317-0.229-0.409c-0.183-0.184-0.318-0.365-0.318-0.639
									c-0.092-0.638-0.228-1.776-0.228-1.776h-0.229L31.41,32.41c-0.046,0.228-0.136,0.455-0.319,0.592
									c-0.182,0.136-0.273,0.273-0.319,0.455c-0.092,0.365,0.411,0.639,0.958,0.639S32.64,33.868,32.596,33.503z"/>
								<path fill="#11201C" d="M31.638,33.138L31.638,33.138L31.638,33.138L31.638,33.138L31.638,33.138
									c-0.411,0-0.683,0.184-0.501,0.411c0.409,0.501,0.729,0.228,0.956,0C32.367,33.321,32.049,33.138,31.638,33.138z"/>
								<path fill="#AFBFC2" d="M30.043,31.681c0,0-0.046-1.686,0.228-1.777c0.273-0.091,0.82,0.957,0.82,0.957L30.043,31.681z"/>
								<path fill="#AFBFC2" d="M33.143,31.681c0,0,0.044-1.686-0.229-1.777c-0.274-0.091-0.821,0.957-0.821,0.957L33.143,31.681z"
									/>
								<path fill="#FFD4BC" d="M32.367,30.86l0.318-0.455c0.046-0.046,0.092,0,0.092,0.045l0.046,0.638L32.367,30.86z"/>
								<path fill="#FFD4BC" d="M30.863,30.906l-0.364-0.41c-0.047-0.046-0.091,0-0.091,0.046l-0.046,0.638L30.863,30.906z"/>
								<ellipse fill="#11201C" cx="32.548" cy="32.273" rx="0.138" ry="0.182"/>
								<ellipse fill="#11201C" cx="30.728" cy="32.273" rx="0.136" ry="0.182"/>
							</g>
						</g>
						<g>
							<g>
								<path fill="#D07422" d="M33.232,37.193c0.092,0,0.182-0.044,0.273-0.09s0.183-0.092,0.273-0.138
									c0.182-0.136,0.319-0.271,0.409-0.455c-0.044,0.228-0.136,0.455-0.271,0.639c-0.046,0.092-0.138,0.182-0.229,0.271
									c-0.091,0.092-0.183,0.138-0.318,0.229L33.232,37.193z"/>
							</g>
							<path fill="#754114" d="M32.412,35.235c-1.138-0.092-0.91,0.956-0.91,0.956v2.052h1.412c0.728,0,0.865-0.228,0.865-0.73
								C33.825,36.83,33.552,35.281,32.412,35.235z"/>
							<path fill="#9C571A" d="M31.729,38.197C31.729,38.197,31.729,38.151,31.729,38.197v-1.914c0-0.228,0.182-0.411,0.409-0.411
								c0.229,0,0.409,0.184,0.409,0.411v1.503c0,0.182,0,0.273,0,0.411h0.776v-2.597c0-0.547-0.547-1.141-1.094-1.141h0.09
								c-0.774,0-1.411,0.638-1.411,1.412v2.323h0.82V38.197z"/>
							<path fill="#D48B4D" d="M31.638,38.243c0.046,0,0.136-0.046,0.092-0.138c-0.046-0.182-0.228-0.319-0.455-0.319
								c-0.229,0-0.411,0.138-0.457,0.319c0,0.046,0.046,0.138,0.092,0.138H31.638z"/>
							<path fill="#D48B4D" d="M33.506,38.243c0.046,0,0.092-0.046,0.092-0.092c-0.046-0.228-0.228-0.365-0.455-0.365
								c-0.229,0-0.411,0.182-0.457,0.365c0,0.046,0.046,0.092,0.092,0.092H33.506z"/>
							<path fill="#D48B4D" d="M30.452,33.913c0-0.728,0.822-1.868,1.778-1.868s1.687,1.141,1.687,1.868v0.137
								c0,0.729-0.774,1.231-1.732,1.231l0,0c-0.958,0-1.732-0.455-1.732-1.231V33.913z"/>
							<path fill="#FFE2D1" d="M30.499,34.096c0.045,0.73,0.638,1.14,1.686,1.14c0.91,0,1.732-0.409,1.732-1.14h-0.593
								c-0.319,0-0.639-0.228-0.685-0.547l-0.363-1.504l-0.503,1.55c-0.09,0.273-0.363,0.501-0.683,0.501H30.499z"/>
							<ellipse fill="#FFFFFF" cx="32.185" cy="34.552" rx="0.91" ry="0.684"/>
							<path fill="#11201C" d="M32.185,34.142L32.185,34.142C32.185,34.142,32.139,34.142,32.185,34.142c-0.046,0,0,0-0.046,0l0,0
								c-0.317,0-0.501,0.138-0.365,0.318c0.319,0.41,0.594,0.183,0.774,0C32.731,34.323,32.504,34.142,32.185,34.142z"/>
							<path fill="#9C571A" d="M31.593,32.273c0,0-0.183-0.229-0.729,0c-0.547,0.228-0.639,0.82-0.683,1.275
								c-0.092,0.639-0.685,1.505,0.363,1.321C31.546,34.643,30.181,32.729,31.593,32.273z"/>
							<path fill="#9C571A" d="M32.959,32.273c0,0,0.184-0.229,0.729,0.045c0.547,0.273,0.547,0.867,0.592,1.322
								c0,0.639,0.502,1.549-0.455,1.275C32.823,34.643,34.326,33.048,32.959,32.273z"/>
							<path fill="#F3A5AE" d="M31.911,34.962v0.363c0,0.184,0.138,0.319,0.319,0.319l0,0c0.182,0,0.317-0.136,0.317-0.319v-0.363
								H31.911z"/>
							<ellipse fill="#5A2A00" cx="32.823" cy="33.503" rx="0.136" ry="0.182"/>
							<ellipse fill="#5A2A00" cx="31.456" cy="33.503" rx="0.137" ry="0.182"/>
						</g>
					</g>
					<g display="inline" opacity="0.3">
						<g>
							<rect x="27.947" y="41.568" fill="#DBDCDD" width="0.864" height="0.455"/>
						</g>
						<g>
							<rect x="30.362" y="41.568" fill="#DBDCDD" width="0.864" height="0.455"/>
						</g>
						<g>
							<rect x="32.64" y="41.568" fill="#DBDCDD" width="0.866" height="0.455"/>
						</g>
						<g>
							<rect x="34.919" y="41.568" fill="#DBDCDD" width="0.866" height="0.455"/>
						</g>
					</g>
				</g>
			</g>
		</g>
	</g>
	<rect x="1.245" y="17.874" fill="none" width="41.01" height="25.062"/>
	<g display="none">
		<path display="inline" fill="#52E892" d="M1.199,39.792c0.046-0.092,41.056,0,41.056,0v4.511H1.245L1.199,39.792z"/>
		<path display="inline" fill="#F3A5AE" d="M10.176,37.012c-0.41-0.228-0.729,0.138-0.729,0.457c0-0.319-0.364-0.685-0.729-0.457
			c-0.547,0.319,0,1.231,0.729,1.503C10.176,38.197,10.678,37.285,10.176,37.012z"/>
		<path display="inline" fill="#F3A5AE" d="M36.514,30.679c-0.365-0.183-0.638,0.137-0.638,0.409c0-0.272-0.319-0.592-0.638-0.409
			c-0.456,0.273,0,1.093,0.638,1.321C36.514,31.771,36.969,30.952,36.514,30.679z"/>
		<path display="inline" fill="#F3A5AE" d="M34.782,22.887c-0.41-0.229-0.729,0.137-0.729,0.455c0-0.318-0.364-0.684-0.729-0.455
			c-0.547,0.318,0,1.23,0.729,1.503C34.782,24.071,35.282,23.16,34.782,22.887z"/>
		<g display="inline">
			<g>
				<path fill="#FFD4BC" d="M20.018,26.577c0,0-0.455-0.638-0.683-0.318c-0.228,0.318,0.184,1.321,0.683,1.139V26.577z"/>
				<path fill="#FFD4BC" d="M25.532,26.577c0,0,0.455-0.638,0.685-0.318c0.228,0.318-0.184,1.321-0.685,1.139V26.577z"/>
				<g>
					<path fill="#754114" d="M22.979,39.746v0.273c0,0.092,0.092,0.182,0.184,0.182h1.094c0.136,0,0.182-0.136,0.136-0.273
						c-0.092-0.136-1.229-0.363-1.229-0.363C23.071,39.564,22.979,39.608,22.979,39.746z"/>
					<path fill="#754114" d="M22.48,39.746v0.273c0,0.092-0.092,0.182-0.184,0.182h-1.094c-0.136,0-0.183-0.136-0.136-0.273
						c0.09-0.136,1.229-0.363,1.229-0.363C22.433,39.564,22.48,39.608,22.48,39.746z"/>
					<path fill="#EA9300" d="M21.111,34.507h3.327l-0.593,5.149h-0.866c0,0,0.092-4.104-0.228-4.147
						c-0.319,0-0.228,4.147-0.228,4.147h-1.048L21.111,34.507z"/>
					<path fill="#62C5CF" d="M17.968,31.453c1.459-0.456,2.962-2.051,4.102-2.051c0.729,0,1.275,0,1.275,0s0.547-0.091,1.094,0.41
						c0.365,0.319,0.685,1.367,1.275,2.324c0.73,1.185,1.277,1.366,1.914,1.731c0.228,0.501-0.409,0.411-0.455,0.501
						c-2.05-1.595-2.962-3.235-2.962-3.235s0.501,2.369,0.409,4.056c0,0-0.956,0.046-1.822,0.046c-0.912,0-1.822-0.138-1.822-0.138
						c-0.092-1.641,0.136-4.055,0.136-4.055l-3.509,1.458C17.239,32.273,17.968,31.453,17.968,31.453z"/>
					<path fill="#FFD4BC" d="M22.069,29.448c0,0.364,0.319,0.638,0.683,0.638l0,0c0.411,0,0.73-0.273,0.73-0.638v-0.866
						c0-0.364-0.319-0.774-0.73-0.774l0,0c-0.409,0-0.683,0.41-0.683,0.774V29.448z"/>
					<path fill="#FFD4BC" d="M25.85,24.254v3.326c0,0.865-0.727,1.595-1.685,1.595h-2.734c-0.91,0-1.685-0.729-1.685-1.595v-3.281
						L25.85,24.254z"/>
					<path fill="#FFC0AD" d="M22.89,28.992c1.002,0,1.958,0,2.87-0.865c-0.228,0.592-0.864,1.048-1.549,1.048h-2.734
						c-0.729,0-1.367-0.456-1.595-1.14C20.748,28.992,21.842,28.992,22.89,28.992z"/>
					<ellipse fill="#5A2A00" cx="24.301" cy="26.395" rx="0.275" ry="0.456"/>
					<ellipse fill="#5A2A00" cx="21.339" cy="26.395" rx="0.275" ry="0.456"/>
					<path opacity="0.8" fill="#191919" enable-background="new    " d="M22.844,27.124c0.182,0,0.363-0.046,0.501-0.091
						c0,0.045,0.046,0.091,0.046,0.091c0,0.183-0.228,0.364-0.501,0.364s-0.501-0.137-0.501-0.364c0-0.046,0-0.091,0.044-0.091
						C22.48,27.124,22.66,27.124,22.844,27.124z"/>
					<ellipse fill="#FFC0AD" cx="24.301" cy="27.352" rx="0.365" ry="0.365"/>
					<ellipse fill="#FFC0AD" cx="21.339" cy="27.352" rx="0.365" ry="0.365"/>
					<g>
						<g>
							<path id="XMLID_1_" fill="#B83336" d="M23.435,27.808c0,0.364-0.317,0.684-0.683,0.684c-0.363,0-0.683-0.273-0.683-0.684"/>
						</g>
						<g>
							<defs>
								<path id="SVGID_7_" d="M23.435,27.808c0,0.364-0.317,0.684-0.683,0.684c-0.363,0-0.683-0.273-0.683-0.684"/>
							</defs>
							<clipPath id="SVGID_8_">
								<use xlink:href="#SVGID_7_"  overflow="visible"/>
							</clipPath>
							<ellipse clip-path="url(#SVGID_8_)" fill="#FC6B79" cx="22.936" cy="28.673" rx="0.638" ry="0.638"/>
						</g>
					</g>
				</g>
				<path fill="#754114" d="M25.85,27.033h-0.228v-1.96c0-0.455-0.409-0.774-0.864-0.684l-1.641,0.365
					c-0.228,0.046-0.501,0.091-0.729,0l-1.687-0.365c-0.319-0.091-0.593,0.183-0.593,0.502v2.096H19.79c0,0-0.956-2.643,0.046-3.782
					c1.004-1.093,3.509-2.142,4.968-0.318c0,0,0.547-0.183,1.046,0.41C26.444,23.935,26.217,25.529,25.85,27.033z"/>
			</g>
			<g>
				<g>
					<path fill="#575656" d="M17.878,35.828l-0.047,0.044l-0.045,0.046l0,0v0.046c0,0.046,0,0.046,0,0.092c0,0.044,0,0.092,0,0.136
						c0,0.092,0.045,0.136,0.092,0.228c0.09,0.138,0.182,0.228,0.319,0.319c0.228,0.184,0.545,0.228,0.818,0.184
						c0.273-0.092,0.593-0.275,0.774-0.547c0.138-0.138,0.184-0.319,0.319-0.503c0.092-0.182,0.136-0.363,0.228-0.547
						c0.184,0.092,0.365,0.184,0.593,0.275c0.182,0.09,0.365,0.228,0.547,0.363c0.365,0.319,0.685,0.73,0.956,1.229
						c0.228,0.547,0.365,1.186,0.319,1.916c0,0.363-0.092,0.727-0.182,1.092c-0.046,0.182-0.138,0.365-0.228,0.547
						c-0.046,0.092-0.092,0.182-0.138,0.273c-0.044,0.046-0.044,0.092-0.092,0.184l-0.044,0.09l0,0l-0.046,0.046l-0.09,0.092
						L17.878,35.828z"/>
				</g>
				<path fill="#575656" d="M18.241,35.325c-1.822-0.136-1.457,1.549-1.457,1.549v3.281h2.323c1.186,0,1.413-0.363,1.413-1.184
					C20.521,37.878,20.065,35.417,18.241,35.325z"/>
				<path fill="#838F92" d="M17.193,40.201v-0.046V36.83c0-0.365,0.319-0.639,0.685-0.639c0.363,0,0.683,0.319,0.683,0.683v2.69
					c0,0.271,0,0.455,0,0.637h1.275v-4.784c0-0.91-0.864-1.822-1.73-1.822h0.136c-1.229,0-2.279,0.865-2.279,2.142v4.465H17.193z"/>
				<path fill="#AFBFC2" d="M17.056,40.201c0.092,0,0.184-0.09,0.138-0.182c-0.091-0.319-0.409-0.547-0.729-0.547
					c-0.365,0-0.639,0.228-0.73,0.547c0,0.092,0.047,0.182,0.184,0.182H17.056z"/>
				<path fill="#AFBFC2" d="M19.928,40.201c0.09,0,0.138-0.09,0.138-0.136c-0.092-0.365-0.366-0.593-0.73-0.593
					c-0.363,0-0.683,0.273-0.729,0.593c0,0.09,0.047,0.136,0.137,0.136H19.928z"/>
				<path fill="#AFBFC2" d="M20.656,31.817c0,1.32-1.321,3.326-2.87,3.326s-2.688-2.006-2.688-3.326V31.59
					c0-1.321,1.229-2.142,2.78-2.142l0,0c1.549,0,2.778,0.82,2.778,2.142V31.817z"/>
				<path fill="#F3A5AE" d="M17.421,33.641v1.595c0,0.273,0.229,0.547,0.501,0.501l0,0c0.275,0,0.503-0.228,0.503-0.547v-1.549
					H17.421z"/>
				<path fill="#FFFFFF" d="M19.243,33.503c-0.044-0.228-0.182-0.455-0.363-0.593c-0.274-0.227-0.455-0.546-0.503-0.91
					c-0.09-0.957-0.317-2.598-0.317-2.598l-0.319,0.046L17.467,32c-0.046,0.318-0.228,0.638-0.501,0.865
					c-0.229,0.183-0.41,0.41-0.501,0.684c-0.092,0.547,0.591,0.958,1.366,0.958C18.605,34.507,19.335,34.05,19.243,33.503z"/>
				<path fill="#11201C" d="M17.878,32.958L17.878,32.958C17.878,32.958,17.831,32.958,17.878,32.958
					C17.831,32.958,17.878,32.958,17.878,32.958L17.878,32.958c-0.639,0-1.004,0.228-0.73,0.637c0.593,0.729,1.05,0.365,1.413,0
					S18.515,33.002,17.878,32.958z"/>
				<path fill="#AFBFC2" d="M15.553,30.86c0,0-0.091-2.46,0.319-2.597c0.409-0.137,1.23,1.412,1.23,1.412L15.553,30.86z"/>
				<path fill="#AFBFC2" d="M20.065,30.86c0,0,0.09-2.46-0.319-2.597c-0.411-0.137-1.231,1.412-1.231,1.412L20.065,30.86z"/>
				<path fill="#FFD4BC" d="M18.924,29.63l0.503-0.684c0.044-0.045,0.136-0.045,0.136,0.046l0.092,0.957L18.924,29.63z"/>
				<path fill="#FFD4BC" d="M16.736,29.722l-0.545-0.638c-0.046-0.046-0.138-0.046-0.138,0.045l-0.044,0.957L16.736,29.722z"/>
				<ellipse fill="#11201C" cx="19.152" cy="31.727" rx="0.183" ry="0.273"/>
				<ellipse fill="#11201C" cx="16.556" cy="31.727" rx="0.181" ry="0.273"/>
			</g>
			<g>
				<g>
					<path fill="#D07422" d="M27.49,34.778c-0.136,0.048-0.136,0.092-0.136,0.138c-0.046,0.046-0.046,0.046-0.046,0.09
						c0,0.048-0.046,0.092-0.046,0.184s0,0.184,0,0.319c0.046,0.182,0.092,0.363,0.138,0.547c0.138,0.319,0.365,0.639,0.637,0.866
						c0.547,0.499,1.277,0.729,2.096,0.637c0.547,0.547,0.958,1.413,1.004,2.369c0.046,0.503,0,1.002-0.138,1.505
						c-0.044,0.271-0.136,0.547-0.271,0.774c-0.048,0.136-0.138,0.273-0.229,0.409c-0.047,0.046-0.091,0.138-0.137,0.229
						c-0.046,0.044-0.046,0.09-0.092,0.09c-0.046,0.046-0.046,0.09-0.228,0.138L27.49,34.778z"/>
				</g>
				<path fill="#754114" d="M27.4,35.553c-1.73-0.09-1.367,1.505-1.367,1.505v3.144h2.188c1.138,0,1.321-0.365,1.321-1.14
					C29.542,38.016,29.131,35.69,27.4,35.553z"/>
				<path fill="#9C571A" d="M26.307,40.111C26.307,40.111,26.307,40.065,26.307,40.111v-2.962c0-0.365,0.319-0.639,0.637-0.639
					c0.365,0,0.639,0.273,0.639,0.639v2.323c0,0.228,0,0.455,0,0.593h1.186V36.1c0-0.864-0.82-1.73-1.641-1.73h0.136
					c-1.184,0-2.14,0.956-2.14,2.142v3.555h1.184V40.111z"/>
				<path fill="#D48B4D" d="M26.217,40.201c0.09,0,0.18-0.09,0.136-0.182c-0.092-0.319-0.365-0.501-0.683-0.501
					c-0.319,0-0.595,0.228-0.685,0.501c-0.046,0.092,0.046,0.182,0.138,0.182H26.217z"/>
				<path fill="#D48B4D" d="M29.041,40.201c0.09,0,0.137-0.046,0.09-0.136c-0.09-0.319-0.363-0.593-0.729-0.593
					s-0.637,0.228-0.729,0.593c0,0.09,0.044,0.136,0.092,0.136H29.041z"/>
				<path fill="#D48B4D" d="M24.349,33.503c0-1.139,1.273-2.87,2.732-2.87s2.553,1.731,2.553,2.87v0.182
					c0,1.142-1.186,1.868-2.643,1.868l0,0c-1.459,0-2.643-0.727-2.643-1.868V33.503L24.349,33.503z"/>
				<path fill="#FFE2D1" d="M24.438,33.822c0.09,1.094,1.002,1.778,2.597,1.73c1.413,0,2.643-0.683,2.688-1.73h-0.912
					c-0.499,0-0.956-0.365-1.094-0.82l-0.591-2.323l-0.82,2.415c-0.09,0.409-0.547,0.729-1.004,0.729H24.438z"/>
				<ellipse fill="#FFFFFF" cx="27.035" cy="34.551" rx="1.413" ry="1.002"/>
				<path fill="#11201C" d="M26.991,33.913L26.991,33.913C26.991,33.913,26.943,33.913,26.991,33.913c-0.048,0,0,0-0.092,0l0,0
					c-0.503,0-0.774,0.183-0.547,0.547c0.455,0.594,0.91,0.318,1.186,0C27.855,34.142,27.49,33.913,26.991,33.913z"/>
				<path fill="#9C571A" d="M26.079,31.043c0,0-0.273-0.364-1.14,0s-0.958,1.275-1.048,1.959c-0.138,1.002-1.002,2.323,0.547,2.004
					C26.033,34.688,23.938,31.727,26.079,31.043z"/>
				<path fill="#9C571A" d="M28.221,31.043c0,0,0.319-0.364,1.138,0.091c0.822,0.456,0.866,1.367,0.866,2.052
					c0.046,1.002,0.821,2.415-0.729,1.958C27.993,34.688,30.362,32.182,28.221,31.043z"/>
				<path fill="#F3A5AE" d="M26.58,35.144v0.547c0,0.273,0.228,0.457,0.501,0.457l0,0c0.273,0,0.457-0.229,0.457-0.503v-0.547H26.58
					V35.144z"/>
				<ellipse fill="#5A2A00" cx="28.037" cy="32.912" rx="0.184" ry="0.274"/>
				<ellipse fill="#5A2A00" cx="25.941" cy="32.957" rx="0.184" ry="0.273"/>
			</g>
			<path fill="#F3A5AE" d="M11.999,23.98c-0.593-0.319-1.094,0.228-1.094,0.683c0-0.455-0.501-1.002-1.094-0.683
				c-0.774,0.455,0,1.822,1.094,2.232C12.044,25.757,12.819,24.436,11.999,23.98z"/>
			<path fill="#F3A5AE" d="M28.722,27.033c-0.457-0.229-0.82,0.137-0.82,0.501c0-0.364-0.363-0.774-0.82-0.501
				c-0.593,0.318,0,1.367,0.82,1.686C28.768,28.4,29.314,27.397,28.722,27.033z"/>
			<path fill="#F3A5AE" d="M27.81,22.932c-0.228-0.137-0.409,0.092-0.409,0.273c0-0.182-0.182-0.41-0.409-0.273
				c-0.319,0.183,0,0.729,0.409,0.866C27.81,23.661,28.129,23.114,27.81,22.932z"/>
			<path fill="#F3A5AE" d="M18.014,25.803c-0.228-0.137-0.411,0.091-0.411,0.228c0-0.182-0.182-0.364-0.409-0.228
				c-0.273,0.183,0,0.684,0.409,0.82C18.014,26.44,18.287,25.939,18.014,25.803z"/>
		</g>
	</g>
	<rect x="1.108" y="18.558" fill="#FFFFFF" width="41.557" height="2.506"/>
	<g>
		<path fill="#404041" d="M43.349,44.257V18.604c0-0.911-0.729-1.641-1.641-1.641H2.248c-0.912,0-1.641,0.729-1.641,1.641v25.653
			c0,0.457,0.182,0.82,0.455,1.14h41.83C43.166,45.123,43.349,44.714,43.349,44.257z M41.845,43.572H1.883V18.604h39.916v24.969
			H41.845z"/>
		<polygon fill="#D0D2D3" points="42.893,45.396 1.062,45.396 -4.132,45.396 -4.132,46.354 48.132,46.354 48.132,45.396 		"/>
		<circle fill="#929497" cx="22.023" cy="17.875" r="0.228"/>
		<path fill="#BBBDBF" d="M21.978,45.396h-0.092h-3.645c0,0,0.092,0.639,0.683,0.639c0.503,0,2.415,0,2.918,0
			c0.092,0,0.136,0,0.136,0c0.503,0,2.415,0,2.918,0c0.591,0,0.683-0.639,0.683-0.639H21.978z"/>
		<path fill="#E6E7E8" d="M-4.132,46.354c0,0,0.319,0.684,3.008,0.684s23.01,0,23.01,0h0.228c0,0,20.278,0,23.013,0
			c2.687,0,3.006-0.684,3.006-0.684"/>
	</g>
	<g>
		<path opacity="0.2" fill="#0074FF" enable-background="new    " d="M36.24,20.152L36.24,20.152c-0.273,0-0.455-0.182-0.455-0.455
			l0,0c0-0.273,0.182-0.456,0.455-0.456l0,0c0.273,0,0.455,0.183,0.455,0.456l0,0C36.695,19.971,36.514,20.152,36.24,20.152z"/>
		<path opacity="0.2" fill="#0074FF" enable-background="new    " d="M34.873,20.152L34.873,20.152
			c-0.273,0-0.457-0.182-0.457-0.455l0,0c0-0.273,0.184-0.456,0.457-0.456l0,0c0.273,0,0.456,0.183,0.456,0.456l0,0
			C35.329,19.971,35.146,20.152,34.873,20.152z"/>
		<rect x="7.078" y="19.241" opacity="0.2" fill="#0074FF" enable-background="new    " width="3.645" height="0.911"/>
		<path opacity="0.2" fill="#0074FF" enable-background="new    " d="M33.506,20.152L33.506,20.152
			c-0.273,0-0.455-0.182-0.455-0.455l0,0c0-0.273,0.182-0.456,0.455-0.456l0,0c0.273,0,0.455,0.183,0.455,0.456l0,0
			C33.961,19.971,33.779,20.152,33.506,20.152z"/>
		<path opacity="0.2" fill="#0074FF" enable-background="new    " d="M31.227,20.152L31.227,20.152
			c-0.271,0-0.455-0.182-0.455-0.455l0,0c0-0.273,0.184-0.456,0.455-0.456l0,0c0.275,0,0.457,0.183,0.457,0.456l0,0
			C31.684,19.971,31.502,20.152,31.227,20.152z"/>
		<path opacity="0.2" fill="#0074FF" enable-background="new    " d="M29.861,20.152L29.861,20.152
			c-0.273,0-0.455-0.182-0.455-0.455l0,0c0-0.273,0.182-0.456,0.455-0.456l0,0c0.271,0,0.455,0.183,0.455,0.456l0,0
			C30.316,19.971,30.133,20.152,29.861,20.152z"/>
	</g>
</g>
<g>
	<circle fill="#0074FF" cx="43.349" cy="30.404" r="5.461"/>
	<g>
		<g>
			<path fill="#D07422" d="M44.95,33.497c0.138,0,0.273-0.066,0.412-0.136c0.138-0.068,0.276-0.139,0.412-0.207
				c0.274-0.205,0.482-0.41,0.618-0.688c-0.067,0.344-0.205,0.688-0.41,0.964c-0.069,0.138-0.208,0.274-0.344,0.41
				c-0.139,0.139-0.276,0.208-0.481,0.345L44.95,33.497z"/>
		</g>
		<path fill="#754114" d="M43.711,30.542c-1.718-0.138-1.374,1.442-1.374,1.442v3.097h2.133c1.098,0,1.305-0.344,1.305-1.102
			C45.844,32.949,45.431,30.611,43.711,30.542z"/>
		<path fill="#9C571A" d="M42.681,35.012C42.681,35.012,42.681,34.943,42.681,35.012v-2.889c0-0.344,0.275-0.62,0.618-0.62
			c0.346,0,0.617,0.276,0.617,0.62v2.27c0,0.273,0,0.412,0,0.619h1.172v-3.918c0-0.826-0.825-1.723-1.65-1.723h0.136
			c-1.169,0-2.13,0.963-2.13,2.132v3.507h1.237V35.012z"/>
		<path fill="#D48B4D" d="M42.542,35.081c0.069,0,0.206-0.069,0.139-0.208c-0.069-0.273-0.344-0.48-0.688-0.48
			c-0.343,0-0.619,0.207-0.689,0.48c0,0.07,0.07,0.208,0.14,0.208H42.542z"/>
		<path fill="#D48B4D" d="M45.362,35.081c0.068,0,0.138-0.069,0.138-0.138c-0.069-0.344-0.343-0.551-0.687-0.551
			s-0.62,0.273-0.689,0.551c0,0.068,0.069,0.138,0.139,0.138H45.362z"/>
		<path fill="#D48B4D" d="M40.754,28.546c0-1.099,1.239-2.819,2.684-2.819c1.443,0,2.545,1.721,2.545,2.819v0.207
			c0,1.1-1.169,1.858-2.614,1.858l0,0c-1.446,0-2.614-0.688-2.614-1.858V28.546z"/>
		<path fill="#FFE2D1" d="M40.825,28.822c0.067,1.102,0.961,1.72,2.543,1.72c1.374,0,2.614-0.618,2.614-1.72h-0.895
			c-0.482,0-0.964-0.344-1.033-0.825l-0.549-2.271l-0.758,2.34c-0.137,0.412-0.549,0.756-1.031,0.756H40.825z"/>
		<ellipse fill="#FFFFFF" cx="43.368" cy="29.51" rx="1.374" ry="1.032"/>
		<path fill="#11201C" d="M43.368,28.892L43.368,28.892C43.368,28.892,43.299,28.892,43.368,28.892c-0.069,0,0,0-0.069,0l0,0
			c-0.479,0-0.757,0.206-0.551,0.479c0.481,0.619,0.896,0.276,1.168,0C44.193,29.166,43.849,28.892,43.368,28.892z"/>
		<path fill="#9C571A" d="M42.475,26.072c0,0-0.275-0.346-1.101,0c-0.826,0.344-0.964,1.237-1.031,1.925
			c-0.138,0.963-1.032,2.271,0.55,1.993C42.404,29.647,40.343,26.759,42.475,26.072z"/>
		<path fill="#9C571A" d="M44.536,26.072c0,0,0.277-0.346,1.103,0.068c0.825,0.412,0.825,1.307,0.892,1.994
			c0,0.963,0.759,2.338-0.687,1.926C44.331,29.647,46.6,27.241,44.536,26.072z"/>
		<path fill="#F3A5AE" d="M42.956,30.129v0.549c0,0.276,0.206,0.482,0.481,0.482l0,0c0.273,0,0.479-0.206,0.479-0.482v-0.549H42.956
			z"/>
		<ellipse fill="#5A2A00" cx="44.331" cy="27.928" rx="0.205" ry="0.274"/>
		<ellipse fill="#5A2A00" cx="42.269" cy="27.928" rx="0.206" ry="0.274"/>
	</g>
</g>
<g>
	<circle fill="#0074FF" cx="17.552" cy="15.329" r="2.95"/>
	<g>
		<g>
			<path fill="#D07422" d="M17.043,17.432c-0.16-0.095-0.256-0.159-0.351-0.253c-0.095-0.096-0.191-0.192-0.254-0.319
				c-0.128-0.223-0.223-0.447-0.255-0.702c0.127,0.192,0.286,0.351,0.479,0.479c0.095,0.064,0.19,0.095,0.287,0.127
				c0.096,0.031,0.222,0.062,0.255,0.062L17.043,17.432z"/>
		</g>
		<path fill="#9C571A" d="M17.075,15.807l0.797,0.573v1.211H17.17c-0.35,0-0.573-0.063-0.573-0.318
			C16.597,16.922,16.852,15.998,17.075,15.807z"/>
		<path fill="#D48B4D" d="M17.776,17.591L17.776,17.591V16.54c0-0.127-0.095-0.19-0.224-0.19c-0.126,0-0.223,0.095-0.223,0.223
			v0.829c0,0.095,0,0.159,0,0.19h-0.382v-1.976h0.509c0.382,0,0.702,0.319,0.702,0.702v1.274H17.776z"/>
		<path fill="#FFE2D1" d="M17.809,17.591c-0.033,0-0.064-0.031-0.033-0.063c0.033-0.097,0.127-0.159,0.223-0.159
			s0.191,0.062,0.223,0.159c0,0.032,0,0.063-0.032,0.063H17.809z"/>
		<path fill="#FFE2D1" d="M16.948,17.591c-0.032,0-0.032,0-0.032-0.031c0.032-0.096,0.128-0.191,0.223-0.191
			c0.127,0,0.191,0.095,0.223,0.191c0,0.031,0,0.031-0.032,0.031H16.948z"/>
		<g>
			<path fill="#D48B4D" d="M16.469,14.532c0,0-0.349-0.032-0.573-0.35c-0.159-0.224-0.192-0.542-0.128-0.925L15.8,13.13l0.127-0.032
				c0,0,0.096-0.031,0.223-0.031c0.542,0,0.829,0.286,0.829,0.796v0.064L16.533,14.5L16.469,14.532z"/>
			<path fill="#FFD4BC" d="M16.469,14.341c0,0-0.732-0.064-0.51-1.02c0,0,0.861-0.191,0.861,0.605L16.469,14.341z"/>
			<path fill="#D48B4D" d="M18.637,14.532c0,0,0.35-0.032,0.574-0.35c0.16-0.224,0.191-0.542,0.126-0.925l-0.031-0.127l-0.128-0.032
				c0,0-0.127-0.031-0.255-0.031c-0.542,0-0.86,0.286-0.86,0.796v0.064l0.478,0.574L18.637,14.532z"/>
			<path fill="#FFD4BC" d="M18.637,14.341c0,0,0.734-0.064,0.51-1.02c0,0-0.86-0.191-0.86,0.605L18.637,14.341z"/>
			<path fill="#D48B4D" d="M16.246,14.628c0,0.605,0.606,1.466,1.307,1.466c0.702,0,1.244-0.893,1.244-1.466v-0.096
				c0-0.605-0.542-0.956-1.274-0.956l0,0c-0.701,0-1.276,0.351-1.276,0.956V14.628z"/>
			<path fill="#FFE2D1" d="M16.565,15.489c0.255,0.351,0.604,0.605,1.02,0.605c0.414,0,0.765-0.287,0.987-0.669l-0.351-0.288
				c-0.383-0.287-0.893-0.287-1.243,0L16.565,15.489z"/>
			<ellipse fill="#5A2A00" cx="18.127" cy="14.724" rx="0.127" ry="0.191"/>
			<ellipse fill="#5A2A00" cx="17.043" cy="14.724" rx="0.126" ry="0.191"/>
			<path fill="#FFE2D1" d="M17.585,15.489L17.585,15.489c-0.096,0-0.159-0.064-0.159-0.16v-1.116c0-0.095,0.063-0.159,0.159-0.159
				l0,0c0.095,0,0.159,0.064,0.159,0.159v1.116C17.712,15.425,17.649,15.489,17.585,15.489z"/>
			<path fill="#11201C" d="M17.585,15.233L17.585,15.233L17.585,15.233L17.585,15.233L17.585,15.233c0.19,0,0.349,0.064,0.254,0.224
				c-0.127,0.286-0.382,0.286-0.478,0C17.298,15.297,17.426,15.233,17.585,15.233z"/>
		</g>
		<path fill="#F3A5AE" d="M17.457,15.807v0.223c0,0.095,0.095,0.191,0.192,0.191l0,0c0.096,0,0.16-0.096,0.16-0.191v-0.191h-0.352
			V15.807z"/>
	</g>
</g>
<g>
	<circle fill="#0074FF" cx="7.078" cy="18.558" r="3.858"/>
	<g>
		<path fill="#919191" d="M7.508,19.9c0,0,1.257,0,1.257,0.628c0,0.629,0,1.258,0,1.258S7.508,20.23,7.508,19.9z"/>
		<g>
			<path fill="#919191" d="M6.946,18.841c-0.894-0.067-0.729,0.761-0.729,0.761v1.654h1.159c0.595,0,0.695-0.199,0.695-0.595
				C8.038,20.099,7.84,18.874,6.946,18.841z"/>
			<path fill="#CFD2D3" d="M6.416,21.256C6.416,21.256,6.416,21.224,6.416,21.256v-1.654c0-0.199,0.166-0.332,0.331-0.332
				c0.199,0,0.331,0.165,0.331,0.332v1.323c0,0.132,0,0.232,0,0.331h0.629v-2.383c0-0.429-0.431-0.926-0.861-0.926h0.066
				c-0.628,0-1.125,0.43-1.125,1.059v2.218h0.628V21.256z"/>
			<path fill="#AFBFC2" d="M6.35,21.256c0.066,0,0.099-0.066,0.066-0.099c-0.033-0.165-0.199-0.265-0.364-0.265
				c-0.166,0-0.331,0.1-0.364,0.265c0,0.067,0.033,0.099,0.066,0.099H6.35z"/>
			<path fill="#AFBFC2" d="M7.773,21.256c0.033,0,0.067-0.032,0.067-0.066c-0.034-0.165-0.199-0.297-0.365-0.297
				c-0.165,0-0.33,0.132-0.364,0.297c0,0.034,0.034,0.066,0.066,0.066H7.773z"/>
			<path fill="#E5E5E5" d="M8.17,17.095c0,0.662-0.695,1.646-1.456,1.646c-0.761,0-1.324-0.993-1.324-1.654v-0.099
				c0-0.662,0.596-1.06,1.39-1.06l0,0c0.761,0,1.39,0.397,1.39,1.06V17.095z"/>
			<path fill="#11201C" d="M6.747,17.682L6.747,17.682L6.747,17.682L6.747,17.682L6.747,17.682c-0.298,0-0.496,0.133-0.364,0.298
				c0.298,0.363,0.529,0.166,0.694,0C7.276,17.815,7.044,17.682,6.747,17.682z"/>
			<path fill="#E5E5E5" d="M5.589,16.624c0,0-0.033-1.224,0.166-1.291c0.198-0.066,0.595,0.695,0.595,0.695L5.589,16.624z"/>
			<path fill="#E5E5E5" d="M7.84,16.624c0,0,0.032-1.224-0.167-1.291c-0.199-0.066-0.596,0.695-0.596,0.695L7.84,16.624z"/>
			<path fill="#FFD4BC" d="M7.276,16.028l0.232-0.331c0.033-0.033,0.066,0,0.066,0.033l0.033,0.463L7.276,16.028z"/>
			<path fill="#FFD4BC" d="M6.185,16.061l-0.265-0.298c-0.033-0.033-0.066,0-0.066,0.034L5.82,16.26L6.185,16.061z"/>
			<ellipse fill="#11201C" cx="7.409" cy="17.054" rx="0.099" ry="0.132"/>
			<ellipse fill="#11201C" cx="6.085" cy="17.054" rx="0.099" ry="0.132"/>
		</g>
	</g>
</g>
</svg>
