<svg xmlns="http://www.w3.org/2000/svg" xmlns:xlink="http://www.w3.org/1999/xlink" width="52.941" height="34.659" viewBox="-4.132 12.378 52.941 34.659"><path fill="#F0F1F2" d="M1.154 18.103h41.557v26.474H1.154z"/><defs><path id="e" d="M.973 18.103h41.555v26.474H.973z"/></defs><clipPath id="f"><use xlink:href="#e" overflow="visible"/></clipPath><g clip-path="url(#f)"><g fill="#FFF"><path d="M6.622 22.47h4.557v29.617H6.622zM32.278 22.47h4.556v29.617h-4.556z"/></g><path fill="#FFF" d="M11.807 22.513h19.886v33.912H11.807z"/><path fill="#0074FF" d="M12.191 28.757h19.216v21.04H12.191z"/><circle opacity=".3" fill="#DBDCDD" cx="14.881" cy="25.684" r="1.825"/><path opacity=".3" fill="#C1C1C1" d="M17.668 25.202h11.91v.962h-11.91z"/><path opacity=".3" fill="#DBDCDD" d="M13.151 50.95h13.644v1.152H13.151zM28.812 50.95h1.343v1.346h-1.343z"/><g><path fill="#575656" d="M23.142 42.879s3.653 0 3.653 1.825v3.652s-3.653-4.518-3.653-5.477z"/><path fill="#575656" d="M21.51 39.807c-2.594-.194-2.114 2.209-2.114 2.209v4.803h3.362c1.729 0 2.02-.577 2.02-1.727-.097-1.637-.674-5.192-3.268-5.285z"/><path fill="#838F92" d="M19.974 46.818s0-.093 0 0v-4.803c0-.577.481-.963.96-.963.576 0 .96.48.96.963v4.803h1.827V39.9c0-1.247-1.251-2.689-2.499-2.689h.19c-1.823 0-3.265 1.249-3.265 3.075v6.438h1.826v.094z"/><path fill="#AFBFC2" d="M19.782 46.818c.191 0 .288-.193.191-.288-.097-.479-.578-.769-1.058-.769-.479 0-.96.289-1.057.769 0 .194.097.288.193.288h1.731zM23.911 46.818a.205.205 0 0 0 .193-.193c-.097-.48-.575-.863-1.057-.863s-.96.383-1.057.863c0 .1.097.193.19.193h1.731zM24.969 34.713c0 1.921-1.921 4.805-4.132 4.805-2.208 0-3.841-2.884-3.841-4.805v-.287c0-1.922 1.729-3.075 4.034-3.075 2.209 0 4.035 1.153 4.035 3.075v.287h-.096z"/><path fill="#F3A5AE" d="M20.262 37.308v2.305c0 .388.384.769.769.769.382 0 .673-.381.673-.769v-2.305h-1.442z"/><path fill="#FFF" d="M22.951 37.211c-.097-.287-.288-.67-.481-.863-.479-.387-.767-.865-.767-1.347a219.362 219.362 0 0 1-.481-3.745h-.482l-.382 3.649c-.097.48-.288.961-.673 1.25-.385.286-.578.575-.672.959-.194.769.863 1.346 2.017 1.346 1.152 0 2.018-.481 1.921-1.249z"/><path fill="#11201C" d="M20.934 36.441c-.863 0-1.441.386-1.057.866.866 1.056 1.535.48 2.017 0 .576-.48-.094-.866-.96-.866z"/><path fill="#AFBFC2" d="M17.571 33.368s-.097-3.555.481-3.747c.576-.192 1.729 2.018 1.729 2.018l-2.21 1.729zM24.104 33.368s.095-3.555-.481-3.747c-.575-.192-1.729 2.018-1.729 2.018l2.21 1.729z"/><path fill="#FFD4BC" d="M22.47 31.639l.672-.96c.098-.096.194 0 .194.096l.097 1.345-.963-.481zM19.301 31.735l-.769-.864c-.095-.097-.191 0-.191.097l-.097 1.345 1.057-.578z"/><ellipse fill="#11201C" cx="22.854" cy="34.617" rx=".287" ry=".384"/><ellipse fill="#11201C" cx="19.014" cy="34.617" rx=".287" ry=".384"/></g><g><path fill="#DBDCDD" d="M13.151 54.215h1.826v.961h-1.826zM18.244 54.215h1.826v.961h-1.826zM23.048 54.215h1.823v.961h-1.823zM27.849 54.215h1.827v.961h-1.827z" opacity=".3"/></g></g><path fill="none" d="M1.245 17.874h41.01v25.062H1.245z"/><path fill="#FFF" d="M1.108 18.558h41.557v2.506H1.108z"/><g><path fill="#404041" d="M43.349 44.257V18.604c0-.911-.729-1.641-1.641-1.641H2.248c-.912 0-1.641.729-1.641 1.641v25.653c0 .457.182.82.455 1.14h41.83c.274-.274.457-.683.457-1.14zm-1.504-.685H1.883V18.604h39.916v24.969h.046z"/><path fill="#D0D2D3" d="M42.893 45.396H-4.132v.958h52.264v-.958z"/><circle fill="#929497" cx="22.023" cy="17.875" r=".228"/><path fill="#BBBDBF" d="M21.978 45.396h-3.737s.092.639.683.639h5.972c.591 0 .683-.639.683-.639h-3.601z"/><path fill="#E6E7E8" d="M-4.132 46.354s.319.684 3.008.684H45.127c2.687 0 3.006-.684 3.006-.684"/></g><g fill="#0074FF"><path opacity=".2" d="M36.24 20.152c-.273 0-.455-.182-.455-.455s.182-.456.455-.456.455.183.455.456c0 .274-.181.455-.455.455zM34.873 20.152c-.273 0-.457-.182-.457-.455s.184-.456.457-.456.456.183.456.456c0 .274-.183.455-.456.455zM7.078 19.241h3.645v.911H7.078zM33.506 20.152c-.273 0-.455-.182-.455-.455s.182-.456.455-.456.455.183.455.456c0 .274-.182.455-.455.455zM31.227 20.152c-.271 0-.455-.182-.455-.455s.184-.456.455-.456c.275 0 .457.183.457.456 0 .274-.182.455-.457.455zM29.861 20.152c-.273 0-.455-.182-.455-.455s.182-.456.455-.456c.271 0 .455.183.455.456 0 .274-.183.455-.455.455z"/></g><g><circle fill="#0074FF" cx="43.349" cy="30.404" r="5.461"/><path fill="#D07422" d="M44.95 33.497c.138 0 .273-.066.412-.136.138-.068.276-.139.412-.207.274-.205.482-.41.618-.688a2.41 2.41 0 0 1-.41.964c-.069.138-.208.274-.344.41-.139.139-.276.208-.481.345l-.207-.688z"/><path fill="#754114" d="M43.711 30.542c-1.718-.138-1.374 1.442-1.374 1.442v3.097h2.133c1.098 0 1.305-.344 1.305-1.102.069-1.03-.344-3.368-2.064-3.437z"/><path fill="#9C571A" d="M42.681 35.012s0-.069 0 0v-2.889a.617.617 0 1 1 1.235 0V35.012h1.172v-3.918c0-.826-.825-1.723-1.65-1.723h.136c-1.169 0-2.13.963-2.13 2.132v3.507h1.237v.002z"/><path fill="#D48B4D" d="M42.542 35.081c.069 0 .206-.069.139-.208-.069-.273-.344-.48-.688-.48-.343 0-.619.207-.689.48 0 .07.07.208.14.208h1.098zM45.362 35.081c.068 0 .138-.069.138-.138-.069-.344-.343-.551-.687-.551s-.62.273-.689.551c0 .068.069.138.139.138h1.099zM40.754 28.546c0-1.099 1.239-2.819 2.684-2.819 1.443 0 2.545 1.721 2.545 2.819v.207c0 1.1-1.169 1.858-2.614 1.858-1.446 0-2.614-.688-2.614-1.858v-.207z"/><path fill="#FFE2D1" d="M40.825 28.822c.067 1.102.961 1.72 2.543 1.72 1.374 0 2.614-.618 2.614-1.72h-.895c-.482 0-.964-.344-1.033-.825l-.549-2.271-.758 2.34c-.137.412-.549.756-1.031.756h-.891z"/><ellipse fill="#FFF" cx="43.368" cy="29.51" rx="1.374" ry="1.032"/><path fill="#11201C" d="M43.368 28.892s-.069 0 0 0h-.069c-.479 0-.757.206-.551.479.481.619.896.276 1.168 0 .277-.205-.067-.479-.548-.479z"/><path fill="#9C571A" d="M42.475 26.072s-.275-.346-1.101 0c-.826.344-.964 1.237-1.031 1.925-.138.963-1.032 2.271.55 1.993 1.511-.343-.55-3.231 1.582-3.918zM44.536 26.072s.277-.346 1.103.068c.825.412.825 1.307.892 1.994 0 .963.759 2.338-.687 1.926-1.513-.413.756-2.819-1.308-3.988z"/><path fill="#F3A5AE" d="M42.956 30.129v.549a.47.47 0 0 0 .481.482.47.47 0 0 0 .479-.482v-.549h-.96z"/><ellipse fill="#5A2A00" cx="44.331" cy="27.928" rx=".205" ry=".274"/><ellipse fill="#5A2A00" cx="42.269" cy="27.928" rx=".206" ry=".274"/></g><g><circle fill="#0074FF" cx="17.552" cy="15.329" r="2.95"/><path fill="#D07422" d="M17.043 17.432a1.67 1.67 0 0 1-.351-.253c-.095-.096-.191-.192-.254-.319a1.857 1.857 0 0 1-.255-.702c.127.192.286.351.479.479.095.064.19.095.287.127.096.031.222.062.255.062l-.161.606z"/><path fill="#9C571A" d="M17.075 15.807l.797.573v1.211h-.702c-.35 0-.573-.063-.573-.318 0-.351.255-1.275.478-1.466z"/><path fill="#D48B4D" d="M17.776 17.591V16.54c0-.127-.095-.19-.224-.19a.218.218 0 0 0-.223.223v1.019h-.382v-1.976h.509c.382 0 .702.319.702.702v1.274h-.382z"/><path fill="#FFE2D1" d="M17.809 17.591c-.033 0-.064-.031-.033-.063.033-.097.127-.159.223-.159s.191.062.223.159c0 .032 0 .063-.032.063h-.381zM16.948 17.591c-.032 0-.032 0-.032-.031.032-.096.128-.191.223-.191.127 0 .191.095.223.191 0 .031 0 .031-.032.031h-.382z"/><path fill="#D48B4D" d="M16.469 14.532s-.349-.032-.573-.35c-.159-.224-.192-.542-.128-.925l.032-.127.127-.032s.096-.031.223-.031c.542 0 .829.286.829.796v.064l-.446.573-.064.032z"/><path fill="#FFD4BC" d="M16.469 14.341s-.732-.064-.51-1.02c0 0 .861-.191.861.605l-.351.415z"/><path fill="#D48B4D" d="M18.637 14.532s.35-.032.574-.35c.16-.224.191-.542.126-.925l-.031-.127-.128-.032s-.127-.031-.255-.031c-.542 0-.86.286-.86.796v.064l.478.574.096.031z"/><path fill="#FFD4BC" d="M18.637 14.341s.734-.064.51-1.02c0 0-.86-.191-.86.605l.35.415z"/><path fill="#D48B4D" d="M16.246 14.628c0 .605.606 1.466 1.307 1.466.702 0 1.244-.893 1.244-1.466v-.096c0-.605-.542-.956-1.274-.956-.701 0-1.276.351-1.276.956v.096z"/><path fill="#FFE2D1" d="M16.565 15.489c.255.351.604.605 1.02.605.414 0 .765-.287.987-.669l-.351-.288c-.383-.287-.893-.287-1.243 0l-.413.352z"/><ellipse fill="#5A2A00" cx="18.127" cy="14.724" rx=".127" ry=".191"/><ellipse fill="#5A2A00" cx="17.043" cy="14.724" rx=".126" ry=".191"/><path fill="#FFE2D1" d="M17.585 15.489c-.096 0-.159-.064-.159-.16v-1.116c0-.095.063-.159.159-.159a.15.15 0 0 1 .159.159v1.116c-.032.096-.095.16-.159.16z"/><path fill="#11201C" d="M17.585 15.233c.19 0 .349.064.254.224-.127.286-.382.286-.478 0-.063-.16.065-.224.224-.224z"/><path fill="#F3A5AE" d="M17.457 15.807v.223c0 .095.095.191.192.191.096 0 .16-.096.16-.191v-.191h-.352v-.032z"/></g><g><circle fill="#0074FF" cx="7.078" cy="18.558" r="3.858"/><path fill="#919191" d="M7.508 19.9s1.257 0 1.257.628v1.258S7.508 20.23 7.508 19.9z"/><path fill="#919191" d="M6.946 18.841c-.894-.067-.729.761-.729.761v1.654h1.159c.595 0 .695-.199.695-.595-.033-.562-.231-1.787-1.125-1.82z"/><path fill="#CFD2D3" d="M6.416 21.256s0-.032 0 0v-1.654a.331.331 0 0 1 .662 0v1.654h.629v-2.383c0-.429-.431-.926-.861-.926h.066c-.628 0-1.125.43-1.125 1.059v2.218h.628v.032z"/><path fill="#AFBFC2" d="M6.35 21.256c.066 0 .099-.066.066-.099-.033-.165-.199-.265-.364-.265-.166 0-.331.1-.364.265 0 .067.033.099.066.099h.596zM7.773 21.256c.033 0 .067-.032.067-.066a.389.389 0 0 0-.365-.297.389.389 0 0 0-.364.297c0 .034.034.066.066.066h.596z"/><path fill="#E5E5E5" d="M8.17 17.095c0 .662-.695 1.646-1.456 1.646s-1.324-.993-1.324-1.654v-.099c0-.662.596-1.06 1.39-1.06.761 0 1.39.397 1.39 1.06v.107z"/><path fill="#11201C" d="M6.747 17.682c-.298 0-.496.133-.364.298.298.363.529.166.694 0 .199-.165-.033-.298-.33-.298z"/><path fill="#E5E5E5" d="M5.589 16.624s-.033-1.224.166-1.291c.198-.066.595.695.595.695l-.761.596zM7.84 16.624s.032-1.224-.167-1.291c-.199-.066-.596.695-.596.695l.763.596z"/><path fill="#FFD4BC" d="M7.276 16.028l.232-.331c.033-.033.066 0 .066.033l.033.463-.331-.165zM6.185 16.061l-.265-.298c-.033-.033-.066 0-.066.034l-.034.463.365-.199z"/><ellipse fill="#11201C" cx="7.409" cy="17.054" rx=".099" ry=".132"/><ellipse fill="#11201C" cx="6.085" cy="17.054" rx=".099" ry=".132"/></g></svg>