<?xml version="1.0" encoding="utf-8"?>
<!-- Generator: Adobe Illustrator 21.0.2, SVG Export Plug-In . SVG Version: 6.00 Build 0)  -->
<svg version="1.1" id="_x32_1.5-inch_iMac" xmlns="http://www.w3.org/2000/svg" xmlns:xlink="http://www.w3.org/1999/xlink" x="0px"
	 y="0px" viewBox="0 0 147 69" style="enable-background:new 0 0 147 69;" xml:space="preserve">
<style type="text/css">
	.st0{fill:#F0F1F2;}
	.st1{clip-path:url(#SVGID_2_);}
	.st2{fill:#FFFFFF;}
	.st3{fill:#52E892;}
	.st4{opacity:0.3;fill:#DBDCDD;}
	.st5{opacity:0.3;fill:#C1C1C1;}
	.st6{fill:#575656;}
	.st7{fill:none;}
	.st8{fill:#838F92;}
	.st9{fill:#AFBFC2;}
	.st10{fill:#F3A5AE;}
	.st11{fill:#11201C;}
	.st12{fill:#FFD4BC;}
	.st13{opacity:0.3;}
	.st14{fill:#DBDCDD;}
	.st15{fill:#63AFC6;}
	.st16{display:none;}
	.st17{display:inline;fill:#575656;}
	.st18{display:inline;}
	.st19{fill:#D07422;}
	.st20{fill:#9C571A;}
	.st21{fill:#D48B4D;}
	.st22{fill:#FFE2D1;}
	.st23{fill:#5A2A00;}
	.st24{fill:#EAD168;}
	.st25{fill:#C1C1C1;}
	.st26{fill:#754114;}
	.st27{display:inline;fill:#52E892;}
	.st28{display:inline;fill:#F3A5AE;}
	.st29{fill:#EA9300;}
	.st30{fill:#62C5CF;}
	.st31{fill:#FFC0AD;}
	.st32{opacity:0.8;fill:#191919;}
	.st33{clip-path:url(#XMLID_2_);fill:#FC6B79;}
	.st34{fill:#404041;}
	.st35{fill:#D0D2D3;}
	.st36{fill:#929497;}
	.st37{fill:#BBBDBF;}
	.st38{fill:#E6E7E8;}
	.st39{display:none;fill:#58B4DD;}
	.st40{fill:#EAEAEA;}
	.st41{display:inline;fill:#FFD4BC;}
	.st42{fill:#FC6B79;}
	.st43{clip-path:url(#XMLID_4_);fill:#FC6B79;}
	.st44{fill:#5B5B5B;}
	.st45{clip-path:url(#SVGID_4_);}
	.st46{opacity:0.2;fill:#E6E7E8;}
	.st47{opacity:0.2;fill:#0074FF;}
	.st48{fill:#0074FF;}
</style>
<g>
	<rect x="43" y="3.5" class="st0" width="91.2" height="58.1"/>
	<g>
		<defs>
			<rect id="SVGID_1_" x="43.1" y="3.5" width="91.2" height="58.1"/>
		</defs>
		<clipPath id="SVGID_2_">
			<use xlink:href="#SVGID_1_"  style="overflow:visible;"/>
		</clipPath>
		<g class="st1">
			<g>
				<rect x="56.4" y="22" class="st2" width="20.7" height="35.3"/>
				<g>
					<rect x="56.8" y="28.5" class="st3" width="20" height="21.9"/>
					<g>
						<circle class="st4" cx="59.6" cy="25.3" r="1.9"/>
						<rect x="62.5" y="24.8" class="st5" width="12.4" height="1"/>
						<rect x="57.8" y="51.6" class="st4" width="14.2" height="1.2"/>
						<rect x="74.1" y="51.6" class="st4" width="1.4" height="1.4"/>
					</g>
					<g>
						<path class="st6" d="M68.2,43.2c0,0,3.8,0,3.8,1.9c0,1.9,0,3.8,0,3.8S68.2,44.2,68.2,43.2z"/>
						<g>
							<path class="st6" d="M66.5,40c-2.7-0.2-2.2,2.3-2.2,2.3v5l3.5,0c1.8,0,2.1-0.6,2.1-1.8C69.8,43.8,69.2,40.1,66.5,40z"/>
							<path class="st8" d="M64.9,47.3C64.9,47.3,64.9,47.2,64.9,47.3l0-5c0-0.6,0.5-1,1-1c0.6,0,1,0.5,1,1v4c0,0.4,0,0.7,0,1h1.9
								v-7.2c0-1.3-1.3-2.8-2.6-2.8h0.2c-1.9,0-3.4,1.3-3.4,3.2v6.7H64.9z"/>
							<path class="st9" d="M64.7,47.3c0.2,0,0.3-0.2,0.2-0.3c-0.1-0.5-0.6-0.8-1.1-0.8c-0.5,0-1,0.3-1.1,0.8c0,0.2,0.1,0.3,0.2,0.3
								H64.7z"/>
							<path class="st9" d="M69,47.3c0.1,0,0.2-0.1,0.2-0.2c-0.1-0.5-0.6-0.9-1.1-0.9c-0.5,0-1,0.4-1.1,0.9c0,0.1,0.1,0.2,0.2,0.2
								H69z"/>
							<path class="st9" d="M70.1,34.7c0,2-2,5-4.3,5c-2.3,0-4-3-4-5v-0.3c0-2,1.8-3.2,4.2-3.2l0,0c2.3,0,4.2,1.2,4.2,3.2V34.7z"/>
							<path class="st10" d="M65.2,37.4l0,2.4c0,0.4,0.4,0.8,0.8,0.8l0,0c0.4,0,0.7-0.4,0.7-0.8l0-2.4H65.2z"/>
							<path class="st2" d="M68,37.3c-0.1-0.3-0.3-0.7-0.5-0.9C67,36,66.7,35.5,66.7,35c-0.2-1.4-0.5-3.9-0.5-3.9l-0.5,0l-0.4,3.8
								c-0.1,0.5-0.3,1-0.7,1.3c-0.4,0.3-0.6,0.6-0.7,1c-0.2,0.8,0.9,1.4,2.1,1.4S68.1,38.1,68,37.3z"/>
							<path class="st11" d="M65.9,36.5L65.9,36.5C65.9,36.5,65.9,36.5,65.9,36.5C65.9,36.5,65.9,36.5,65.9,36.5L65.9,36.5
								c-0.9,0-1.5,0.4-1.1,0.9c0.9,1.1,1.6,0.5,2.1,0C67.5,36.9,66.8,36.5,65.9,36.5z"/>
							<path class="st9" d="M62.4,33.3c0,0-0.1-3.7,0.5-3.9c0.6-0.2,1.8,2.1,1.8,2.1L62.4,33.3z"/>
							<path class="st9" d="M69.2,33.3c0,0,0.1-3.7-0.5-3.9c-0.6-0.2-1.8,2.1-1.8,2.1L69.2,33.3z"/>
							<path class="st12" d="M67.5,31.5l0.7-1c0.1-0.1,0.2,0,0.2,0.1l0.1,1.4L67.5,31.5z"/>
							<path class="st12" d="M64.2,31.6l-0.8-0.9c-0.1-0.1-0.2,0-0.2,0.1l-0.1,1.4L64.2,31.6z"/>
							<ellipse class="st11" cx="67.9" cy="34.6" rx="0.3" ry="0.4"/>
							<ellipse class="st11" cx="63.9" cy="34.6" rx="0.3" ry="0.4"/>
						</g>
					</g>
				</g>
				<g>
					<g class="st13">
						<rect x="57.8" y="55" class="st14" width="1.9" height="1"/>
					</g>
					<g class="st13">
						<rect x="63.1" y="55" class="st14" width="1.9" height="1"/>
					</g>
					<g>
						<rect x="68.1" y="55" class="st4" width="1.9" height="1"/>
					</g>
					<g>
						<rect x="73.1" y="55" class="st4" width="1.9" height="1"/>
					</g>
				</g>
			</g>
			<g>
				<rect x="78.4" y="22" class="st2" width="20.7" height="35.3"/>
				<g>
					<rect x="78.8" y="28.5" class="st15" width="20" height="21.9"/>
					<g>
						<circle class="st4" cx="81.6" cy="25.3" r="1.9"/>
						<rect x="84.5" y="24.8" class="st5" width="12.4" height="1"/>
						<rect x="79.8" y="51.6" class="st4" width="14.2" height="1.2"/>
						<rect x="96.1" y="51.6" class="st4" width="1.4" height="1.4"/>
					</g>
					<g class="st16">
						<path class="st17" d="M90.2,43.2c0,0,3.8,0,3.8,1.9c0,1.9,0,3.8,0,3.8S90.2,44.2,90.2,43.2z"/>
						<g class="st18">
							<path class="st6" d="M88.5,40c-2.7-0.2-2.2,2.3-2.2,2.3v5l3.5,0c1.8,0,2.1-0.6,2.1-1.8C91.8,43.8,91.2,40.1,88.5,40z"/>
							<path class="st8" d="M86.9,47.3C86.9,47.3,86.9,47.2,86.9,47.3l0-5c0-0.6,0.5-1,1-1c0.6,0,1,0.5,1,1v4c0,0.4,0,0.7,0,1h1.9
								v-7.2c0-1.3-1.3-2.8-2.6-2.8h0.2c-1.9,0-3.4,1.3-3.4,3.2v6.7H86.9z"/>
							<path class="st9" d="M86.7,47.3c0.2,0,0.3-0.2,0.2-0.3c-0.1-0.5-0.6-0.8-1.1-0.8c-0.5,0-1,0.3-1.1,0.8c0,0.2,0.1,0.3,0.2,0.3
								H86.7z"/>
							<path class="st9" d="M91,47.3c0.1,0,0.2-0.1,0.2-0.2c-0.1-0.5-0.6-0.9-1.1-0.9c-0.5,0-1,0.4-1.1,0.9c0,0.1,0.1,0.2,0.2,0.2
								H91z"/>
							<path class="st9" d="M92.1,34.7c0,2-2,5-4.3,5c-2.3,0-4-3-4-5v-0.3c0-2,1.8-3.2,4.2-3.2l0,0c2.3,0,4.2,1.2,4.2,3.2V34.7z"/>
							<path class="st10" d="M87.2,37.4l0,2.4c0,0.4,0.4,0.8,0.8,0.8l0,0c0.4,0,0.7-0.4,0.7-0.8l0-2.4H87.2z"/>
							<path class="st2" d="M90,37.3c-0.1-0.3-0.3-0.7-0.5-0.9C89,36,88.7,35.5,88.7,35c-0.2-1.4-0.5-3.9-0.5-3.9l-0.5,0l-0.4,3.8
								c-0.1,0.5-0.3,1-0.7,1.3c-0.4,0.3-0.6,0.6-0.7,1c-0.2,0.8,0.9,1.4,2.1,1.4S90.1,38.1,90,37.3z"/>
							<path class="st11" d="M87.9,36.5L87.9,36.5C87.9,36.5,87.9,36.5,87.9,36.5C87.9,36.5,87.9,36.5,87.9,36.5L87.9,36.5
								c-0.9,0-1.5,0.4-1.1,0.9c0.9,1.1,1.6,0.5,2.1,0C89.5,36.9,88.8,36.5,87.9,36.5z"/>
							<path class="st9" d="M84.4,33.3c0,0-0.1-3.7,0.5-3.9c0.6-0.2,1.8,2.1,1.8,2.1L84.4,33.3z"/>
							<path class="st9" d="M91.2,33.3c0,0,0.1-3.7-0.5-3.9c-0.6-0.2-1.8,2.1-1.8,2.1L91.2,33.3z"/>
							<path class="st12" d="M89.5,31.5l0.7-1c0.1-0.1,0.2,0,0.2,0.1l0.1,1.4L89.5,31.5z"/>
							<path class="st12" d="M86.2,31.6l-0.8-0.9c-0.1-0.1-0.2,0-0.2,0.1l-0.1,1.4L86.2,31.6z"/>
							<ellipse class="st11" cx="89.9" cy="34.6" rx="0.3" ry="0.4"/>
							<ellipse class="st11" cx="85.9" cy="34.6" rx="0.3" ry="0.4"/>
						</g>
					</g>
					<g>
						<g>
							<path class="st19" d="M87.4,46.6c-0.5-0.3-0.8-0.5-1.1-0.8c-0.3-0.3-0.6-0.6-0.8-1c-0.4-0.7-0.7-1.4-0.8-2.2
								c0.4,0.6,0.9,1.1,1.5,1.5c0.3,0.2,0.6,0.3,0.9,0.4c0.3,0.1,0.7,0.2,0.8,0.2L87.4,46.6z"/>
						</g>
						<path class="st20" d="M87.5,41.5l2.5,1.8v3.8l-2.2,0c-1.1,0-1.8-0.2-1.8-1C86,45,86.8,42.1,87.5,41.5z"/>
						<path class="st21" d="M89.7,47.1C89.7,47.1,89.7,47.1,89.7,47.1l0-3.3c0-0.4-0.3-0.6-0.7-0.6c-0.4,0-0.7,0.3-0.7,0.7v2.6
							c0,0.3,0,0.5,0,0.6h-1.2v-6.2h1.6c1.2,0,2.2,1,2.2,2.2v4H89.7z"/>
						<path class="st22" d="M89.8,47.1c-0.1,0-0.2-0.1-0.1-0.2c0.1-0.3,0.4-0.5,0.7-0.5c0.3,0,0.6,0.2,0.7,0.5c0,0.1,0,0.2-0.1,0.2
							H89.8z"/>
						<path class="st22" d="M87.1,47.1C87,47.1,87,47.1,87,47c0.1-0.3,0.4-0.6,0.7-0.6c0.4,0,0.6,0.3,0.7,0.6c0,0.1,0,0.1-0.1,0.1
							H87.1z"/>
						<g>
							<path class="st21" d="M85.6,37.5c0,0-1.1-0.1-1.8-1.1c-0.5-0.7-0.6-1.7-0.4-2.9l0.1-0.4l0.4-0.1c0,0,0.3-0.1,0.7-0.1
								c1.7,0,2.6,0.9,2.6,2.5v0.2l-1.4,1.8L85.6,37.5z"/>
							<path class="st12" d="M85.6,36.9c0,0-2.3-0.2-1.6-3.2c0,0,2.7-0.6,2.7,1.9L85.6,36.9z"/>
							<path class="st21" d="M92.4,37.5c0,0,1.1-0.1,1.8-1.1c0.5-0.7,0.6-1.7,0.4-2.9l-0.1-0.4l-0.4-0.1c0,0-0.4-0.1-0.8-0.1
								c-1.7,0-2.7,0.9-2.7,2.5v0.2l1.5,1.8L92.4,37.5z"/>
							<path class="st12" d="M92.4,36.9c0,0,2.3-0.2,1.6-3.2c0,0-2.7-0.6-2.7,1.9L92.4,36.9z"/>
							<path class="st21" d="M84.9,37.8c0,1.9,1.9,4.6,4.1,4.6c2.2,0,3.9-2.8,3.9-4.6v-0.3c0-1.9-1.7-3-4-3l0,0c-2.2,0-4,1.1-4,3
								V37.8z"/>
							<path class="st22" d="M85.9,40.5c0.8,1.1,1.9,1.9,3.2,1.9s2.4-0.9,3.1-2.1l-1.1-0.9c-1.2-0.9-2.8-0.9-3.9,0L85.9,40.5z"/>
							<ellipse class="st23" cx="90.8" cy="38.1" rx="0.4" ry="0.6"/>
							<ellipse class="st23" cx="87.4" cy="38.1" rx="0.4" ry="0.6"/>
							<path class="st22" d="M89.1,40.5L89.1,40.5c-0.3,0-0.5-0.2-0.5-0.5v-3.5c0-0.3,0.2-0.5,0.5-0.5h0c0.3,0,0.5,0.2,0.5,0.5v3.5
								C89.5,40.3,89.3,40.5,89.1,40.5z"/>
							<path class="st11" d="M89.1,39.7L89.1,39.7C89.1,39.7,89.1,39.7,89.1,39.7C89.1,39.7,89.1,39.7,89.1,39.7L89.1,39.7
								c0.6,0,1.1,0.2,0.8,0.7c-0.4,0.9-1.2,0.9-1.5,0C88.2,39.9,88.6,39.7,89.1,39.7z"/>
						</g>
						<path class="st10" d="M88.7,41.5l0,0.7c0,0.3,0.3,0.6,0.6,0.6l0,0c0.3,0,0.5-0.3,0.5-0.6l0-0.6H88.7z"/>
					</g>
				</g>
				<g>
					<g class="st13">
						<rect x="79.8" y="55" class="st14" width="1.9" height="1"/>
					</g>
					<g>
						<rect x="85.1" y="55" class="st4" width="1.9" height="1"/>
					</g>
					<g class="st13">
						<rect x="90.1" y="55" class="st14" width="1.9" height="1"/>
					</g>
					<g>
						<rect x="95.1" y="55" class="st4" width="1.9" height="1"/>
					</g>
				</g>
			</g>
			<g>
				<rect x="100.4" y="22" class="st2" width="20.7" height="35.3"/>
				<g>
					<rect x="100.8" y="28.5" class="st24" width="20" height="21.9"/>
					<g class="st13">
						<circle class="st14" cx="103.6" cy="25.3" r="1.9"/>
						<rect x="106.5" y="24.8" class="st25" width="12.4" height="1"/>
						<rect x="101.8" y="51.6" class="st14" width="14.2" height="1.2"/>
						<rect x="118.1" y="51.6" class="st14" width="1.4" height="1.4"/>
					</g>
					<g class="st16">
						<path class="st17" d="M112.2,43.2c0,0,3.8,0,3.8,1.9c0,1.9,0,3.8,0,3.8S112.2,44.2,112.2,43.2z"/>
						<g class="st18">
							<path class="st6" d="M110.5,40c-2.7-0.2-2.2,2.3-2.2,2.3v5l3.5,0c1.8,0,2.1-0.6,2.1-1.8C113.8,43.8,113.2,40.1,110.5,40z"/>
							<path class="st8" d="M108.9,47.3C108.9,47.3,108.9,47.2,108.9,47.3l0-5c0-0.6,0.5-1,1-1c0.6,0,1,0.5,1,1v4c0,0.4,0,0.7,0,1
								h1.9v-7.2c0-1.3-1.3-2.8-2.6-2.8h0.2c-1.9,0-3.4,1.3-3.4,3.2v6.7H108.9z"/>
							<path class="st9" d="M108.7,47.3c0.2,0,0.3-0.2,0.2-0.3c-0.1-0.5-0.6-0.8-1.1-0.8c-0.5,0-1,0.3-1.1,0.8
								c0,0.2,0.1,0.3,0.2,0.3H108.7z"/>
							<path class="st9" d="M113,47.3c0.1,0,0.2-0.1,0.2-0.2c-0.1-0.5-0.6-0.9-1.1-0.9c-0.5,0-1,0.4-1.1,0.9c0,0.1,0.1,0.2,0.2,0.2
								H113z"/>
							<path class="st9" d="M114.1,34.7c0,2-2,5-4.3,5c-2.3,0-4-3-4-5v-0.3c0-2,1.8-3.2,4.2-3.2l0,0c2.3,0,4.2,1.2,4.2,3.2V34.7z"/>
							<path class="st10" d="M109.2,37.4l0,2.4c0,0.4,0.4,0.8,0.8,0.8l0,0c0.4,0,0.7-0.4,0.7-0.8l0-2.4H109.2z"/>
							<path class="st2" d="M112,37.3c-0.1-0.3-0.3-0.7-0.5-0.9c-0.4-0.4-0.7-0.8-0.7-1.4c-0.2-1.4-0.5-3.9-0.5-3.9l-0.5,0l-0.4,3.8
								c-0.1,0.5-0.3,1-0.7,1.3c-0.4,0.3-0.6,0.6-0.7,1c-0.2,0.8,0.9,1.4,2.1,1.4S112.1,38.1,112,37.3z"/>
							<path class="st11" d="M109.9,36.5L109.9,36.5C109.9,36.5,109.9,36.5,109.9,36.5C109.9,36.5,109.9,36.5,109.9,36.5L109.9,36.5
								c-0.9,0-1.5,0.4-1.1,0.9c0.9,1.1,1.6,0.5,2.1,0C111.5,36.9,110.8,36.5,109.9,36.5z"/>
							<path class="st9" d="M106.4,33.3c0,0-0.1-3.7,0.5-3.9c0.6-0.2,1.8,2.1,1.8,2.1L106.4,33.3z"/>
							<path class="st9" d="M113.2,33.3c0,0,0.1-3.7-0.5-3.9c-0.6-0.2-1.8,2.1-1.8,2.1L113.2,33.3z"/>
							<path class="st12" d="M111.5,31.5l0.7-1c0.1-0.1,0.2,0,0.2,0.1l0.1,1.4L111.5,31.5z"/>
							<path class="st12" d="M108.2,31.6l-0.8-0.9c-0.1-0.1-0.2,0-0.2,0.1l-0.1,1.4L108.2,31.6z"/>
							<ellipse class="st11" cx="111.9" cy="34.6" rx="0.3" ry="0.4"/>
							<ellipse class="st11" cx="107.9" cy="34.6" rx="0.3" ry="0.4"/>
						</g>
					</g>
					<g>
						<g>
							<path class="st19" d="M113.4,45.4c0.2,0,0.4-0.1,0.6-0.2c0.2-0.1,0.4-0.2,0.6-0.3c0.4-0.3,0.7-0.6,0.9-1
								c-0.1,0.5-0.3,1-0.6,1.4c-0.1,0.2-0.3,0.4-0.5,0.6c-0.2,0.2-0.4,0.3-0.7,0.5L113.4,45.4z"/>
						</g>
						<path class="st26" d="M111.6,41.1c-2.5-0.2-2,2.1-2,2.1v4.5l3.1,0c1.6,0,1.9-0.5,1.9-1.6C114.7,44.6,114.1,41.2,111.6,41.1z"
							/>
						<path class="st20" d="M110.1,47.6C110.1,47.6,110.1,47.5,110.1,47.6l0-4.2c0-0.5,0.4-0.9,0.9-0.9c0.5,0,0.9,0.4,0.9,0.9v3.3
							c0,0.4,0,0.6,0,0.9h1.7v-5.7c0-1.2-1.2-2.5-2.4-2.5h0.2c-1.7,0-3.1,1.4-3.1,3.1v5.1H110.1z"/>
						<path class="st21" d="M109.9,47.7c0.1,0,0.3-0.1,0.2-0.3c-0.1-0.4-0.5-0.7-1-0.7c-0.5,0-0.9,0.3-1,0.7c0,0.1,0.1,0.3,0.2,0.3
							H109.9z"/>
						<path class="st21" d="M114,47.7c0.1,0,0.2-0.1,0.2-0.2c-0.1-0.5-0.5-0.8-1-0.8c-0.5,0-0.9,0.4-1,0.8c0,0.1,0.1,0.2,0.2,0.2
							H114z"/>
						<path class="st21" d="M107.3,38.2c0-1.6,1.8-4.1,3.9-4.1c2.1,0,3.7,2.5,3.7,4.1v0.3c0,1.6-1.7,2.7-3.8,2.7l0,0
							c-2.1,0-3.8-1-3.8-2.7V38.2z"/>
						<path class="st22" d="M107.4,38.6c0.1,1.6,1.4,2.5,3.7,2.5c2,0,3.8-0.9,3.8-2.5h-1.3c-0.7,0-1.4-0.5-1.5-1.2l-0.8-3.3
							l-1.1,3.4c-0.2,0.6-0.8,1.1-1.5,1.1H107.4z"/>
						<ellipse class="st2" cx="111.1" cy="39.6" rx="2" ry="1.5"/>
						<path class="st11" d="M111.1,38.7L111.1,38.7C111.1,38.7,111,38.7,111.1,38.7c-0.1,0,0,0-0.1,0v0c-0.7,0-1.1,0.3-0.8,0.7
							c0.7,0.9,1.3,0.4,1.7,0C112.3,39.1,111.8,38.7,111.1,38.7z"/>
						<path class="st20" d="M109.8,34.6c0,0-0.4-0.5-1.6,0c-1.2,0.5-1.4,1.8-1.5,2.8c-0.2,1.4-1.5,3.3,0.8,2.9
							C109.7,39.8,106.7,35.6,109.8,34.6z"/>
						<path class="st20" d="M112.8,34.6c0,0,0.4-0.5,1.6,0.1s1.2,1.9,1.3,2.9c0,1.4,1.1,3.4-1,2.8C112.5,39.8,115.8,36.3,112.8,34.6
							z"/>
						<path class="st10" d="M110.5,40.5l0,0.8c0,0.4,0.3,0.7,0.7,0.7l0,0c0.4,0,0.7-0.3,0.7-0.7l0-0.8H110.5z"/>
						<ellipse class="st23" cx="112.5" cy="37.3" rx="0.3" ry="0.4"/>
						<ellipse class="st23" cx="109.5" cy="37.3" rx="0.3" ry="0.4"/>
					</g>
				</g>
				<g class="st13">
					<g>
						<rect x="101.8" y="55" class="st14" width="1.9" height="1"/>
					</g>
					<g>
						<rect x="107.1" y="55" class="st14" width="1.9" height="1"/>
					</g>
					<g>
						<rect x="112.1" y="55" class="st14" width="1.9" height="1"/>
					</g>
					<g>
						<rect x="117.1" y="55" class="st14" width="1.9" height="1"/>
					</g>
				</g>
			</g>
		</g>
	</g>
	<rect x="43.2" y="3" class="st7" width="90" height="55"/>
	<g class="st16">
		<path class="st27" d="M43.1,51.1c0.1-0.2,90.1,0,90.1,0V61h-90L43.1,51.1z"/>
		<path class="st28" d="M62.8,45c-0.9-0.5-1.6,0.3-1.6,1c0-0.7-0.8-1.5-1.6-1c-1.2,0.7,0,2.7,1.6,3.3C62.8,47.6,63.9,45.6,62.8,45z"
			/>
		<path class="st28" d="M120.6,31.1c-0.8-0.4-1.4,0.3-1.4,0.9c0-0.6-0.7-1.3-1.4-0.9c-1,0.6,0,2.4,1.4,2.9
			C120.6,33.5,121.6,31.7,120.6,31.1z"/>
		<path class="st28" d="M116.8,14c-0.9-0.5-1.6,0.3-1.6,1c0-0.7-0.8-1.5-1.6-1c-1.2,0.7,0,2.7,1.6,3.3
			C116.8,16.6,117.9,14.6,116.8,14z"/>
		<g class="st18">
			<g>
				<path class="st12" d="M84.4,22.1c0,0-1-1.4-1.5-0.7s0.4,2.9,1.5,2.5L84.4,22.1z"/>
				<path class="st12" d="M96.5,22.1c0,0,1-1.4,1.5-0.7s-0.4,2.9-1.5,2.5L96.5,22.1z"/>
				<g>
					<path class="st26" d="M90.9,51v0.6c0,0.2,0.2,0.4,0.4,0.4h2.4c0.3,0,0.4-0.3,0.3-0.6c-0.2-0.3-2.7-0.8-2.7-0.8
						C91.1,50.6,90.9,50.7,90.9,51z"/>
					<path class="st26" d="M89.8,51v0.6c0,0.2-0.2,0.4-0.4,0.4h-2.4c-0.3,0-0.4-0.3-0.3-0.6c0.2-0.3,2.7-0.8,2.7-0.8
						C89.7,50.6,89.8,50.7,89.8,51z"/>
					<path class="st29" d="M86.8,39.5h7.3l-1.3,11.3l-1.9,0c0,0,0.2-9-0.5-9.1c-0.7,0-0.5,9.1-0.5,9.1l-2.3,0L86.8,39.5z"/>
					<path class="st30" d="M79.9,32.8c3.2-1,6.5-4.5,9-4.5c1.6,0,2.8,0,2.8,0s1.2-0.2,2.4,0.9c0.8,0.7,1.5,3,2.8,5.1
						c1.6,2.6,2.8,3,4.2,3.8c0.5,1.1-0.9,0.9-1,1.1c-4.5-3.5-6.5-7.1-6.5-7.1s1.1,5.2,0.9,8.9c0,0-2.1,0.1-4,0.1c-2,0-4-0.3-4-0.3
						c-0.2-3.6,0.3-8.9,0.3-8.9l-7.7,3.2C78.3,34.6,79.9,32.8,79.9,32.8z"/>
					<path class="st12" d="M88.9,28.4c0,0.8,0.7,1.4,1.5,1.4h0c0.9,0,1.6-0.6,1.6-1.4v-1.9c0-0.8-0.7-1.7-1.6-1.7h0
						c-0.9,0-1.5,0.9-1.5,1.7V28.4z"/>
					<path class="st12" d="M97.2,17v7.3c0,1.9-1.6,3.5-3.7,3.5h-6c-2,0-3.7-1.6-3.7-3.5v-7.2L97.2,17z"/>
					<path class="st31" d="M90.7,27.4c2.2,0,4.3,0,6.3-1.9c-0.5,1.3-1.9,2.3-3.4,2.3h-6c-1.6,0-3-1-3.5-2.5
						C86,27.4,88.4,27.4,90.7,27.4z"/>
					<ellipse class="st23" cx="93.8" cy="21.7" rx="0.6" ry="1"/>
					<ellipse class="st23" cx="87.3" cy="21.7" rx="0.6" ry="1"/>
					<path class="st32" d="M90.6,23.3c0.4,0,0.8-0.1,1.1-0.2c0,0.1,0.1,0.2,0.1,0.2c0,0.4-0.5,0.8-1.1,0.8c-0.6,0-1.1-0.3-1.1-0.8
						c0-0.1,0-0.2,0.1-0.2C89.8,23.3,90.2,23.3,90.6,23.3z"/>
					<ellipse class="st31" cx="93.8" cy="23.8" rx="0.8" ry="0.8"/>
					<ellipse class="st31" cx="87.3" cy="23.8" rx="0.8" ry="0.8"/>
					<g>
						<defs>
							<path id="XMLID_3_" d="M91.9,24.8c0,0.8-0.7,1.5-1.5,1.5c-0.8,0-1.5-0.6-1.5-1.5"/>
						</defs>
						<use xlink:href="#XMLID_3_"  style="overflow:visible;fill:#B83336;"/>
						<clipPath id="XMLID_2_">
							<use xlink:href="#XMLID_3_"  style="overflow:visible;"/>
						</clipPath>
						<ellipse class="st33" cx="90.8" cy="26.7" rx="1.4" ry="1.4"/>
					</g>
				</g>
				<path class="st26" d="M97.2,23.1h-0.5v-4.3c0-1-0.9-1.7-1.9-1.5l-3.6,0.8c-0.5,0.1-1.1,0.2-1.6,0l-3.7-0.8
					c-0.7-0.2-1.3,0.4-1.3,1.1V23h-0.7c0,0-2.1-5.8,0.1-8.3c2.2-2.4,7.7-4.7,10.9-0.7c0,0,1.2-0.4,2.3,0.9
					C98.5,16.3,98,19.8,97.2,23.1z"/>
			</g>
			<g>
				<g>
					<path class="st6" d="M79.7,42.4l-0.1,0.1l-0.1,0.1l0,0l0,0.1c0,0.1,0,0.1,0,0.2c0,0.1,0,0.2,0,0.3c0,0.2,0.1,0.3,0.2,0.5
						c0.2,0.3,0.4,0.5,0.7,0.7c0.5,0.4,1.2,0.5,1.8,0.4c0.6-0.2,1.3-0.6,1.7-1.2c0.3-0.3,0.4-0.7,0.7-1.1c0.2-0.4,0.3-0.8,0.5-1.2
						c0.4,0.2,0.8,0.4,1.3,0.6c0.4,0.2,0.8,0.5,1.2,0.8c0.8,0.7,1.5,1.6,2.1,2.7c0.5,1.2,0.8,2.6,0.7,4.2c0,0.8-0.2,1.6-0.4,2.4
						c-0.1,0.4-0.3,0.8-0.5,1.2c-0.1,0.2-0.2,0.4-0.3,0.6c-0.1,0.1-0.1,0.2-0.2,0.4l-0.1,0.2l0,0l-0.1,0.1l-0.2,0.2L79.7,42.4z"/>
				</g>
				<path class="st6" d="M80.5,41.3c-4-0.3-3.2,3.4-3.2,3.4v7.2l5.1,0c2.6,0,3.1-0.8,3.1-2.6C85.5,46.9,84.5,41.5,80.5,41.3z"/>
				<path class="st8" d="M78.2,52c0,0,0-0.1,0-0.1v-7.3c0-0.8,0.7-1.4,1.5-1.4c0.8,0,1.5,0.7,1.5,1.5v5.9c0,0.6,0,1,0,1.4H84V41.5
					c0-2-1.9-4-3.8-4h0.3c-2.7,0-5,1.9-5,4.7V52H78.2z"/>
				<path class="st9" d="M77.9,52c0.2,0,0.4-0.2,0.3-0.4c-0.2-0.7-0.9-1.2-1.6-1.2c-0.8,0-1.4,0.5-1.6,1.2C75,51.8,75.1,52,75.4,52
					H77.9z"/>
				<path class="st9" d="M84.2,52c0.2,0,0.3-0.2,0.3-0.3c-0.2-0.8-0.8-1.3-1.6-1.3c-0.8,0-1.5,0.6-1.6,1.3c0,0.2,0.1,0.3,0.3,0.3
					H84.2z"/>
				<path class="st9" d="M85.8,33.6c0,2.9-2.9,7.3-6.3,7.3c-3.4,0-5.9-4.4-5.9-7.3v-0.5c0-2.9,2.7-4.7,6.1-4.7l0,0
					c3.4,0,6.1,1.8,6.1,4.7V33.6z"/>
				<path class="st10" d="M78.7,37.6l0,3.5c0,0.6,0.5,1.2,1.1,1.1l0,0c0.6,0,1.1-0.5,1.1-1.2l0-3.4H78.7z"/>
				<path class="st2" d="M82.7,37.3c-0.1-0.5-0.4-1-0.8-1.3c-0.6-0.5-1-1.2-1.1-2c-0.2-2.1-0.7-5.7-0.7-5.7l-0.7,0.1l-0.6,5.6
					c-0.1,0.7-0.5,1.4-1.1,1.9c-0.5,0.4-0.9,0.9-1.1,1.5c-0.2,1.2,1.3,2.1,3,2.1S82.9,38.5,82.7,37.3z"/>
				<path class="st11" d="M79.7,36.1L79.7,36.1C79.7,36.1,79.6,36.1,79.7,36.1C79.6,36.1,79.7,36.1,79.7,36.1L79.7,36.1
					c-1.4,0-2.2,0.5-1.6,1.4c1.3,1.6,2.3,0.8,3.1,0C82,36.7,81.1,36.2,79.7,36.1z"/>
				<path class="st9" d="M74.6,31.5c0,0-0.2-5.4,0.7-5.7c0.9-0.3,2.7,3.1,2.7,3.1L74.6,31.5z"/>
				<path class="st9" d="M84.5,31.5c0,0,0.2-5.4-0.7-5.7c-0.9-0.3-2.7,3.1-2.7,3.1L84.5,31.5z"/>
				<path class="st12" d="M82,28.8l1.1-1.5c0.1-0.1,0.3-0.1,0.3,0.1l0.2,2.1L82,28.8z"/>
				<path class="st12" d="M77.2,29l-1.2-1.4c-0.1-0.1-0.3-0.1-0.3,0.1l-0.1,2.1L77.2,29z"/>
				<ellipse class="st11" cx="82.5" cy="33.4" rx="0.4" ry="0.6"/>
				<ellipse class="st11" cx="76.8" cy="33.4" rx="0.4" ry="0.6"/>
			</g>
			<g>
				<g>
					<path class="st19" d="M100.8,40.1c-0.3,0.1-0.3,0.2-0.3,0.3c-0.1,0.1-0.1,0.1-0.1,0.2c0,0.1-0.1,0.2-0.1,0.4c0,0.2,0,0.4,0,0.7
						c0.1,0.4,0.2,0.8,0.3,1.2c0.3,0.7,0.8,1.4,1.4,1.9c1.2,1.1,2.8,1.6,4.6,1.4c1.2,1.2,2.1,3.1,2.2,5.2c0.1,1.1,0,2.2-0.3,3.3
						c-0.1,0.6-0.3,1.2-0.6,1.7c-0.1,0.3-0.3,0.6-0.5,0.9c-0.1,0.1-0.2,0.3-0.3,0.5c-0.1,0.1-0.1,0.2-0.2,0.2
						c-0.1,0.1-0.1,0.2-0.5,0.3L100.8,40.1z"/>
				</g>
				<path class="st26" d="M100.6,41.8c-3.8-0.2-3,3.3-3,3.3v6.9l4.8,0c2.5,0,2.9-0.8,2.9-2.5C105.3,47.2,104.4,42.1,100.6,41.8z"/>
				<path class="st20" d="M98.2,51.8C98.2,51.8,98.2,51.7,98.2,51.8l0-6.5c0-0.8,0.7-1.4,1.4-1.4c0.8,0,1.4,0.6,1.4,1.4v5.1
					c0,0.5,0,1,0,1.3h2.6v-8.7c0-1.9-1.8-3.8-3.6-3.8h0.3c-2.6,0-4.7,2.1-4.7,4.7v7.8H98.2z"/>
				<path class="st21" d="M98,52c0.2,0,0.4-0.2,0.3-0.4c-0.2-0.7-0.8-1.1-1.5-1.1c-0.7,0-1.3,0.5-1.5,1.1c-0.1,0.2,0.1,0.4,0.3,0.4
					H98z"/>
				<path class="st21" d="M104.2,52c0.2,0,0.3-0.1,0.2-0.3c-0.2-0.7-0.8-1.3-1.6-1.3c-0.8,0-1.4,0.5-1.6,1.3c0,0.2,0.1,0.3,0.2,0.3
					H104.2z"/>
				<path class="st21" d="M93.9,37.3c0-2.5,2.8-6.3,6-6.3s5.6,3.8,5.6,6.3v0.4c0,2.5-2.6,4.1-5.8,4.1l0,0c-3.2,0-5.8-1.6-5.8-4.1
					V37.3z"/>
				<path class="st22" d="M94.1,38c0.2,2.4,2.2,3.9,5.7,3.8c3.1,0,5.8-1.5,5.9-3.8h-2c-1.1,0-2.1-0.8-2.4-1.8l-1.3-5.1l-1.8,5.3
					C98,37.3,97,38,96,38H94.1z"/>
				<ellipse class="st2" cx="99.8" cy="39.6" rx="3.1" ry="2.2"/>
				<path class="st11" d="M99.7,38.2L99.7,38.2C99.7,38.2,99.6,38.2,99.7,38.2c-0.1,0,0,0-0.2,0v0c-1.1,0-1.7,0.4-1.2,1.2
					c1,1.3,2,0.7,2.6,0C101.6,38.7,100.8,38.2,99.7,38.2z"/>
				<path class="st20" d="M97.7,31.9c0,0-0.6-0.8-2.5,0c-1.9,0.8-2.1,2.8-2.3,4.3c-0.3,2.2-2.2,5.1,1.2,4.4
					C97.6,39.9,93,33.4,97.7,31.9z"/>
				<path class="st20" d="M102.4,31.9c0,0,0.7-0.8,2.5,0.2c1.8,1,1.9,3,1.9,4.5c0.1,2.2,1.8,5.3-1.6,4.3
					C101.9,39.9,107.1,34.4,102.4,31.9z"/>
				<path class="st10" d="M98.8,40.9l0,1.2c0,0.6,0.5,1,1.1,1l0,0c0.6,0,1-0.5,1-1.1l0-1.2H98.8z"/>
				<ellipse class="st23" cx="102" cy="36" rx="0.4" ry="0.6"/>
				<ellipse class="st23" cx="97.4" cy="36.1" rx="0.4" ry="0.6"/>
			</g>
			<path class="st10" d="M66.8,16.4c-1.3-0.7-2.4,0.5-2.4,1.5c0-1-1.1-2.2-2.4-1.5c-1.7,1,0,4,2.4,4.9
				C66.9,20.3,68.6,17.4,66.8,16.4z"/>
			<path class="st10" d="M103.5,23.1c-1-0.5-1.8,0.3-1.8,1.1c0-0.8-0.8-1.7-1.8-1.1c-1.3,0.7,0,3,1.8,3.7
				C103.6,26.1,104.8,23.9,103.5,23.1z"/>
			<path class="st10" d="M101.5,14.1c-0.5-0.3-0.9,0.2-0.9,0.6c0-0.4-0.4-0.9-0.9-0.6c-0.7,0.4,0,1.6,0.9,1.9
				C101.5,15.7,102.2,14.5,101.5,14.1z"/>
			<path class="st10" d="M80,20.4c-0.5-0.3-0.9,0.2-0.9,0.5c0-0.4-0.4-0.8-0.9-0.5c-0.6,0.4,0,1.5,0.9,1.8
				C80,21.8,80.6,20.7,80,20.4z"/>
		</g>
	</g>
	<rect x="42.9" y="4.5" class="st2" width="91.2" height="5.5"/>
	<g>
		<path class="st34" d="M135.6,60.9V4.6c0-2-1.6-3.6-3.6-3.6H45.4c-2,0-3.6,1.6-3.6,3.6v56.3c0,1,0.4,1.8,1,2.5h91.8
			C135.2,62.8,135.6,61.9,135.6,60.9z M132.3,59.4H44.6V4.6h87.6V59.4z"/>
		<polygon class="st35" points="134.6,63.4 42.8,63.4 31.4,63.4 31.4,65.5 146.1,65.5 146.1,63.4 		"/>
		<circle class="st36" cx="88.8" cy="3" r="0.5"/>
		<path class="st37" d="M88.7,63.4h-0.2h-8c0,0,0.2,1.4,1.5,1.4c1.1,0,5.3,0,6.4,0c0.2,0,0.3,0,0.3,0c1.1,0,5.3,0,6.4,0
			c1.3,0,1.5-1.4,1.5-1.4H88.7z"/>
		<path class="st38" d="M31.4,65.5c0,0,0.7,1.5,6.6,1.5c5.9,0,50.5,0,50.5,0H89c0,0,44.5,0,50.5,0c5.9,0,6.6-1.5,6.6-1.5"/>
	</g>
</g>
<g>
	<g>
		<path class="st34" d="M5,67c-2.2,0-4.1-1.8-4.1-4.1V16.3c0-2.2,1.8-4.1,4.1-4.1h17.9c2.2,0,4.1,1.8,4.1,4.1v46.6
			c0,2.2-1.8,4.1-4.1,4.1H5z"/>
	</g>
	<rect x="1.7" y="18" class="st39" width="24" height="43"/>
	<rect x="2.7" y="20" class="st40" width="22.3" height="39.5"/>
	<g class="st16">
		<path class="st41" d="M18.7,46l1,1c0,0,0,1-1,1s-1-2-1-2H18.7z"/>
		<g class="st18">
			<path class="st19" d="M13.1,53.8v0.4c0,0.2-0.1,0.3-0.3,0.3h-1.7c-0.2,0-0.3-0.2-0.2-0.4c0.1-0.2,1.9-0.6,1.9-0.6
				C13,53.5,13.1,53.6,13.1,53.8z"/>
			<path class="st19" d="M13.9,53.8v0.4c0,0.2,0.1,0.3,0.3,0.3h1.7c0.2,0,0.3-0.2,0.2-0.4c-0.1-0.2-1.9-0.6-1.9-0.6
				C14,53.5,13.9,53.6,13.9,53.8z"/>
			<path class="st30" d="M16,45.7h-5.1l0.9,8l1.3,0c0,0-0.2-6.4,0.4-6.4c0.5,0,0.3,6.4,0.3,6.4l1.6,0L16,45.7z"/>
			<path class="st42" d="M18.7,46c-1-3-2.4-8.2-4.1-8.2c-1.1,0-2,0-2,0s-0.9-0.1-1.7,0.6c-0.6,0.5-1.1,2.1-2,3.6
				c-1.1,1.8-1.7,2.9-2.6,3.5C5.9,46.2,6.9,46,7,46.2c3.1-2.7,4.3-5.8,4.3-5.8s-0.8,3.7-0.6,6.3c0,0,1.5,0.1,2.8,0.1
				s2.8-0.2,2.8-0.2c0.1-2.6-0.6-6.2-0.6-6.2l2,6.6C18.3,46.7,18.7,46,18.7,46z"/>
			<path class="st12" d="M14.5,37.8c0,0.6-0.4,1-1,1h0c-0.6,0-1.2-0.4-1.2-1v-1.3c0-0.6,0.6-1.2,1.2-1.2h0c0.6,0,1,0.6,1,1.2V37.8z"
				/>
			<path class="st12" d="M8.7,29.8V35c0,1.4,1.2,2.5,2.6,2.5h4.2c1.4,0,2.6-1.1,2.6-2.5v-5.1L8.7,29.8z"/>
			<path class="st31" d="M13.3,37.1c-1.6,0-3.1,0-4.4-1.3c0.4,0.9,1.3,1.6,2.4,1.6h4.2c1.2,0,2.1-0.7,2.5-1.7
				C16.6,37.1,14.9,37.1,13.3,37.1z"/>
			<ellipse class="st23" cx="11.1" cy="33.1" rx="0.4" ry="0.7"/>
			<ellipse class="st23" cx="15.7" cy="33.1" rx="0.4" ry="0.7"/>
			<path class="st32" d="M13.4,34.3c-0.3,0-0.5-0.1-0.8-0.2c0,0.1,0,0.1,0,0.2c0,0.3,0.4,0.5,0.8,0.5c0.4,0,0.8-0.2,0.8-0.5
				c0-0.1,0-0.1,0-0.2C13.9,34.2,13.7,34.3,13.4,34.3z"/>
			<ellipse class="st31" cx="11.1" cy="34.6" rx="0.6" ry="0.6"/>
			<ellipse class="st31" cx="15.7" cy="34.6" rx="0.6" ry="0.6"/>
			<g>
				<defs>
					<path id="XMLID_14_" d="M12.4,35.3c0,0.6,0.5,1,1,1c0.6,0,1-0.5,1-1"/>
				</defs>
				<use xlink:href="#XMLID_14_"  style="overflow:visible;fill:#B83336;"/>
				<clipPath id="XMLID_4_">
					<use xlink:href="#XMLID_14_"  style="overflow:visible;"/>
				</clipPath>
				<circle class="st43" cx="13.2" cy="36.7" r="1"/>
			</g>
			<path class="st20" d="M9.8,29.7c0,0-2.1,3.6-0.6,7.6c0,0-3.7-4.8-0.5-9c0,0-0.5-1.5,2-1.9c2.5-0.4,6.2,0.5,7.3,2.4
				c1.2,2.1,1.2,5.4-0.3,7.8c0,0,1-4.2-0.4-5.5C15.7,29.7,14.2,32.7,9.8,29.7z"/>
			<path class="st12" d="M9,33.4c0,0-0.7-1-1.1-0.5c-0.3,0.5,0.3,2,1,1.7L9,33.4z"/>
		</g>
		<g class="st18">
			<g>
				<path class="st19" d="M5.7,58.3c-0.2-0.1-0.2-0.1-0.3-0.2C5.4,58,5.4,58,5.3,57.9c-0.1-0.1-0.1-0.2-0.2-0.3
					c-0.1-0.2-0.2-0.3-0.3-0.5c-0.2-0.3-0.3-0.6-0.4-1c-0.2-0.6-0.3-1.3-0.3-1.9c0-1.2,0.4-2.3,1-3.1c1,0.2,1.9,0,2.6-0.4
					c0.4-0.2,0.7-0.5,0.9-0.9c0.1-0.2,0.2-0.4,0.3-0.6c0-0.1,0.1-0.2,0.1-0.3c0-0.1,0-0.1,0-0.2c0,0,0-0.1,0-0.1c0,0,0-0.1-0.2-0.1
					L5.7,58.3z"/>
			</g>
			<path class="st20" d="M7,50.5l1.8,1.3v2.8l-1.6,0c-0.8,0-1.3-0.2-1.3-0.8C6,53,6.5,50.9,7,50.5z"/>
			<path class="st21" d="M8.6,54.5C8.6,54.5,8.6,54.5,8.6,54.5l0-2.4c0-0.3-0.2-0.5-0.5-0.5c-0.3,0-0.5,0.2-0.5,0.5v1.9
				c0,0.2,0,0.3,0,0.5H6.8v-4.5h1.1c0.9,0,1.6,0.7,1.6,1.6v2.9H8.6z"/>
			<path class="st22" d="M8.7,54.6c-0.1,0-0.1-0.1-0.1-0.1C8.7,54.2,8.9,54,9.1,54c0.2,0,0.4,0.2,0.5,0.4c0,0.1,0,0.1-0.1,0.1H8.7z"
				/>
			<path class="st22" d="M6.8,54.6c-0.1,0-0.1,0-0.1-0.1C6.7,54.2,6.9,54,7.2,54c0.3,0,0.5,0.2,0.5,0.4c0,0.1,0,0.1-0.1,0.1H6.8z"/>
			<g>
				<path class="st21" d="M5.6,47.6c0,0-0.8-0.1-1.3-0.8c-0.4-0.5-0.5-1.2-0.3-2.1l0.1-0.3l0.3-0.1c0,0,0.2,0,0.5,0
					c1.2,0,1.9,0.7,1.9,1.8v0.2l-1,1.3L5.6,47.6z"/>
				<path class="st12" d="M5.7,47.1c0,0-1.7-0.2-1.2-2.3c0,0,2-0.4,2,1.4L5.7,47.1z"/>
				<path class="st21" d="M10.6,47.6c0,0,0.8-0.1,1.3-0.8c0.4-0.5,0.5-1.2,0.3-2.1l-0.1-0.3l-0.3-0.1c0,0-0.3,0-0.6,0
					c-1.2,0-2,0.7-2,1.8v0.2l1.1,1.3L10.6,47.6z"/>
				<path class="st12" d="M10.6,47.1c0,0,1.7-0.2,1.2-2.3c0,0-2-0.4-2,1.4L10.6,47.1z"/>
				<path class="st21" d="M5.1,47.8c0,1.3,1.4,3.4,3,3.4c1.6,0,2.8-2,2.8-3.4v-0.2c0-1.3-1.3-2.2-2.9-2.2l0,0
					c-1.6,0-2.9,0.8-2.9,2.2V47.8z"/>
				<path class="st22" d="M5.9,49.8c0.5,0.8,1.4,1.4,2.3,1.4s1.7-0.7,2.2-1.5L9.6,49c-0.8-0.7-2-0.7-2.8,0L5.9,49.8z"/>
				<ellipse class="st23" cx="9.4" cy="48" rx="0.3" ry="0.4"/>
				<ellipse class="st23" cx="7" cy="48" rx="0.3" ry="0.4"/>
				<path class="st22" d="M8.2,49.8L8.2,49.8c-0.2,0-0.3-0.2-0.3-0.3v-2.5c0-0.2,0.2-0.3,0.3-0.3h0c0.2,0,0.3,0.2,0.3,0.3v2.5
					C8.5,49.6,8.4,49.8,8.2,49.8z"/>
				<path class="st11" d="M8.2,49.2L8.2,49.2C8.2,49.2,8.2,49.2,8.2,49.2C8.2,49.2,8.2,49.2,8.2,49.2L8.2,49.2
					c0.5,0,0.8,0.1,0.6,0.5c-0.3,0.6-0.9,0.6-1.1,0C7.6,49.3,7.8,49.2,8.2,49.2z"/>
			</g>
			<path class="st10" d="M7.9,50.5l0,0.5c0,0.2,0.2,0.4,0.4,0.4l0,0c0.2,0,0.4-0.2,0.4-0.4l0-0.5H7.9z"/>
		</g>
		<g class="st18">
			<path class="st10" d="M21.4,23.9c-0.9-0.5-1.7,0.3-1.7,1c0-0.7-0.8-1.6-1.7-1c-1.2,0.7,0,2.8,1.7,3.5
				C21.4,26.7,22.6,24.6,21.4,23.9z"/>
			<path class="st10" d="M6.8,41.6c-0.3-0.2-0.7,0.1-0.7,0.4c0-0.3-0.3-0.6-0.7-0.4c-0.5,0.3,0,1.1,0.7,1.3
				C6.8,42.7,7.3,41.9,6.8,41.6z"/>
			<path class="st10" d="M7.4,40C7.2,39.9,7,40.1,7,40.3c0-0.2-0.2-0.4-0.4-0.2c-0.3,0.2,0,0.7,0.4,0.8C7.4,40.7,7.7,40.2,7.4,40z"
				/>
			<path class="st10" d="M23.6,22.9c-0.2-0.1-0.4,0.1-0.4,0.2c0-0.2-0.2-0.4-0.4-0.2c-0.3,0.2,0,0.7,0.4,0.8
				C23.6,23.6,23.8,23.1,23.6,22.9z"/>
			<path class="st10" d="M5.5,37.8c-0.2-0.1-0.4,0.1-0.4,0.2c0-0.2-0.2-0.4-0.4-0.2c-0.3,0.2,0,0.7,0.4,0.8
				C5.5,38.4,5.8,38,5.5,37.8z"/>
			<path class="st10" d="M21,32.2c-0.3-0.2-0.6,0.1-0.6,0.4c0-0.3-0.3-0.6-0.6-0.4c-0.4,0.3,0,1,0.6,1.3C21,33.2,21.4,32.4,21,32.2z
				"/>
		</g>
		<rect x="2.8" y="54" class="st27" width="22.3" height="5.5"/>
	</g>
	<circle class="st44" cx="14" cy="63.5" r="2"/>
	<path class="st38" d="M15.8,17.4c0.2,0,0.4-0.2,0.4-0.4l0,0c0-0.2-0.2-0.4-0.4-0.4h-3.6c-0.2,0-0.4,0.2-0.4,0.4l0,0
		c0,0.2,0.2,0.4,0.4,0.4H15.8z"/>
	<circle class="st38" cx="14" cy="15" r="0.5"/>
	<rect x="18.1" y="11.9" class="st34" width="4.2" height="0.6"/>
</g>
<g>
	<defs>
		<rect id="SVGID_3_" x="2.7" y="20" width="22.3" height="39.5"/>
	</defs>
	<clipPath id="SVGID_4_">
		<use xlink:href="#SVGID_3_"  style="overflow:visible;"/>
	</clipPath>
	<g class="st45">
		<rect x="3.6" y="20" class="st2" width="20.7" height="35.3"/>
		<g>
			<rect x="4" y="26.5" class="st3" width="20" height="21.9"/>
			<g>
				<circle class="st4" cx="6.8" cy="23.3" r="1.9"/>
				<rect x="9.7" y="22.8" class="st4" width="12.4" height="1"/>
				<rect x="5" y="49.3" class="st4" width="12.4" height="1.7"/>
				<rect x="21.1" y="49.3" class="st4" width="1.9" height="1.9"/>
				
					<rect x="20.5" y="52.5" transform="matrix(-1 -1.224647e-16 1.224647e-16 -1 43.4994 106.1812)" class="st4" width="2.6" height="1.2"/>
				<rect x="15.3" y="52.5" class="st4" width="2.6" height="1.2"/>
				
					<rect x="10.2" y="52.5" transform="matrix(-1 -1.224647e-16 1.224647e-16 -1 22.857 106.1812)" class="st4" width="2.6" height="1.2"/>
				
					<rect x="5" y="52.5" transform="matrix(-1 -1.224647e-16 1.224647e-16 -1 12.5915 106.1812)" class="st4" width="2.6" height="1.2"/>
			</g>
			<g>
				<path class="st6" d="M15.5,41.2c0,0,3.8,0,3.8,1.9c0,1.9,0,3.8,0,3.8S15.5,42.2,15.5,41.2z"/>
				<g>
					<path class="st6" d="M13.7,38c-2.7-0.2-2.2,2.3-2.2,2.3v5l3.5,0c1.8,0,2.1-0.6,2.1-1.8C17.1,41.8,16.4,38.1,13.7,38z"/>
					<path class="st8" d="M12.1,45.3C12.1,45.3,12.1,45.2,12.1,45.3l0-5c0-0.6,0.5-1,1-1c0.6,0,1,0.5,1,1v4c0,0.4,0,0.7,0,1h1.9
						v-7.2c0-1.3-1.3-2.8-2.6-2.8h0.2c-1.9,0-3.4,1.3-3.4,3.2v6.7H12.1z"/>
					<path class="st9" d="M11.9,45.3c0.2,0,0.3-0.2,0.2-0.3c-0.1-0.5-0.6-0.8-1.1-0.8c-0.5,0-1,0.3-1.1,0.8c0,0.2,0.1,0.3,0.2,0.3
						H11.9z"/>
					<path class="st9" d="M16.3,45.3c0.1,0,0.2-0.1,0.2-0.2c-0.1-0.5-0.6-0.9-1.1-0.9c-0.5,0-1,0.4-1.1,0.9c0,0.1,0.1,0.2,0.2,0.2
						H16.3z"/>
					<path class="st9" d="M17.3,32.7c0,2-2,5-4.3,5c-2.3,0-4-3-4-5v-0.3c0-2,1.8-3.2,4.2-3.2l0,0c2.3,0,4.2,1.2,4.2,3.2V32.7z"/>
					<path class="st10" d="M12.5,35.4l0,2.4c0,0.4,0.4,0.8,0.8,0.8l0,0c0.4,0,0.7-0.4,0.7-0.8l0-2.4H12.5z"/>
					<path class="st2" d="M15.2,35.3c-0.1-0.3-0.3-0.7-0.5-0.9C14.2,34,14,33.5,13.9,33c-0.2-1.4-0.5-3.9-0.5-3.9l-0.5,0l-0.4,3.8
						c-0.1,0.5-0.3,1-0.7,1.3c-0.4,0.3-0.6,0.6-0.7,1c-0.2,0.8,0.9,1.4,2.1,1.4S15.4,36.1,15.2,35.3z"/>
					<path class="st11" d="M13.1,34.5L13.1,34.5C13.1,34.5,13.1,34.5,13.1,34.5C13.1,34.5,13.1,34.5,13.1,34.5L13.1,34.5
						c-0.9,0-1.5,0.4-1.1,0.9c0.9,1.1,1.6,0.5,2.1,0C14.7,34.9,14.1,34.5,13.1,34.5z"/>
					<path class="st9" d="M9.7,31.3c0,0-0.1-3.7,0.5-3.9c0.6-0.2,1.8,2.1,1.8,2.1L9.7,31.3z"/>
					<path class="st9" d="M16.4,31.3c0,0,0.1-3.7-0.5-3.9c-0.6-0.2-1.8,2.1-1.8,2.1L16.4,31.3z"/>
					<path class="st12" d="M14.7,29.5l0.7-1c0.1-0.1,0.2,0,0.2,0.1l0.1,1.4L14.7,29.5z"/>
					<path class="st12" d="M11.5,29.6l-0.8-0.9c-0.1-0.1-0.2,0-0.2,0.1l-0.1,1.4L11.5,29.6z"/>
					<ellipse class="st11" cx="15.1" cy="32.6" rx="0.3" ry="0.4"/>
					<ellipse class="st11" cx="11.2" cy="32.6" rx="0.3" ry="0.4"/>
				</g>
			</g>
		</g>
	</g>
	<g class="st45">
		<rect x="3.6" y="56" class="st2" width="20.7" height="35.3"/>
		<g>
			<rect x="4" y="62.5" class="st3" width="20" height="21.9"/>
			<g>
				<circle class="st4" cx="6.8" cy="59.3" r="1.9"/>
				<rect x="9.7" y="58.8" class="st5" width="12.4" height="1"/>
			</g>
			<g>
				<g>
					<path class="st9" d="M17.3,68.7c0,2-2,5-4.3,5c-2.3,0-4-3-4-5v-0.3c0-2,1.8-3.2,4.2-3.2l0,0c2.3,0,4.2,1.2,4.2,3.2V68.7z"/>
					<path class="st2" d="M15.2,71.3c-0.1-0.3-0.3-0.7-0.5-0.9C14.2,70,14,69.5,13.9,69c-0.2-1.4-0.5-3.9-0.5-3.9l-0.5,0l-0.4,3.8
						c-0.1,0.5-0.3,1-0.7,1.3c-0.4,0.3-0.6,0.6-0.7,1c-0.2,0.8,0.9,1.4,2.1,1.4S15.4,72.1,15.2,71.3z"/>
					<path class="st9" d="M9.7,67.3c0,0-0.1-3.7,0.5-3.9c0.6-0.2,1.8,2.1,1.8,2.1L9.7,67.3z"/>
					<path class="st9" d="M16.4,67.3c0,0,0.1-3.7-0.5-3.9c-0.6-0.2-1.8,2.1-1.8,2.1L16.4,67.3z"/>
					<path class="st12" d="M14.7,65.5l0.7-1c0.1-0.1,0.2,0,0.2,0.1l0.1,1.4L14.7,65.5z"/>
					<path class="st12" d="M11.5,65.6l-0.8-0.9c-0.1-0.1-0.2,0-0.2,0.1l-0.1,1.4L11.5,65.6z"/>
					<ellipse class="st11" cx="15.1" cy="68.6" rx="0.3" ry="0.4"/>
					<ellipse class="st11" cx="11.2" cy="68.6" rx="0.3" ry="0.4"/>
				</g>
			</g>
		</g>
	</g>
</g>
<rect x="55.8" y="11" class="st2" width="65" height="10"/>
<g>
	<g>
		<rect x="57.3" y="12" class="st46" width="20" height="2"/>
		<rect x="78.3" y="12" class="st46" width="20" height="2"/>
		<rect x="99.3" y="12" class="st46" width="20" height="2"/>
		<rect x="57.3" y="15" class="st46" width="20" height="2"/>
		<rect x="78.3" y="15" class="st46" width="20" height="2"/>
		<rect x="99.3" y="15" class="st46" width="20" height="2"/>
		<rect x="57.3" y="18" class="st46" width="20" height="2"/>
		<rect x="78.3" y="18" class="st46" width="20" height="2"/>
	</g>
	<rect x="99.3" y="18" class="st47" width="20" height="2"/>
</g>
<g>
	<path class="st47" d="M120,8L120,8c-0.6,0-1-0.4-1-1v0c0-0.6,0.4-1,1-1l0,0c0.6,0,1,0.4,1,1v0C121,7.6,120.6,8,120,8z"/>
	<path class="st47" d="M117,8L117,8c-0.6,0-1-0.4-1-1v0c0-0.6,0.4-1,1-1l0,0c0.6,0,1,0.4,1,1v0C118,7.6,117.6,8,117,8z"/>
	<rect x="56" y="6" class="st47" width="8" height="2"/>
	<path class="st47" d="M114,8L114,8c-0.6,0-1-0.4-1-1v0c0-0.6,0.4-1,1-1l0,0c0.6,0,1,0.4,1,1v0C115,7.6,114.6,8,114,8z"/>
	<path class="st47" d="M109,8L109,8c-0.6,0-1-0.4-1-1v0c0-0.6,0.4-1,1-1l0,0c0.6,0,1,0.4,1,1v0C110,7.6,109.6,8,109,8z"/>
	<path class="st47" d="M106,8L106,8c-0.6,0-1-0.4-1-1v0c0-0.6,0.4-1,1-1l0,0c0.6,0,1,0.4,1,1v0C107,7.6,106.6,8,106,8z"/>
</g>
</svg>
