<svg id="_x32_1.5-inch_iMac" xmlns="http://www.w3.org/2000/svg" xmlns:xlink="http://www.w3.org/1999/xlink" viewBox="0 0 147 69"><style>.st0{fill:#f0f1f2}.st1{clip-path:url(#SVGID_2_)}.st2{fill:#fff}.st3{fill:#52e892}.st4,.st5{opacity:.3;fill:#dbdcdd}.st5{fill:#c1c1c1}.st6{fill:#575656}.st7{fill:none}.st8{fill:#838f92}.st9{fill:#afbfc2}.st10{fill:#f3a5ae}.st11{fill:#11201c}.st12{fill:#ffd4bc}.st13{opacity:.3}.st14{fill:#dbdcdd}.st15{fill:#63afc6}.st16{display:none}.st17{fill:#575656}.st17,.st18{display:inline}.st19{fill:#d07422}.st20{fill:#9c571a}.st21{fill:#d48b4d}.st22{fill:#ffe2d1}.st23{fill:#5a2a00}.st24{fill:#ead168}.st25{fill:#c1c1c1}.st26{fill:#754114}.st27,.st28{display:inline;fill:#52e892}.st28{fill:#f3a5ae}.st29{fill:#ea9300}.st30{fill:#62c5cf}.st31{fill:#ffc0ad}.st32{opacity:.8;fill:#191919}.st33{clip-path:url(#XMLID_2_);fill:#fc6b79}.st34{fill:#404041}.st35{fill:#d0d2d3}.st36{fill:#929497}.st37{fill:#bbbdbf}.st38{fill:#e6e7e8}.st39{display:none;fill:#58b4dd}.st40{fill:#eaeaea}.st41{display:inline;fill:#ffd4bc}.st42,.st43{fill:#fc6b79}.st43{clip-path:url(#XMLID_4_)}.st44{fill:#5b5b5b}.st45{clip-path:url(#SVGID_4_)}.st46{fill:#e6e7e8}.st46,.st47{opacity:.2}.st47,.st48{fill:#0074ff}</style><path class="st0" d="M43 3.5h91.2v58.1H43z"/><defs><path id="SVGID_1_" d="M43.1 3.5h91.2v58.1H43.1z"/></defs><clipPath id="SVGID_2_"><use xlink:href="#SVGID_1_" overflow="visible"/></clipPath><g class="st1"><path class="st2" d="M56.4 22h20.7v35.3H56.4z"/><path class="st3" d="M56.8 28.5h20v21.9h-20z"/><circle class="st4" cx="59.6" cy="25.3" r="1.9"/><path class="st5" d="M62.5 24.8h12.4v1H62.5z"/><path class="st4" d="M57.8 51.6H72v1.2H57.8zM74.1 51.6h1.4V53h-1.4z"/><g><path class="st6" d="M68.2 43.2s3.8 0 3.8 1.9v3.8s-3.8-4.7-3.8-5.7z"/><path class="st6" d="M66.5 40c-2.7-.2-2.2 2.3-2.2 2.3v5h3.5c1.8 0 2.1-.6 2.1-1.8-.1-1.7-.7-5.4-3.4-5.5z"/><path class="st8" d="M64.9 47.3s0-.1 0 0v-5c0-.6.5-1 1-1 .6 0 1 .5 1 1v5h1.9v-7.2c0-1.3-1.3-2.8-2.6-2.8h.2c-1.9 0-3.4 1.3-3.4 3.2v6.7h1.9z"/><path class="st9" d="M64.7 47.3c.2 0 .3-.2.2-.3-.1-.5-.6-.8-1.1-.8-.5 0-1 .3-1.1.8 0 .2.1.3.2.3h1.8zM69 47.3c.1 0 .2-.1.2-.2-.1-.5-.6-.9-1.1-.9-.5 0-1 .4-1.1.9 0 .1.1.2.2.2H69zM70.1 34.7c0 2-2 5-4.3 5s-4-3-4-5v-.3c0-2 1.8-3.2 4.2-3.2 2.3 0 4.2 1.2 4.2 3.2v.3z"/><path class="st10" d="M65.2 37.4v2.4c0 .4.4.8.8.8s.7-.4.7-.8v-2.4h-1.5z"/><path class="st2" d="M68 37.3c-.1-.3-.3-.7-.5-.9-.5-.4-.8-.9-.8-1.4-.2-1.4-.5-3.9-.5-3.9h-.5l-.4 3.8c-.1.5-.3 1-.7 1.3-.4.3-.6.6-.7 1-.2.8.9 1.4 2.1 1.4s2.1-.5 2-1.3z"/><path class="st11" d="M65.9 36.5c-.9 0-1.5.4-1.1.9.9 1.1 1.6.5 2.1 0 .6-.5-.1-.9-1-.9z"/><path class="st9" d="M62.4 33.3s-.1-3.7.5-3.9c.6-.2 1.8 2.1 1.8 2.1l-2.3 1.8zM69.2 33.3s.1-3.7-.5-3.9c-.6-.2-1.8 2.1-1.8 2.1l2.3 1.8z"/><path class="st12" d="M67.5 31.5l.7-1c.1-.1.2 0 .2.1l.1 1.4-1-.5zM64.2 31.6l-.8-.9c-.1-.1-.2 0-.2.1l-.1 1.4 1.1-.6z"/><ellipse class="st11" cx="67.9" cy="34.6" rx=".3" ry=".4"/><ellipse class="st11" cx="63.9" cy="34.6" rx=".3" ry=".4"/></g><g><path class="st13 st14" d="M57.8 55h1.9v1h-1.9zM63.1 55H65v1h-1.9z"/><path class="st4" d="M68.1 55H70v1h-1.9zM73.1 55H75v1h-1.9z"/></g><g><path class="st2" d="M78.4 22h20.7v35.3H78.4z"/><path class="st15" d="M78.8 28.5h20v21.9h-20z"/><circle class="st4" cx="81.6" cy="25.3" r="1.9"/><path class="st5" d="M84.5 24.8h12.4v1H84.5z"/><path class="st4" d="M79.8 51.6H94v1.2H79.8zM96.1 51.6h1.4V53h-1.4z"/><g class="st16"><path class="st17" d="M90.2 43.2s3.8 0 3.8 1.9v3.8s-3.8-4.7-3.8-5.7z"/><g class="st18"><path class="st6" d="M88.5 40c-2.7-.2-2.2 2.3-2.2 2.3v5h3.5c1.8 0 2.1-.6 2.1-1.8-.1-1.7-.7-5.4-3.4-5.5z"/><path class="st8" d="M86.9 47.3s0-.1 0 0v-5c0-.6.5-1 1-1 .6 0 1 .5 1 1v5h1.9v-7.2c0-1.3-1.3-2.8-2.6-2.8h.2c-1.9 0-3.4 1.3-3.4 3.2v6.7h1.9z"/><path class="st9" d="M86.7 47.3c.2 0 .3-.2.2-.3-.1-.5-.6-.8-1.1-.8-.5 0-1 .3-1.1.8 0 .2.1.3.2.3h1.8zM91 47.3c.1 0 .2-.1.2-.2-.1-.5-.6-.9-1.1-.9-.5 0-1 .4-1.1.9 0 .1.1.2.2.2H91zM92.1 34.7c0 2-2 5-4.3 5s-4-3-4-5v-.3c0-2 1.8-3.2 4.2-3.2 2.3 0 4.2 1.2 4.2 3.2v.3z"/><path class="st10" d="M87.2 37.4v2.4c0 .4.4.8.8.8s.7-.4.7-.8v-2.4h-1.5z"/><path class="st2" d="M90 37.3c-.1-.3-.3-.7-.5-.9-.5-.4-.8-.9-.8-1.4-.2-1.4-.5-3.9-.5-3.9h-.5l-.4 3.8c-.1.5-.3 1-.7 1.3-.4.3-.6.6-.7 1-.2.8.9 1.4 2.1 1.4s2.1-.5 2-1.3z"/><path class="st11" d="M87.9 36.5c-.9 0-1.5.4-1.1.9.9 1.1 1.6.5 2.1 0 .6-.5-.1-.9-1-.9z"/><path class="st9" d="M84.4 33.3s-.1-3.7.5-3.9c.6-.2 1.8 2.1 1.8 2.1l-2.3 1.8zM91.2 33.3s.1-3.7-.5-3.9c-.6-.2-1.8 2.1-1.8 2.1l2.3 1.8z"/><path class="st12" d="M89.5 31.5l.7-1c.1-.1.2 0 .2.1l.1 1.4-1-.5zM86.2 31.6l-.8-.9c-.1-.1-.2 0-.2.1l-.1 1.4 1.1-.6z"/><ellipse class="st11" cx="89.9" cy="34.6" rx=".3" ry=".4"/><ellipse class="st11" cx="85.9" cy="34.6" rx=".3" ry=".4"/></g></g><g><path class="st19" d="M87.4 46.6c-.5-.3-.8-.5-1.1-.8-.3-.3-.6-.6-.8-1-.4-.7-.7-1.4-.8-2.2.4.6.9 1.1 1.5 1.5.3.2.6.3.9.4.3.1.7.2.8.2l-.5 1.9z"/><path class="st20" d="M87.5 41.5l2.5 1.8v3.8h-2.2c-1.1 0-1.8-.2-1.8-1 0-1.1.8-4 1.5-4.6z"/><path class="st21" d="M89.7 47.1v-3.3c0-.4-.3-.6-.7-.6-.4 0-.7.3-.7.7v3.2h-1.2v-6.2h1.6c1.2 0 2.2 1 2.2 2.2v4h-1.2z"/><path class="st22" d="M89.8 47.1c-.1 0-.2-.1-.1-.2.1-.3.4-.5.7-.5.3 0 .6.2.7.5 0 .1 0 .2-.1.2h-1.2zM87.1 47.1c-.1 0-.1 0-.1-.1.1-.3.4-.6.7-.6.4 0 .6.3.7.6 0 .1 0 .1-.1.1h-1.2z"/><path class="st21" d="M85.6 37.5s-1.1-.1-1.8-1.1c-.5-.7-.6-1.7-.4-2.9l.1-.4.4-.1s.3-.1.7-.1c1.7 0 2.6.9 2.6 2.5v.2l-1.4 1.8-.2.1z"/><path class="st12" d="M85.6 36.9s-2.3-.2-1.6-3.2c0 0 2.7-.6 2.7 1.9l-1.1 1.3z"/><path class="st21" d="M92.4 37.5s1.1-.1 1.8-1.1c.5-.7.6-1.7.4-2.9l-.1-.4-.4-.1s-.4-.1-.8-.1c-1.7 0-2.7.9-2.7 2.5v.2l1.5 1.8.3.1z"/><path class="st12" d="M92.4 36.9s2.3-.2 1.6-3.2c0 0-2.7-.6-2.7 1.9l1.1 1.3z"/><path class="st21" d="M84.9 37.8c0 1.9 1.9 4.6 4.1 4.6 2.2 0 3.9-2.8 3.9-4.6v-.3c0-1.9-1.7-3-4-3-2.2 0-4 1.1-4 3v.3z"/><path class="st22" d="M85.9 40.5c.8 1.1 1.9 1.9 3.2 1.9s2.4-.9 3.1-2.1l-1.1-.9c-1.2-.9-2.8-.9-3.9 0l-1.3 1.1z"/><ellipse class="st23" cx="90.8" cy="38.1" rx=".4" ry=".6"/><ellipse class="st23" cx="87.4" cy="38.1" rx=".4" ry=".6"/><path class="st22" d="M89.1 40.5c-.3 0-.5-.2-.5-.5v-3.5c0-.3.2-.5.5-.5s.5.2.5.5V40c-.1.3-.3.5-.5.5z"/><path class="st11" d="M89.1 39.7c.6 0 1.1.2.8.7-.4.9-1.2.9-1.5 0-.2-.5.2-.7.7-.7z"/><path class="st10" d="M88.7 41.5v.7c0 .3.3.6.6.6s.5-.3.5-.6v-.6h-1.1z"/></g><g><path class="st13 st14" d="M79.8 55h1.9v1h-1.9z"/><path class="st4" d="M85.1 55H87v1h-1.9z"/><path class="st13 st14" d="M90.1 55H92v1h-1.9z"/><path class="st4" d="M95.1 55H97v1h-1.9z"/></g></g><g><path class="st2" d="M100.4 22h20.7v35.3h-20.7z"/><path class="st24" d="M100.8 28.5h20v21.9h-20z"/><g class="st13"><circle class="st14" cx="103.6" cy="25.3" r="1.9"/><path class="st25" d="M106.5 24.8h12.4v1h-12.4z"/><path class="st14" d="M101.8 51.6H116v1.2h-14.2zM118.1 51.6h1.4V53h-1.4z"/></g><g class="st16"><path class="st17" d="M112.2 43.2s3.8 0 3.8 1.9v3.8s-3.8-4.7-3.8-5.7z"/><g class="st18"><path class="st6" d="M110.5 40c-2.7-.2-2.2 2.3-2.2 2.3v5h3.5c1.8 0 2.1-.6 2.1-1.8-.1-1.7-.7-5.4-3.4-5.5z"/><path class="st8" d="M108.9 47.3s0-.1 0 0v-5c0-.6.5-1 1-1 .6 0 1 .5 1 1v5h1.9v-7.2c0-1.3-1.3-2.8-2.6-2.8h.2c-1.9 0-3.4 1.3-3.4 3.2v6.7h1.9z"/><path class="st9" d="M108.7 47.3c.2 0 .3-.2.2-.3-.1-.5-.6-.8-1.1-.8-.5 0-1 .3-1.1.8 0 .2.1.3.2.3h1.8zM113 47.3c.1 0 .2-.1.2-.2-.1-.5-.6-.9-1.1-.9-.5 0-1 .4-1.1.9 0 .1.1.2.2.2h1.8zM114.1 34.7c0 2-2 5-4.3 5s-4-3-4-5v-.3c0-2 1.8-3.2 4.2-3.2 2.3 0 4.2 1.2 4.2 3.2v.3z"/><path class="st10" d="M109.2 37.4v2.4c0 .4.4.8.8.8s.7-.4.7-.8v-2.4h-1.5z"/><path class="st2" d="M112 37.3c-.1-.3-.3-.7-.5-.9-.4-.4-.7-.8-.7-1.4-.2-1.4-.5-3.9-.5-3.9h-.5l-.4 3.8c-.1.5-.3 1-.7 1.3-.4.3-.6.6-.7 1-.2.8.9 1.4 2.1 1.4s2-.5 1.9-1.3z"/><path class="st11" d="M109.9 36.5c-.9 0-1.5.4-1.1.9.9 1.1 1.6.5 2.1 0 .6-.5-.1-.9-1-.9z"/><path class="st9" d="M106.4 33.3s-.1-3.7.5-3.9c.6-.2 1.8 2.1 1.8 2.1l-2.3 1.8zM113.2 33.3s.1-3.7-.5-3.9c-.6-.2-1.8 2.1-1.8 2.1l2.3 1.8z"/><path class="st12" d="M111.5 31.5l.7-1c.1-.1.2 0 .2.1l.1 1.4-1-.5zM108.2 31.6l-.8-.9c-.1-.1-.2 0-.2.1l-.1 1.4 1.1-.6z"/><ellipse class="st11" cx="111.9" cy="34.6" rx=".3" ry=".4"/><ellipse class="st11" cx="107.9" cy="34.6" rx=".3" ry=".4"/></g></g><path class="st19" d="M113.4 45.4c.2 0 .4-.1.6-.2l.6-.3c.4-.3.7-.6.9-1-.1.5-.3 1-.6 1.4-.1.2-.3.4-.5.6-.2.2-.4.3-.7.5l-.3-1z"/><path class="st26" d="M111.6 41.1c-2.5-.2-2 2.1-2 2.1v4.5h3.1c1.6 0 1.9-.5 1.9-1.6.1-1.5-.5-4.9-3-5z"/><path class="st20" d="M110.1 47.6s0-.1 0 0v-4.2c0-.5.4-.9.9-.9s.9.4.9.9v4.2h1.7v-5.7c0-1.2-1.2-2.5-2.4-2.5h.2c-1.7 0-3.1 1.4-3.1 3.1v5.1h1.8z"/><path class="st21" d="M109.9 47.7c.1 0 .3-.1.2-.3-.1-.4-.5-.7-1-.7s-.9.3-1 .7c0 .1.1.3.2.3h1.6zM114 47.7c.1 0 .2-.1.2-.2-.1-.5-.5-.8-1-.8s-.9.4-1 .8c0 .1.1.2.2.2h1.6zM107.3 38.2c0-1.6 1.8-4.1 3.9-4.1 2.1 0 3.7 2.5 3.7 4.1v.3c0 1.6-1.7 2.7-3.8 2.7-2.1 0-3.8-1-3.8-2.7v-.3z"/><path class="st22" d="M107.4 38.6c.1 1.6 1.4 2.5 3.7 2.5 2 0 3.8-.9 3.8-2.5h-1.3c-.7 0-1.4-.5-1.5-1.2l-.8-3.3-1.1 3.4c-.2.6-.8 1.1-1.5 1.1h-1.3z"/><ellipse class="st2" cx="111.1" cy="39.6" rx="2" ry="1.5"/><path class="st11" d="M111.1 38.7s-.1 0 0 0h-.1c-.7 0-1.1.3-.8.7.7.9 1.3.4 1.7 0 .4-.3-.1-.7-.8-.7z"/><path class="st20" d="M109.8 34.6s-.4-.5-1.6 0c-1.2.5-1.4 1.8-1.5 2.8-.2 1.4-1.5 3.3.8 2.9 2.2-.5-.8-4.7 2.3-5.7zM112.8 34.6s.4-.5 1.6.1 1.2 1.9 1.3 2.9c0 1.4 1.1 3.4-1 2.8-2.2-.6 1.1-4.1-1.9-5.8z"/><path class="st10" d="M110.5 40.5v.8c0 .4.3.7.7.7.4 0 .7-.3.7-.7v-.8h-1.4z"/><ellipse class="st23" cx="112.5" cy="37.3" rx=".3" ry=".4"/><ellipse class="st23" cx="109.5" cy="37.3" rx=".3" ry=".4"/><g class="st13"><path class="st14" d="M101.8 55h1.9v1h-1.9zM107.1 55h1.9v1h-1.9zM112.1 55h1.9v1h-1.9zM117.1 55h1.9v1h-1.9z"/></g></g></g><path class="st7" d="M43.2 3h90v55h-90z"/><g class="st16"><path class="st27" d="M43.1 51.1c.1-.2 90.1 0 90.1 0V61h-90l-.1-9.9z"/><path class="st28" d="M62.8 45c-.9-.5-1.6.3-1.6 1 0-.7-.8-1.5-1.6-1-1.2.7 0 2.7 1.6 3.3 1.6-.7 2.7-2.7 1.6-3.3zM120.6 31.1c-.8-.4-1.4.3-1.4.9 0-.6-.7-1.3-1.4-.9-1 .6 0 2.4 1.4 2.9 1.4-.5 2.4-2.3 1.4-2.9zM116.8 14c-.9-.5-1.6.3-1.6 1 0-.7-.8-1.5-1.6-1-1.2.7 0 2.7 1.6 3.3 1.6-.7 2.7-2.7 1.6-3.3z"/><g class="st18"><path class="st12" d="M84.4 22.1s-1-1.4-1.5-.7.4 2.9 1.5 2.5v-1.8zM96.5 22.1s1-1.4 1.5-.7-.4 2.9-1.5 2.5v-1.8z"/><path class="st26" d="M90.9 51v.6c0 .2.2.4.4.4h2.4c.3 0 .4-.3.3-.6-.2-.3-2.7-.8-2.7-.8-.2 0-.4.1-.4.4zM89.8 51v.6c0 .2-.2.4-.4.4H87c-.3 0-.4-.3-.3-.6.2-.3 2.7-.8 2.7-.8.3 0 .4.1.4.4z"/><path class="st29" d="M86.8 39.5h7.3l-1.3 11.3h-1.9s.2-9-.5-9.1c-.7 0-.5 9.1-.5 9.1h-2.3l-.8-11.3z"/><path class="st30" d="M79.9 32.8c3.2-1 6.5-4.5 9-4.5h2.8s1.2-.2 2.4.9c.8.7 1.5 3 2.8 5.1 1.6 2.6 2.8 3 4.2 3.8.5 1.1-.9.9-1 1.1-4.5-3.5-6.5-7.1-6.5-7.1s1.1 5.2.9 8.9c0 0-2.1.1-4 .1-2 0-4-.3-4-.3-.2-3.6.3-8.9.3-8.9l-7.7 3.2c-.8-.5.8-2.3.8-2.3z"/><path class="st12" d="M88.9 28.4c0 .8.7 1.4 1.5 1.4.9 0 1.6-.6 1.6-1.4v-1.9c0-.8-.7-1.7-1.6-1.7-.9 0-1.5.9-1.5 1.7v1.9z"/><path class="st12" d="M97.2 17v7.3c0 1.9-1.6 3.5-3.7 3.5h-6c-2 0-3.7-1.6-3.7-3.5v-7.2l13.4-.1z"/><path class="st31" d="M90.7 27.4c2.2 0 4.3 0 6.3-1.9-.5 1.3-1.9 2.3-3.4 2.3h-6c-1.6 0-3-1-3.5-2.5 1.9 2.1 4.3 2.1 6.6 2.1z"/><ellipse class="st23" cx="93.8" cy="21.7" rx=".6" ry="1"/><ellipse class="st23" cx="87.3" cy="21.7" rx=".6" ry="1"/><path class="st32" d="M90.6 23.3c.4 0 .8-.1 1.1-.2 0 .1.1.2.1.2 0 .4-.5.8-1.1.8-.6 0-1.1-.3-1.1-.8 0-.1 0-.2.1-.2.1.2.5.2.9.2z"/><ellipse class="st31" cx="93.8" cy="23.8" rx=".8" ry=".8"/><ellipse class="st31" cx="87.3" cy="23.8" rx=".8" ry=".8"/><defs><path id="XMLID_3_" d="M91.9 24.8c0 .8-.7 1.5-1.5 1.5s-1.5-.6-1.5-1.5"/></defs><use xlink:href="#XMLID_3_" overflow="visible" fill="#b83336"/><clipPath id="XMLID_2_"><use xlink:href="#XMLID_3_" overflow="visible"/></clipPath><ellipse class="st33" cx="90.8" cy="26.7" rx="1.4" ry="1.4"/><path class="st26" d="M97.2 23.1h-.5v-4.3c0-1-.9-1.7-1.9-1.5l-3.6.8c-.5.1-1.1.2-1.6 0l-3.7-.8c-.7-.2-1.3.4-1.3 1.1V23h-.7s-2.1-5.8.1-8.3c2.2-2.4 7.7-4.7 10.9-.7 0 0 1.2-.4 2.3.9 1.3 1.4.8 4.9 0 8.2z"/><g><path class="st6" d="M79.7 42.4l-.1.1-.1.1V43.2c0 .2.1.3.2.5.2.3.4.5.7.7.5.4 1.2.5 1.8.4.6-.2 1.3-.6 1.7-1.2.3-.3.4-.7.7-1.1.2-.4.3-.8.5-1.2.4.2.8.4 1.3.6.4.2.8.5 1.2.8.8.7 1.5 1.6 2.1 2.7.5 1.2.8 2.6.7 4.2 0 .8-.2 1.6-.4 2.4-.1.4-.3.8-.5 1.2l-.3.6c-.1.1-.1.2-.2.4l-.1.2-.1.1-.2.2-8.9-12.3z"/><path class="st6" d="M80.5 41.3c-4-.3-3.2 3.4-3.2 3.4v7.2h5.1c2.6 0 3.1-.8 3.1-2.6 0-2.4-1-7.8-5-8z"/><path class="st8" d="M78.2 52V44.6c0-.8.7-1.4 1.5-1.4s1.5.7 1.5 1.5V52H84V41.5c0-2-1.9-4-3.8-4h.3c-2.7 0-5 1.9-5 4.7V52h2.7z"/><path class="st9" d="M77.9 52c.2 0 .4-.2.3-.4-.2-.7-.9-1.2-1.6-1.2-.8 0-1.4.5-1.6 1.2 0 .2.1.4.4.4h2.5zM84.2 52c.2 0 .3-.2.3-.3-.2-.8-.8-1.3-1.6-1.3s-1.5.6-1.6 1.3c0 .2.1.3.3.3h2.6zM85.8 33.6c0 2.9-2.9 7.3-6.3 7.3s-5.9-4.4-5.9-7.3v-.5c0-2.9 2.7-4.7 6.1-4.7 3.4 0 6.1 1.8 6.1 4.7v.5z"/><path class="st10" d="M78.7 37.6v3.5c0 .6.5 1.2 1.1 1.1.6 0 1.1-.5 1.1-1.2v-3.4h-2.2z"/><path class="st2" d="M82.7 37.3c-.1-.5-.4-1-.8-1.3-.6-.5-1-1.2-1.1-2-.2-2.1-.7-5.7-.7-5.7l-.7.1-.6 5.6c-.1.7-.5 1.4-1.1 1.9-.5.4-.9.9-1.1 1.5-.2 1.2 1.3 2.1 3 2.1s3.3-1 3.1-2.2z"/><path class="st11" d="M79.7 36.1s-.1 0 0 0c-.1 0 0 0 0 0-1.4 0-2.2.5-1.6 1.4 1.3 1.6 2.3.8 3.1 0 .8-.8-.1-1.3-1.5-1.4z"/><path class="st9" d="M74.6 31.5s-.2-5.4.7-5.7c.9-.3 2.7 3.1 2.7 3.1l-3.4 2.6zM84.5 31.5s.2-5.4-.7-5.7c-.9-.3-2.7 3.1-2.7 3.1l3.4 2.6z"/><path class="st12" d="M82 28.8l1.1-1.5c.1-.1.3-.1.3.1l.2 2.1-1.6-.7zM77.2 29L76 27.6c-.1-.1-.3-.1-.3.1l-.1 2.1 1.6-.8z"/><ellipse class="st11" cx="82.5" cy="33.4" rx=".4" ry=".6"/><ellipse class="st11" cx="76.8" cy="33.4" rx=".4" ry=".6"/></g><g><path class="st19" d="M100.8 40.1c-.3.1-.3.2-.3.3-.1.1-.1.1-.1.2s-.1.2-.1.4v.7l.3 1.2c.3.7.8 1.4 1.4 1.9 1.2 1.1 2.8 1.6 4.6 1.4 1.2 1.2 2.1 3.1 2.2 5.2.1 1.1 0 2.2-.3 3.3-.1.6-.3 1.2-.6 1.7-.1.3-.3.6-.5.9-.1.1-.2.3-.3.5-.1.1-.1.2-.2.2-.1.1-.1.2-.5.3l-5.6-18.2z"/><path class="st26" d="M100.6 41.8c-3.8-.2-3 3.3-3 3.3V52h4.8c2.5 0 2.9-.8 2.9-2.5 0-2.3-.9-7.4-4.7-7.7z"/><path class="st20" d="M98.2 51.8s0-.1 0 0v-6.5c0-.8.7-1.4 1.4-1.4.8 0 1.4.6 1.4 1.4V51.7h2.6V43c0-1.9-1.8-3.8-3.6-3.8h.3c-2.6 0-4.7 2.1-4.7 4.7v7.8h2.6z"/><path class="st21" d="M98 52c.2 0 .4-.2.3-.4-.2-.7-.8-1.1-1.5-1.1s-1.3.5-1.5 1.1c-.1.2.1.4.3.4H98zM104.2 52c.2 0 .3-.1.2-.3-.2-.7-.8-1.3-1.6-1.3s-1.4.5-1.6 1.3c0 .2.1.3.2.3h2.8zM93.9 37.3c0-2.5 2.8-6.3 6-6.3s5.6 3.8 5.6 6.3v.4c0 2.5-2.6 4.1-5.8 4.1-3.2 0-5.8-1.6-5.8-4.1v-.4z"/><path class="st22" d="M94.1 38c.2 2.4 2.2 3.9 5.7 3.8 3.1 0 5.8-1.5 5.9-3.8h-2c-1.1 0-2.1-.8-2.4-1.8l-1.3-5.1-1.8 5.3C98 37.3 97 38 96 38h-1.9z"/><ellipse class="st2" cx="99.8" cy="39.6" rx="3.1" ry="2.2"/><path class="st11" d="M99.7 38.2s-.1 0 0 0h-.2c-1.1 0-1.7.4-1.2 1.2 1 1.3 2 .7 2.6 0 .7-.7-.1-1.2-1.2-1.2z"/><path class="st20" d="M97.7 31.9s-.6-.8-2.5 0-2.1 2.8-2.3 4.3c-.3 2.2-2.2 5.1 1.2 4.4 3.5-.7-1.1-7.2 3.6-8.7zM102.4 31.9s.7-.8 2.5.2 1.9 3 1.9 4.5c.1 2.2 1.8 5.3-1.6 4.3-3.3-1 1.9-6.5-2.8-9z"/><path class="st10" d="M98.8 40.9v1.2c0 .6.5 1 1.1 1 .6 0 1-.5 1-1.1v-1.2h-2.1z"/><ellipse class="st23" cx="102" cy="36" rx=".4" ry=".6"/><ellipse class="st23" cx="97.4" cy="36.1" rx=".4" ry=".6"/></g><path class="st10" d="M66.8 16.4c-1.3-.7-2.4.5-2.4 1.5 0-1-1.1-2.2-2.4-1.5-1.7 1 0 4 2.4 4.9 2.5-1 4.2-3.9 2.4-4.9zM103.5 23.1c-1-.5-1.8.3-1.8 1.1 0-.8-.8-1.7-1.8-1.1-1.3.7 0 3 1.8 3.7 1.9-.7 3.1-2.9 1.8-3.7zM101.5 14.1c-.5-.3-.9.2-.9.6 0-.4-.4-.9-.9-.6-.7.4 0 1.6.9 1.9.9-.3 1.6-1.5.9-1.9zM80 20.4c-.5-.3-.9.2-.9.5 0-.4-.4-.8-.9-.5-.6.4 0 1.5.9 1.8.9-.4 1.5-1.5.9-1.8z"/></g></g><path class="st2" d="M42.9 4.5h91.2V10H42.9z"/><g><path class="st34" d="M135.6 60.9V4.6c0-2-1.6-3.6-3.6-3.6H45.4c-2 0-3.6 1.6-3.6 3.6v56.3c0 1 .4 1.8 1 2.5h91.8c.6-.6 1-1.5 1-2.5zm-3.3-1.5H44.6V4.6h87.6v54.8z"/><path class="st35" d="M134.6 63.4H31.4v2.1h114.7v-2.1z"/><circle class="st36" cx="88.8" cy="3" r=".5"/><path class="st37" d="M88.7 63.4h-8.2s.2 1.4 1.5 1.4H95.1c1.3 0 1.5-1.4 1.5-1.4h-7.9z"/><path class="st38" d="M31.4 65.5S32.1 67 38 67h101.5c5.9 0 6.6-1.5 6.6-1.5"/></g><g><path class="st34" d="M5 67C2.8 67 .9 65.2.9 62.9V16.3c0-2.2 1.8-4.1 4.1-4.1h17.9c2.2 0 4.1 1.8 4.1 4.1v46.6c0 2.2-1.8 4.1-4.1 4.1H5z"/><path class="st39" d="M1.7 18h24v43h-24z"/><path class="st40" d="M2.7 20H25v39.5H2.7z"/><g class="st16"><path class="st41" d="M18.7 46l1 1s0 1-1 1-1-2-1-2h1z"/><g class="st18"><path class="st19" d="M13.1 53.8v.4c0 .2-.1.3-.3.3h-1.7c-.2 0-.3-.2-.2-.4.1-.2 1.9-.6 1.9-.6.2 0 .3.1.3.3zM13.9 53.8v.4c0 .2.1.3.3.3h1.7c.2 0 .3-.2.2-.4-.1-.2-1.9-.6-1.9-.6-.2 0-.3.1-.3.3z"/><path class="st30" d="M16 45.7h-5.1l.9 8h1.3s-.2-6.4.4-6.4c.5 0 .3 6.4.3 6.4h1.6l.6-8z"/><path class="st42" d="M18.7 46c-1-3-2.4-8.2-4.1-8.2h-2s-.9-.1-1.7.6c-.6.5-1.1 2.1-2 3.6-1.1 1.8-1.7 2.9-2.6 3.5-.4.7.6.5.7.7 3.1-2.7 4.3-5.8 4.3-5.8s-.8 3.7-.6 6.3c0 0 1.5.1 2.8.1s2.8-.2 2.8-.2c.1-2.6-.6-6.2-.6-6.2l2 6.6c.6-.3 1-1 1-1z"/><path class="st12" d="M14.5 37.8c0 .6-.4 1-1 1s-1.2-.4-1.2-1v-1.3c0-.6.6-1.2 1.2-1.2s1 .6 1 1.2v1.3z"/><path class="st12" d="M8.7 29.8V35c0 1.4 1.2 2.5 2.6 2.5h4.2c1.4 0 2.6-1.1 2.6-2.5v-5.1l-9.4-.1z"/><path class="st31" d="M13.3 37.1c-1.6 0-3.1 0-4.4-1.3.4.9 1.3 1.6 2.4 1.6h4.2c1.2 0 2.1-.7 2.5-1.7-1.4 1.4-3.1 1.4-4.7 1.4z"/><ellipse class="st23" cx="11.1" cy="33.1" rx=".4" ry=".7"/><ellipse class="st23" cx="15.7" cy="33.1" rx=".4" ry=".7"/><path class="st32" d="M13.4 34.3c-.3 0-.5-.1-.8-.2v.2c0 .3.4.5.8.5s.8-.2.8-.5v-.2c-.3.1-.5.2-.8.2z"/><ellipse class="st31" cx="11.1" cy="34.6" rx=".6" ry=".6"/><ellipse class="st31" cx="15.7" cy="34.6" rx=".6" ry=".6"/><defs><path id="XMLID_14_" d="M12.4 35.3c0 .6.5 1 1 1 .6 0 1-.5 1-1"/></defs><use xlink:href="#XMLID_14_" overflow="visible" fill="#b83336"/><clipPath id="XMLID_4_"><use xlink:href="#XMLID_14_" overflow="visible"/></clipPath><circle class="st43" cx="13.2" cy="36.7" r="1"/><path class="st20" d="M9.8 29.7s-2.1 3.6-.6 7.6c0 0-3.7-4.8-.5-9 0 0-.5-1.5 2-1.9 2.5-.4 6.2.5 7.3 2.4 1.2 2.1 1.2 5.4-.3 7.8 0 0 1-4.2-.4-5.5-1.6-1.4-3.1 1.6-7.5-1.4z"/><path class="st12" d="M9 33.4s-.7-1-1.1-.5c-.3.5.3 2 1 1.7l.1-1.2z"/></g><g class="st18"><path class="st19" d="M5.7 58.3c-.2-.1-.2-.1-.3-.2 0-.1 0-.1-.1-.2s-.1-.2-.2-.3c-.1-.2-.2-.3-.3-.5-.2-.3-.3-.6-.4-1-.2-.6-.3-1.3-.3-1.9 0-1.2.4-2.3 1-3.1 1 .2 1.9 0 2.6-.4.4-.2.7-.5.9-.9l.3-.6c0-.1.1-.2.1-.3v-.2-.1s0-.1-.2-.1l-3.1 9.8z"/><path class="st20" d="M7 50.5l1.8 1.3v2.8H7.2c-.8 0-1.3-.2-1.3-.8.1-.8.6-2.9 1.1-3.3z"/><path class="st21" d="M8.6 54.5v-2.4c0-.3-.2-.5-.5-.5s-.5.2-.5.5v2.4h-.8V50h1.1c.9 0 1.6.7 1.6 1.6v2.9h-.9z"/><path class="st22" d="M8.7 54.6c-.1 0-.1-.1-.1-.1.1-.3.3-.5.5-.5s.4.2.5.4c0 .1 0 .1-.1.1h-.8zM6.8 54.6c-.1 0-.1 0-.1-.1 0-.3.2-.5.5-.5s.5.2.5.4c0 .1 0 .1-.1.1h-.8z"/><path class="st21" d="M5.6 47.6s-.8-.1-1.3-.8c-.4-.5-.5-1.2-.3-2.1l.1-.3.3-.1h.5c1.2 0 1.9.7 1.9 1.8v.2l-1 1.3h-.2z"/><path class="st12" d="M5.7 47.1s-1.7-.2-1.2-2.3c0 0 2-.4 2 1.4l-.8.9z"/><path class="st21" d="M10.6 47.6s.8-.1 1.3-.8c.4-.5.5-1.2.3-2.1l-.1-.3-.3-.1h-.6c-1.2 0-2 .7-2 1.8v.2l1.1 1.3h.3z"/><path class="st12" d="M10.6 47.1s1.7-.2 1.2-2.3c0 0-2-.4-2 1.4l.8.9z"/><path class="st21" d="M5.1 47.8c0 1.3 1.4 3.4 3 3.4s2.8-2 2.8-3.4v-.2c0-1.3-1.3-2.2-2.9-2.2-1.6 0-2.9.8-2.9 2.2v.2z"/><path class="st22" d="M5.9 49.8c.5.8 1.4 1.4 2.3 1.4s1.7-.7 2.2-1.5l-.8-.7c-.8-.7-2-.7-2.8 0l-.9.8z"/><ellipse class="st23" cx="9.4" cy="48" rx=".3" ry=".4"/><ellipse class="st23" cx="7" cy="48" rx=".3" ry=".4"/><path class="st22" d="M8.2 49.8c-.2 0-.3-.2-.3-.3V47c0-.2.2-.3.3-.3.2 0 .3.2.3.3v2.5c0 .1-.1.3-.3.3z"/><path class="st11" d="M8.2 49.2c.5 0 .8.1.6.5-.3.6-.9.6-1.1 0-.1-.4.1-.5.5-.5z"/><path class="st10" d="M7.9 50.5v.5c0 .2.2.4.4.4s.4-.2.4-.4v-.5h-.8z"/></g><g class="st18"><path class="st10" d="M21.4 23.9c-.9-.5-1.7.3-1.7 1 0-.7-.8-1.6-1.7-1-1.2.7 0 2.8 1.7 3.5 1.7-.7 2.9-2.8 1.7-3.5zM6.8 41.6c-.3-.2-.7.1-.7.4 0-.3-.3-.6-.7-.4-.5.3 0 1.1.7 1.3.7-.2 1.2-1 .7-1.3zM7.4 40c-.2-.1-.4.1-.4.3 0-.2-.2-.4-.4-.2-.3.2 0 .7.4.8.4-.2.7-.7.4-.9zM23.6 22.9c-.2-.1-.4.1-.4.2 0-.2-.2-.4-.4-.2-.3.2 0 .7.4.8.4-.1.6-.6.4-.8zM5.5 37.8c-.2-.1-.4.1-.4.2 0-.2-.2-.4-.4-.2-.3.2 0 .7.4.8.4-.2.7-.6.4-.8zM21 32.2c-.3-.2-.6.1-.6.4 0-.3-.3-.6-.6-.4-.4.3 0 1 .6 1.3.6-.3 1-1.1.6-1.3z"/></g><path class="st27" d="M2.8 54h22.3v5.5H2.8z"/></g><circle class="st44" cx="14" cy="63.5" r="2"/><path class="st38" d="M15.8 17.4c.2 0 .4-.2.4-.4s-.2-.4-.4-.4h-3.6c-.2 0-.4.2-.4.4s.2.4.4.4h3.6z"/><circle class="st38" cx="14" cy="15" r=".5"/><path class="st34" d="M18.1 11.9h4.2v.6h-4.2z"/></g><g><defs><path id="SVGID_3_" d="M2.7 20H25v39.5H2.7z"/></defs><clipPath id="SVGID_4_"><use xlink:href="#SVGID_3_" overflow="visible"/></clipPath><g class="st45"><path class="st2" d="M3.6 20h20.7v35.3H3.6z"/><path class="st3" d="M4 26.5h20v21.9H4z"/><circle class="st4" cx="6.8" cy="23.3" r="1.9"/><path class="st4" d="M9.7 22.8h12.4v1H9.7zM5 49.3h12.4V51H5zM21.1 49.3H23v1.9h-1.9z"/><path transform="rotate(-180 21.75 53.09)" class="st4" d="M20.5 52.5h2.6v1.2h-2.6z"/><path class="st4" d="M15.3 52.5h2.6v1.2h-2.6z"/><path transform="rotate(-180 11.429 53.09)" class="st4" d="M10.2 52.5h2.6v1.2h-2.6z"/><path transform="rotate(-180 6.296 53.09)" class="st4" d="M5 52.5h2.6v1.2H5z"/><g><path class="st6" d="M15.5 41.2s3.8 0 3.8 1.9v3.8s-3.8-4.7-3.8-5.7z"/><path class="st6" d="M13.7 38c-2.7-.2-2.2 2.3-2.2 2.3v5H15c1.8 0 2.1-.6 2.1-1.8 0-1.7-.7-5.4-3.4-5.5z"/><path class="st8" d="M12.1 45.3s0-.1 0 0v-5c0-.6.5-1 1-1 .6 0 1 .5 1 1v5H16v-7.2c0-1.3-1.3-2.8-2.6-2.8h.2c-1.9 0-3.4 1.3-3.4 3.2v6.7h1.9z"/><path class="st9" d="M11.9 45.3c.2 0 .3-.2.2-.3-.1-.5-.6-.8-1.1-.8-.5 0-1 .3-1.1.8 0 .2.1.3.2.3h1.8zM16.3 45.3c.1 0 .2-.1.2-.2-.1-.5-.6-.9-1.1-.9-.5 0-1 .4-1.1.9 0 .1.1.2.2.2h1.8zM17.3 32.7c0 2-2 5-4.3 5s-4-3-4-5v-.3c0-2 1.8-3.2 4.2-3.2 2.3 0 4.2 1.2 4.2 3.2v.3z"/><path class="st10" d="M12.5 35.4v2.4c0 .4.4.8.8.8s.7-.4.7-.8v-2.4h-1.5z"/><path class="st2" d="M15.2 35.3c-.1-.3-.3-.7-.5-.9-.5-.4-.7-.9-.8-1.4-.2-1.4-.5-3.9-.5-3.9h-.5l-.4 3.8c-.1.5-.3 1-.7 1.3-.4.3-.6.6-.7 1-.2.8.9 1.4 2.1 1.4s2.2-.5 2-1.3z"/><path class="st11" d="M13.1 34.5c-.9 0-1.5.4-1.1.9.9 1.1 1.6.5 2.1 0 .6-.5 0-.9-1-.9z"/><path class="st9" d="M9.7 31.3s-.1-3.7.5-3.9c.6-.2 1.8 2.1 1.8 2.1l-2.3 1.8zM16.4 31.3s.1-3.7-.5-3.9c-.6-.2-1.8 2.1-1.8 2.1l2.3 1.8z"/><path class="st12" d="M14.7 29.5l.7-1c.1-.1.2 0 .2.1l.1 1.4-1-.5zM11.5 29.6l-.8-.9c-.1-.1-.2 0-.2.1l-.1 1.4 1.1-.6z"/><ellipse class="st11" cx="15.1" cy="32.6" rx=".3" ry=".4"/><ellipse class="st11" cx="11.2" cy="32.6" rx=".3" ry=".4"/></g></g><g class="st45"><path class="st2" d="M3.6 56h20.7v35.3H3.6z"/><path class="st3" d="M4 62.5h20v21.9H4z"/><circle class="st4" cx="6.8" cy="59.3" r="1.9"/><path class="st5" d="M9.7 58.8h12.4v1H9.7z"/><g><path class="st9" d="M17.3 68.7c0 2-2 5-4.3 5s-4-3-4-5v-.3c0-2 1.8-3.2 4.2-3.2 2.3 0 4.2 1.2 4.2 3.2v.3z"/><path class="st2" d="M15.2 71.3c-.1-.3-.3-.7-.5-.9-.5-.4-.7-.9-.8-1.4-.2-1.4-.5-3.9-.5-3.9h-.5l-.4 3.8c-.1.5-.3 1-.7 1.3-.4.3-.6.6-.7 1-.2.8.9 1.4 2.1 1.4s2.2-.5 2-1.3z"/><path class="st9" d="M9.7 67.3s-.1-3.7.5-3.9c.6-.2 1.8 2.1 1.8 2.1l-2.3 1.8zM16.4 67.3s.1-3.7-.5-3.9c-.6-.2-1.8 2.1-1.8 2.1l2.3 1.8z"/><path class="st12" d="M14.7 65.5l.7-1c.1-.1.2 0 .2.1l.1 1.4-1-.5zM11.5 65.6l-.8-.9c-.1-.1-.2 0-.2.1l-.1 1.4 1.1-.6z"/><ellipse class="st11" cx="15.1" cy="68.6" rx=".3" ry=".4"/><ellipse class="st11" cx="11.2" cy="68.6" rx=".3" ry=".4"/></g></g></g><path class="st2" d="M55.8 11h65v10h-65z"/><g><path class="st46" d="M57.3 12h20v2h-20zM78.3 12h20v2h-20zM99.3 12h20v2h-20zM57.3 15h20v2h-20zM78.3 15h20v2h-20zM99.3 15h20v2h-20zM57.3 18h20v2h-20zM78.3 18h20v2h-20z"/><path class="st47" d="M99.3 18h20v2h-20z"/></g><g><path class="st47" d="M120 8c-.6 0-1-.4-1-1s.4-1 1-1 1 .4 1 1-.4 1-1 1zM117 8c-.6 0-1-.4-1-1s.4-1 1-1 1 .4 1 1-.4 1-1 1zM56 6h8v2h-8zM114 8c-.6 0-1-.4-1-1s.4-1 1-1 1 .4 1 1-.4 1-1 1zM109 8c-.6 0-1-.4-1-1s.4-1 1-1 1 .4 1 1-.4 1-1 1zM106 8c-.6 0-1-.4-1-1s.4-1 1-1 1 .4 1 1-.4 1-1 1z"/></g></svg>