<svg id="Camada_1" xmlns="http://www.w3.org/2000/svg" viewBox="0 0 800 800"><style>.st0{display:none;fill:#5d93c9}.st1{fill:none;stroke:#0074ff;stroke-width:11;stroke-miterlimit:10}.st2{fill:#0074ff}.st3,.st4{fill:none;stroke:#0074ff;stroke-width:11;stroke-linecap:round;stroke-linejoin:round;stroke-miterlimit:10}.st4{stroke-width:9}</style><path class="st0" d="M0 0h800v800H0z"/><path class="st1" d="M664.5 395.6c-12.9-39.2-11.7-97.6-23.3-131.7-35.9-29-84.7-50-133.8-50-28.4 0-58.4 6.3-84.4 18 0 .3-30.2 17.4-42.2 26.3-14.1 32.6-11.7 95.8-25.7 137.4-4.5 13.8-10.2 25.4-16.5 35 42.5 108.9 98.8 185.8 168.8 159.2 71.2 26.9 127.5-53.6 170-165.5-5.1-8.4-9.3-18-12.9-28.7z"/><path class="st1" d="M423 230.4c-16.8-36.5-116.7-46.1-164.3 49.1-26.3 52.7 2.7 177.5 46.1 174.5 20.6-1.5 38.6-24.2 50-58.7 14.1-42.5 11.4-107.1 26.3-139.2 11.3-23.6 43.1-23 41.9-25.7zm171.7 3c16.8-36.5 118.2-49.1 165.8 46.1 26.3 52.7-2.7 177.5-46.1 174.5-20.6-1.5-38.6-24.2-50-58.7-14.1-42.5-11.4-107.1-26.3-139.2-11.3-23.6-44.6-20-43.4-22.7zm-87.3 351.3v-99.1"/><path class="st2" d="M551.6 491.9c-.6-5.1-22.4-18.9-44.3-18.9-22.1 0-44.3 13.8-44.9 18.9-1.5 10.2 30.8 50 44 50h1.2c13.5 0 45.5-39.8 44-50z"/><circle class="st2" cx="425.4" cy="394.4" r="27.5"/><circle class="st2" cx="589.4" cy="394.7" r="27.5"/><g><path class="st3" d="M291.6 502.7s-19.8 51.2-70.9 18.9m70.3-18.9s19.8 51.2 70.9 18.9"/><path class="st1" d="M338.3 430.3c-9.6 14.1-20.9 22.7-33.2 23.6-37.1 2.7-63.7-88-54.2-147.2H232s-53.9-94-63.4-101.2c-9.6-7.2-50.3 65.2-50.3 232.2 0 122.4 86.2 157.1 173 157.7 46.4.3 93.1 2.4 126.3-29.6-30.2-29-56.9-77.8-79.3-135.5z"/><path class="st4" d="M29.4 461.1l128.4-8.4M51 524.6l106.8-34.5"/><circle class="st2" cx="212" cy="409" r="23.9"/><path class="st2" d="M320.6 479.7c-.6-15.3-58.1-15.3-58.7 0-.6 15 18.9 29.6 29 29.9 11.2-.6 30.3-15 29.7-29.9z"/><path class="st2" d="M291.3 556.3c20.9 0 25.4-19.5 25.4-19.5l-25.4-28.4v-.3.3l-25.4 28.4c-.4 0 4.1 19.5 25.4 19.5"/></g></svg>