<?xml version="1.0" encoding="utf-8"?>
<!-- Generator: Adobe Illustrator 21.0.2, SVG Export Plug-In . SVG Version: 6.00 Build 0)  -->
<svg version="1.1" id="Camada_1" xmlns="http://www.w3.org/2000/svg" xmlns:xlink="http://www.w3.org/1999/xlink" x="0px" y="0px"
	 viewBox="0 0 800 800" style="enable-background:new 0 0 800 800;" xml:space="preserve">
<style type="text/css">
	.st0{display:none;fill:#5D93C9;}
	.st1{fill:none;stroke:#0074FF;stroke-width:11;stroke-miterlimit:10;}
	.st2{fill:#0074FF;}
	.st3{fill:none;stroke:#0074FF;stroke-width:11;stroke-linecap:round;stroke-linejoin:round;stroke-miterlimit:10;}
	.st4{fill:none;stroke:#0074FF;stroke-width:9;stroke-linecap:round;stroke-linejoin:round;stroke-miterlimit:10;}
</style>
<rect class="st0" width="800" height="800"/>
<g>
	<g>
		<g>
			<g>
				<path class="st1" d="M664.5,395.6c-12.9-39.2-11.7-97.6-23.3-131.7c-35.9-29-84.7-50-133.8-50c-28.4,0-58.4,6.3-84.4,18
					c0,0.3-30.2,17.4-42.2,26.3c-14.1,32.6-11.7,95.8-25.7,137.4c-4.5,13.8-10.2,25.4-16.5,35c42.5,108.9,98.8,185.8,168.8,159.2
					c71.2,26.9,127.5-53.6,170-165.5C672.3,415.9,668.1,406.3,664.5,395.6z"/>
				<path class="st1" d="M423,230.4c-16.8-36.5-116.7-46.1-164.3,49.1c-26.3,52.7,2.7,177.5,46.1,174.5c20.6-1.5,38.6-24.2,50-58.7
					c14.1-42.5,11.4-107.1,26.3-139.2C392.4,232.5,424.2,233.1,423,230.4z"/>
				<path class="st1" d="M594.7,233.4c16.8-36.5,118.2-49.1,165.8,46.1c26.3,52.7-2.7,177.5-46.1,174.5c-20.6-1.5-38.6-24.2-50-58.7
					c-14.1-42.5-11.4-107.1-26.3-139.2C626.8,232.5,593.5,236.1,594.7,233.4z"/>
				<line class="st1" x1="507.4" y1="584.7" x2="507.4" y2="485.6"/>
			</g>
			<g>
				<path class="st2" d="M551.6,491.9c-0.6-5.1-22.4-18.9-44.3-18.9c-22.1,0-44.3,13.8-44.9,18.9c-1.5,10.2,30.8,50,44,50
					c0.3,0,0.6,0,0.6,0c0.3,0,0.6,0,0.6,0C521.1,541.9,553.1,502.1,551.6,491.9z"/>
				<circle class="st2" cx="425.4" cy="394.4" r="27.5"/>
				<circle class="st2" cx="589.4" cy="394.7" r="27.5"/>
			</g>
		</g>
		<g>
			<g>
				<path class="st3" d="M291.6,502.7c0,0-19.8,51.2-70.9,18.9"/>
				<path class="st3" d="M291,502.7c0,0,19.8,51.2,70.9,18.9"/>
				<g>
					<path class="st1" d="M338.3,430.3c-9.6,14.1-20.9,22.7-33.2,23.6c-37.1,2.7-63.7-88-54.2-147.2H232c0,0-53.9-94-63.4-101.2
						c-9.6-7.2-50.3,65.2-50.3,232.2c0,122.4,86.2,157.1,173,157.7c46.4,0.3,93.1,2.4,126.3-29.6C387.4,536.8,360.7,488,338.3,430.3
						z"/>
				</g>
				<g>
					<line class="st4" x1="29.4" y1="461.1" x2="157.8" y2="452.7"/>
					<line class="st4" x1="51" y1="524.6" x2="157.8" y2="490.1"/>
				</g>
			</g>
			<g>
				<circle class="st2" cx="212" cy="409" r="23.9"/>
				<g>
					<path class="st2" d="M320.6,479.7c-0.6-15.3-58.1-15.3-58.7,0c-0.6,15,18.9,29.6,29,29.9l0,0l0,0l0,0l0,0
						C302.1,509,321.2,494.6,320.6,479.7z"/>
				</g>
				<path class="st2" d="M291.3,556.3L291.3,556.3L291.3,556.3c20.9,0,25.4-19.5,25.4-19.5l-25.4-28.4v-0.3l0,0l0,0v0.3l-25.4,28.4
					C265.5,536.8,270,556.3,291.3,556.3"/>
			</g>
		</g>
	</g>
</g>
</svg>
