<svg id="Camada_1" xmlns="http://www.w3.org/2000/svg" viewBox="-402.2 324.7 798.5 152.7"><style>.st0{display:none}.st1{display:inline}.st2,.st3{fill:#41aa31}.st3{display:inline}.st4{fill:#fff}.st5,.st6{stroke-width:11}.st5,.st6,.st7{fill:none;stroke:#fff;stroke-miterlimit:10}.st6,.st7{stroke-linecap:round;stroke-linejoin:round}.st7{stroke-width:9}</style><g class="st0"><g class="st1"><circle class="st2" cx="-142.9" cy="425.4" r="1.4"/><circle class="st2" cx="-127.2" cy="425.6" r="1.4"/><circle class="st2" cx="-75.8" cy="425.4" r="1.4"/><circle class="st2" cx="-31" cy="425.4" r="1.4"/><circle class="st2" cx="-15.2" cy="425.4" r="1.4"/><circle class="st2" cx="36" cy="425.4" r="1.4"/></g><circle class="st3" cx="80.9" cy="425.4" r="1.4"/><circle class="st3" cx="132.7" cy="425.4" r="1.4"/></g><path class="st4" d="M-60.8 439.5c-3.6 4.8-7.9 8.5-12.9 11.2-5.1 2.6-10.7 3.9-16.7 3.9-3.2 0-6.1-.3-8.7-1-2.6-.7-5.6-1.9-9-3.7-1.5-1.4-2.1-2.3-1.7-3 .4-.7.6-1.1.4-1.4l-.1 6.2c-1 4.8-3.9 7-9 6.6-5-.4-7.6-2.6-7.9-6.6v-99.9c1.1-5.5 4-8.1 8.8-7.9 4.8.3 7.4 2.9 8 7.9v41c8.3-3.3 15.2-4.8 20.9-4.8 8.7 0 15.6 2.2 20.5 6.5 5 4.4 8.3 8.7 9.9 12.8 1.7 4.3 2.5 8.5 2.5 13.2.1 6.4-1.7 12.8-5 19zm-15.3-8.4c1.4-2.5 2.2-5.5 2.2-9.1 0-5-1.5-9.4-4.4-12.9-3-3.7-7-5.5-12-5.5-7 .1-11.8 1.9-14.7 5.4-2.9 3.4-4.3 7.7-4.3 12.7 0 4.3 1.1 8 3.4 11.3 2.3 3.3 5 5.4 8 6.2 3 .8 5.2 1.2 6.5 1.2 3.3 0 6.1-.8 8.5-2.5 2.2-1.8 4.6-4 6.8-6.8zm42.1 20.8c-.8 4.8-3.9 7-9.1 6.7-5.4-.3-8.3-2.7-8.7-7v-63.8c1-5.4 3.9-8.1 8.8-7.9 4.8.1 7.9 2.5 9.1 7.3v64.7h-.1z"/><circle class="st4" cx="-43.7" cy="368.6" r="9.3"/><path class="st4" d="M33 451.6c-4.4 3.3-8.3 5.1-11.8 5.7-3.6.6-8.7.9-15.3.9-7.4 0-14-1.7-19.8-5-5.9-3.3-10.3-8.7-13.3-16-2-6.3-3-12.3-3-18 0-5.7.9-11 2.7-16.3 1.7-5.1 4.6-9.6 8.6-13.3 3.9-3.7 8.3-6.3 13.3-7.7s10-2.3 15.4-2.3c6.3 0 13.4 2.3 21.1 6.7 6 4.1 7.6 8.6 4.7 13.3-2.7 4.7-6.7 5.6-11.8 2.4-4.9-2.1-7.9-3.4-9.1-3.7-1.1-.3-3.1-.4-6-.4-3.1 0-6 .4-8.6 1.4-2.6 1-4.7 2.4-6.4 4.3-4 5-6 10.4-6 16 0 4.4.9 8.1 2.4 11.1 1.6 2.9 3.6 5 6.1 6.3 3.7 2.7 7.9 4 12 4 3 0 6-.6 8.9-1.7 3.1-1.3 5.7-2.4 7.9-3.4 5.4-2.6 9.4-1.7 11.7 2.6 2.2 4.2 1.2 8.8-3.7 13.1zm65.9-.5c-1.1 4.2-4.1 6.4-8.7 6.6-4.6.1-7.5-2-8.7-6.6v-36.7c-.5-3.4-1.8-6.1-3.5-8.3-1.8-2.2-4.4-3.1-7.8-3-4.2.7-7.2 2-9 4.2-1.9 2.2-3 4.8-3.5 8.1v35.8c-1.1 4.4-4.1 6.4-8.9 6.3s-7.5-2.3-8.1-6.3v-99.4c.4-5.5 3.3-8.2 8.3-8.3 5.1-.1 7.9 2.6 8.3 8.3v43c0-1.1 1.6-2.5 4.8-4.1 3.3-1.6 7-2.5 11.3-2.5 7.1 0 13.7 2.5 19.7 7.5 3.7 4.8 5.6 10.5 5.6 16.9v38.5h.2zm21.3.8c-.8 4.8-3.9 7-9.1 6.7-5.4-.3-8.3-2.7-8.7-7v-63.8c1-5.4 3.9-8.1 8.8-7.9 4.8.1 7.9 2.5 9.1 7.3v64.7h-.1z"/><circle class="st4" cx="110.9" cy="368.6" r="9.3"/><path class="st4" d="M190.8 451.1c-1 4.4-4.3 6.5-9.6 6.4-5.3-.1-8.2-2.3-8.5-6.5v-42.5c-1.2-2.1-3.1-3.9-5.9-5.5-2.7-1.6-5.7-2.3-9-2.3-2 0-3.9.3-5.7.8-2.5 1-4.8 2.5-6.9 4-2.1 1.6-3.5 3.3-4.4 4.8v40.5c-2 5.2-5.1 7.4-9.4 6.9-4.3-.5-6.8-2.9-7.3-6.9v-62.2c.4-6.1 3.4-9.1 8.9-9.3 5.5-.1 7.9 3 7.6 9.3v5c-1.4 1.2.3.1 5.3-3.3s10.6-5.1 16.5-5.1c7.8 0 14.3 2.1 19.4 6.1 5.1 4.2 8.2 9.6 9.1 16.8V451h-.1zm62.2.1c-1.1 4.2-4.1 6.4-8.7 6.6-4.6.1-7.5-2-8.7-6.6v-36.7c-.5-3.4-1.8-6.1-3.5-8.3-1.8-2.2-4.4-3.1-7.8-3-4.2.7-7.2 2-9 4.2-1.9 2.2-3 4.8-3.5 8.1v35.8c-1.1 4.4-4.1 6.4-8.9 6.3s-7.5-2.3-8.1-6.3v-99.4c.4-5.5 3.3-8.2 8.3-8.3 5.1-.1 7.9 2.6 8.3 8.3v43c0-1.1 1.6-2.5 4.8-4.1 3.3-1.6 7-2.5 11.3-2.5 7.1 0 13.7 2.5 19.7 7.5 3.7 4.8 5.6 10.5 5.6 16.9v38.5h.2zm134.4-57.9c.4.5.6 1.1.8 1.7 1.2 5 0 8.6-3.5 10.4-3.6 1.8-7.5 1.4-11.7-1.4-.4-.3-.7-.6-1-.9-2.1-2.5-4.3-4.4-6.7-5.7-2.6-1.4-5.5-2.1-8.8-2.1-2.2 0-4 .4-5.5 1.1-1.4.7-2.3 1.7-2.6 2.8s-.6 1.9-.6 2.6c0 1.2.8 2.5 2.5 3.7.4.3.8.5 1.2.6l23.3 8.2c4.3 1.7 7.4 4.1 9.8 7.7 2.3 3.4 3.6 7.3 3.6 11.6 0 4.8-1.5 9.6-4.7 14.2-3.1 4.4-7.2 7.4-12.5 8.7-.3.1-.5.1-.8.1-1.9.1-4 .4-5.9.7-2.2.3-4.3.4-6.2.4-6.5 0-12.5-1.1-18-3.2-5.3-2-10.2-5.9-14.7-11.7-.3-.4-.6-.9-.8-1.5-1.4-4.7-.5-8.6 3-11.5 3.5-3 7.9-2.2 13.2 1.9.3.2.5.4.7.7 2.6 3.1 5.3 5.5 7.7 7.1 2.6 1.7 4.9 2.4 7.5 2.3 4.3 0 7.1-.8 8.5-1.8.9-.6 1.6-1.4 2.2-2.5.9-1.7.7-3.8-.5-5.2-1-1.2-2.2-2.1-4.1-2.8-4.8-1.2-9.9-3.2-15.2-5.6-5.1-2.4-9.6-4.8-13.5-7.3-.4-.3-.8-.6-1.1-.9-3.4-4-5.2-8.4-5.2-13.2 0-7.6 2.6-13.1 7.9-16.7 5.2-3.6 9.6-5.6 13.4-6.3 3.6-.7 7.8-1 12.5-1h.6c6.1.6 10.9 2.1 14.7 4.4 3.6 2.2 7.1 5.7 10.5 10.4zm-74.5-1.2c-6.9-8-15.1-12-24.5-12-9.2 0-16.9 3.9-23.3 12.1-6.4 8.2-9.7 17.5-9.7 28 0 11.3 3.4 20.4 9.9 27.5 6.5 6.9 14.6 10.4 23.8 10.4 9.2 0 17.1-3.4 23.8-10.4 6.8-6.9 10.2-16.1 10.2-27.3.1-10.9-3.5-20.3-10.2-28.3zm-23.3 46.8c-8.5 0-15.3-9-15.3-20s6.9-20 15.3-20c8.5 0 15.3 9 15.3 20s-6.8 20-15.3 20z"/><path class="st5" d="M-182.4 399.5c-4.3-13.1-3.9-32.6-7.8-44-12-9.7-28.3-16.7-44.7-16.7-9.5 0-19.5 2.1-28.2 6 0 .1-10.1 5.8-14.1 8.8-4.7 10.9-3.9 32-8.6 45.9-1.5 4.6-3.4 8.5-5.5 11.7 14.2 36.4 33 62.1 56.4 53.2 23.8 9 42.6-17.9 56.8-55.3-1.7-2.8-3.1-6-4.3-9.6z"/><path class="st5" d="M-263.1 344.3c-5.6-12.2-39-15.4-54.9 16.4-8.8 17.6.9 59.3 15.4 58.3 6.9-.5 12.9-8.1 16.7-19.6 4.7-14.2 3.8-35.8 8.8-46.5 3.8-7.9 14.4-7.7 14-8.6zm57.4 1c5.6-12.2 39.5-16.4 55.4 15.4 8.8 17.6-.9 59.3-15.4 58.3-6.9-.5-12.9-8.1-16.7-19.6-4.7-14.2-3.8-35.8-8.8-46.5-3.8-7.9-14.9-6.7-14.5-7.6zm-29.2 117.4v-33.1"/><path class="st4" d="M-220.1 431.7c-.2-1.7-7.5-6.3-14.8-6.3-7.4 0-14.8 4.6-15 6.3-.5 3.4 10.3 16.7 14.7 16.7h.4c4.5 0 15.2-13.3 14.7-16.7z"/><circle class="st4" cx="-262.3" cy="399.1" r="9.2"/><circle class="st4" cx="-207.5" cy="399.2" r="9.2"/><g><path class="st6" d="M-307 435.3s-6.6 17.1-23.7 6.3m23.5-6.3s6.6 17.1 23.7 6.3"/><path class="st5" d="M-291.4 411.1c-3.2 4.7-7 7.6-11.1 7.9-12.4.9-21.3-29.4-18.1-49.2h-6.3s-18-31.4-21.2-33.8c-3.2-2.4-16.8 21.8-16.8 77.6 0 40.9 28.8 52.5 57.8 52.7 15.5.1 31.1.8 42.2-9.9-10.1-9.7-19-26-26.5-45.3z"/><path class="st7" d="M-394.6 421.4l42.9-2.8m-35.7 24l35.7-11.5"/><circle class="st4" cx="-333.6" cy="404" r="8"/><path class="st4" d="M-297.3 427.6c-.2-5.1-19.4-5.1-19.6 0-.2 5 6.3 9.9 9.7 10 3.7-.2 10.1-5 9.9-10z"/><path class="st4" d="M-307.1 453.2c7 0 8.5-6.5 8.5-6.5l-8.5-9.5v-.1.1l-8.5 9.5c-.1 0 1.4 6.5 8.5 6.5"/></g></svg>