<?xml version="1.0" encoding="utf-8"?>
<!-- Generator: Adobe Illustrator 19.1.0, SVG Export Plug-In . SVG Version: 6.00 Build 0)  -->
<svg version="1.1" id="Camada_1" xmlns="http://www.w3.org/2000/svg" xmlns:xlink="http://www.w3.org/1999/xlink" x="0px" y="0px"
	 viewBox="-402.2 324.7 798.5 152.7" style="enable-background:new -402.2 324.7 798.5 152.7;" xml:space="preserve">
<style type="text/css">
	.st0{display:none;}
	.st1{display:inline;}
	.st2{fill:#41AA31;}
	.st3{display:inline;fill:#41AA31;}
	.st4{fill:#fff;}
	.st5{fill:none;stroke:#fff;stroke-width:11;stroke-miterlimit:10;}
	.st6{fill:none;stroke:#fff;stroke-width:11;stroke-linecap:round;stroke-linejoin:round;stroke-miterlimit:10;}
	.st7{fill:none;stroke:#fff;stroke-width:9;stroke-linecap:round;stroke-linejoin:round;stroke-miterlimit:10;}
</style>
<g class="st0">
	<g class="st1">
		<circle class="st2" cx="-142.9" cy="425.4" r="1.4"/>
		<circle class="st2" cx="-127.2" cy="425.6" r="1.4"/>
		<circle class="st2" cx="-75.8" cy="425.4" r="1.4"/>
		<circle class="st2" cx="-31" cy="425.4" r="1.4"/>
		<circle class="st2" cx="-15.2" cy="425.4" r="1.4"/>
		<circle class="st2" cx="36" cy="425.4" r="1.4"/>
	</g>
	<circle class="st3" cx="80.9" cy="425.4" r="1.4"/>
	<circle class="st3" cx="132.7" cy="425.4" r="1.4"/>
</g>
<g>
	<g>
		<g>
			<g>
				<path class="st4" d="M-60.8,439.5c-3.6,4.8-7.9,8.5-12.9,11.2c-5.1,2.6-10.7,3.9-16.7,3.9c-3.2,0-6.1-0.3-8.7-1
					c-2.6-0.7-5.6-1.9-9-3.7c-1.5-1.4-2.1-2.3-1.7-3c0.4-0.7,0.6-1.1,0.4-1.4l-0.1,6.2c-1,4.8-3.9,7-9,6.6c-5-0.4-7.6-2.6-7.9-6.6
					v-99.9c1.1-5.5,4-8.1,8.8-7.9c4.8,0.3,7.4,2.9,8,7.9v41c8.3-3.3,15.2-4.8,20.9-4.8c8.7,0,15.6,2.2,20.5,6.5
					c5,4.4,8.3,8.7,9.9,12.8c1.7,4.3,2.5,8.5,2.5,13.2C-55.7,426.9-57.5,433.3-60.8,439.5z M-76.1,431.1c1.4-2.5,2.2-5.5,2.2-9.1
					c0-5-1.5-9.4-4.4-12.9c-3-3.7-7-5.5-12-5.5c-7,0.1-11.8,1.9-14.7,5.4c-2.9,3.4-4.3,7.7-4.3,12.7c0,4.3,1.1,8,3.4,11.3
					c2.3,3.3,5,5.4,8,6.2c3,0.8,5.2,1.2,6.5,1.2c3.3,0,6.1-0.8,8.5-2.5C-80.7,436.1-78.3,433.9-76.1,431.1z"/>
				<g>
					<path class="st4" d="M-34,451.9c-0.8,4.8-3.9,7-9.1,6.7c-5.4-0.3-8.3-2.7-8.7-7v-63.8c1-5.4,3.9-8.1,8.8-7.9
						c4.8,0.1,7.9,2.5,9.1,7.3v64.7H-34z"/>
					<circle class="st4" cx="-43.7" cy="368.6" r="9.3"/>
				</g>
				<path class="st4" d="M33,451.6c-4.4,3.3-8.3,5.1-11.8,5.7c-3.6,0.6-8.7,0.9-15.3,0.9c-7.4,0-14-1.7-19.8-5
					c-5.9-3.3-10.3-8.7-13.3-16c-2-6.3-3-12.3-3-18c0-5.7,0.9-11,2.7-16.3c1.7-5.1,4.6-9.6,8.6-13.3c3.9-3.7,8.3-6.3,13.3-7.7
					s10-2.3,15.4-2.3c6.3,0,13.4,2.3,21.1,6.7c6,4.1,7.6,8.6,4.7,13.3c-2.7,4.7-6.7,5.6-11.8,2.4c-4.9-2.1-7.9-3.4-9.1-3.7
					c-1.1-0.3-3.1-0.4-6-0.4c-3.1,0-6,0.4-8.6,1.4c-2.6,1-4.7,2.4-6.4,4.3c-4,5-6,10.4-6,16c0,4.4,0.9,8.1,2.4,11.1
					c1.6,2.9,3.6,5,6.1,6.3c3.7,2.7,7.9,4,12,4c3,0,6-0.6,8.9-1.7c3.1-1.3,5.7-2.4,7.9-3.4c5.4-2.6,9.4-1.7,11.7,2.6
					C38.9,442.7,37.9,447.3,33,451.6z"/>
				<path class="st4" d="M98.9,451.1c-1.1,4.2-4.1,6.4-8.7,6.6c-4.6,0.1-7.5-2-8.7-6.6v-36.7c-0.5-3.4-1.8-6.1-3.5-8.3
					c-1.8-2.2-4.4-3.1-7.8-3c-4.2,0.7-7.2,2-9,4.2c-1.9,2.2-3,4.8-3.5,8.1v35.8c-1.1,4.4-4.1,6.4-8.9,6.3s-7.5-2.3-8.1-6.3v-99.4
					c0.4-5.5,3.3-8.2,8.3-8.3c5.1-0.1,7.9,2.6,8.3,8.3v43c0-1.1,1.6-2.5,4.8-4.1c3.3-1.6,7-2.5,11.3-2.5c7.1,0,13.7,2.5,19.7,7.5
					c3.7,4.8,5.6,10.5,5.6,16.9v38.5H98.9z"/>
				<g>
					<path class="st4" d="M120.2,451.9c-0.8,4.8-3.9,7-9.1,6.7c-5.4-0.3-8.3-2.7-8.7-7v-63.8c1-5.4,3.9-8.1,8.8-7.9
						c4.8,0.1,7.9,2.5,9.1,7.3v64.7H120.2z"/>
					<circle class="st4" cx="110.9" cy="368.6" r="9.3"/>
				</g>
				<path class="st4" d="M190.8,451.1c-1,4.4-4.3,6.5-9.6,6.4c-5.3-0.1-8.2-2.3-8.5-6.5v-42.5c-1.2-2.1-3.1-3.9-5.9-5.5
					c-2.7-1.6-5.7-2.3-9-2.3c-2,0-3.9,0.3-5.7,0.8c-2.5,1-4.8,2.5-6.9,4c-2.1,1.6-3.5,3.3-4.4,4.8v40.5c-2,5.2-5.1,7.4-9.4,6.9
					c-4.3-0.5-6.8-2.9-7.3-6.9v-62.2c0.4-6.1,3.4-9.1,8.9-9.3c5.5-0.1,7.9,3,7.6,9.3v5c-1.4,1.2,0.3,0.1,5.3-3.3
					c5-3.4,10.6-5.1,16.5-5.1c7.8,0,14.3,2.1,19.4,6.1c5.1,4.2,8.2,9.6,9.1,16.8v42.9H190.8z"/>
				<path class="st4" d="M253,451.2c-1.1,4.2-4.1,6.4-8.7,6.6c-4.6,0.1-7.5-2-8.7-6.6v-36.7c-0.5-3.4-1.8-6.1-3.5-8.3
					c-1.8-2.2-4.4-3.1-7.8-3c-4.2,0.7-7.2,2-9,4.2c-1.9,2.2-3,4.8-3.5,8.1v35.8c-1.1,4.4-4.1,6.4-8.9,6.3s-7.5-2.3-8.1-6.3v-99.4
					c0.4-5.5,3.3-8.2,8.3-8.3c5.1-0.1,7.9,2.6,8.3,8.3v43c0-1.1,1.6-2.5,4.8-4.1c3.3-1.6,7-2.5,11.3-2.5c7.1,0,13.7,2.5,19.7,7.5
					c3.7,4.8,5.6,10.5,5.6,16.9v38.5H253z"/>
				<path class="st4" d="M387.4,393.3c0.4,0.5,0.6,1.1,0.8,1.7c1.2,5,0,8.6-3.5,10.4c-3.6,1.8-7.5,1.4-11.7-1.4
					c-0.4-0.3-0.7-0.6-1-0.9c-2.1-2.5-4.3-4.4-6.7-5.7c-2.6-1.4-5.5-2.1-8.8-2.1c-2.2,0-4,0.4-5.5,1.1c-1.4,0.7-2.3,1.7-2.6,2.8
					s-0.6,1.9-0.6,2.6c0,1.2,0.8,2.5,2.5,3.7c0.4,0.3,0.8,0.5,1.2,0.6l23.3,8.2c4.3,1.7,7.4,4.1,9.8,7.7c2.3,3.4,3.6,7.3,3.6,11.6
					c0,4.8-1.5,9.6-4.7,14.2c-3.1,4.4-7.2,7.4-12.5,8.7c-0.3,0.1-0.5,0.1-0.8,0.1c-1.9,0.1-4,0.4-5.9,0.7c-2.2,0.3-4.3,0.4-6.2,0.4
					c-6.5,0-12.5-1.1-18-3.2c-5.3-2-10.2-5.9-14.7-11.7c-0.3-0.4-0.6-0.9-0.8-1.5c-1.4-4.7-0.5-8.6,3-11.5c3.5-3,7.9-2.2,13.2,1.9
					c0.3,0.2,0.5,0.4,0.7,0.7c2.6,3.1,5.3,5.5,7.7,7.1c2.6,1.7,4.9,2.4,7.5,2.3c4.3,0,7.1-0.8,8.5-1.8c0.9-0.6,1.6-1.4,2.2-2.5
					c0.9-1.7,0.7-3.8-0.5-5.2c0,0,0,0,0,0c-1-1.2-2.2-2.1-4.1-2.8c-4.8-1.2-9.9-3.2-15.2-5.6c-5.1-2.4-9.6-4.8-13.5-7.3
					c-0.4-0.3-0.8-0.6-1.1-0.9c-3.4-4-5.2-8.4-5.2-13.2c0-7.6,2.6-13.1,7.9-16.7c5.2-3.6,9.6-5.6,13.4-6.3c3.6-0.7,7.8-1,12.5-1
					c0.2,0,0.4,0,0.6,0c6.1,0.6,10.9,2.1,14.7,4.4C380.5,385.1,384,388.6,387.4,393.3z"/>
				<path class="st4" d="M312.9,392.1c-6.9-8-15.1-12-24.5-12c-9.2,0-16.9,3.9-23.3,12.1c-6.4,8.2-9.7,17.5-9.7,28
					c0,11.3,3.4,20.4,9.9,27.5c6.5,6.9,14.6,10.4,23.8,10.4c9.2,0,17.1-3.4,23.8-10.4c6.8-6.9,10.2-16.1,10.2-27.3
					C323.2,409.5,319.6,400.1,312.9,392.1z M289.6,438.9c-8.5,0-15.3-9-15.3-20s6.9-20,15.3-20c8.5,0,15.3,9,15.3,20
					S298.1,438.9,289.6,438.9z"/>
			</g>
		</g>
	</g>
	<g>
		<g>
			<g>
				<path class="st5" d="M-182.4,399.5c-4.3-13.1-3.9-32.6-7.8-44c-12-9.7-28.3-16.7-44.7-16.7c-9.5,0-19.5,2.1-28.2,6
					c0,0.1-10.1,5.8-14.1,8.8c-4.7,10.9-3.9,32-8.6,45.9c-1.5,4.6-3.4,8.5-5.5,11.7c14.2,36.4,33,62.1,56.4,53.2
					c23.8,9,42.6-17.9,56.8-55.3C-179.8,406.3-181.2,403.1-182.4,399.5z"/>
				<path class="st5" d="M-263.1,344.3c-5.6-12.2-39-15.4-54.9,16.4c-8.8,17.6,0.9,59.3,15.4,58.3c6.9-0.5,12.9-8.1,16.7-19.6
					c4.7-14.2,3.8-35.8,8.8-46.5C-273.3,345-262.7,345.2-263.1,344.3z"/>
				<path class="st5" d="M-205.7,345.3c5.6-12.2,39.5-16.4,55.4,15.4c8.8,17.6-0.9,59.3-15.4,58.3c-6.9-0.5-12.9-8.1-16.7-19.6
					c-4.7-14.2-3.8-35.8-8.8-46.5C-195,345-206.1,346.2-205.7,345.3z"/>
				<line class="st5" x1="-234.9" y1="462.7" x2="-234.9" y2="429.6"/>
			</g>
			<g>
				<path class="st4" d="M-220.1,431.7c-0.2-1.7-7.5-6.3-14.8-6.3c-7.4,0-14.8,4.6-15,6.3c-0.5,3.4,10.3,16.7,14.7,16.7
					c0.1,0,0.2,0,0.2,0c0.1,0,0.2,0,0.2,0C-230.3,448.4-219.6,435.1-220.1,431.7z"/>
				<circle class="st4" cx="-262.3" cy="399.1" r="9.2"/>
				<circle class="st4" cx="-207.5" cy="399.2" r="9.2"/>
			</g>
		</g>
		<g>
			<g>
				<path class="st6" d="M-307,435.3c0,0-6.6,17.1-23.7,6.3"/>
				<path class="st6" d="M-307.2,435.3c0,0,6.6,17.1,23.7,6.3"/>
				<g>
					<path class="st5" d="M-288.4,405.9"/>
					<path class="st5" d="M-287,402.7"/>
					<path class="st5" d="M-287.7,404.4"/>
					<path class="st5" d="M-291.4,411.1c-3.2,4.7-7,7.6-11.1,7.9c-12.4,0.9-21.3-29.4-18.1-49.2h-6.3c0,0-18-31.4-21.2-33.8
						c-3.2-2.4-16.8,21.8-16.8,77.6c0,40.9,28.8,52.5,57.8,52.7c15.5,0.1,31.1,0.8,42.2-9.9C-275,446.7-283.9,430.4-291.4,411.1z"/>
				</g>
				<g>
					<line class="st7" x1="-394.6" y1="421.4" x2="-351.7" y2="418.6"/>
					<line class="st7" x1="-387.4" y1="442.6" x2="-351.7" y2="431.1"/>
				</g>
			</g>
			<g>
				<circle class="st4" cx="-333.6" cy="404" r="8"/>
				<g>
					<path class="st4" d="M-297.3,427.6c-0.2-5.1-19.4-5.1-19.6,0c-0.2,5,6.3,9.9,9.7,10c0,0,0,0,0,0c0,0,0,0,0,0c0,0,0,0,0,0
						c0,0,0,0,0,0C-303.5,437.4-297.1,432.6-297.3,427.6z"/>
				</g>
				<path class="st4" d="M-307.1,453.2C-307.1,453.2-307.1,453.2-307.1,453.2L-307.1,453.2c7,0,8.5-6.5,8.5-6.5l-8.5-9.5v-0.1l0,0
					l0,0v0.1l-8.5,9.5C-315.7,446.7-314.2,453.2-307.1,453.2"/>
			</g>
		</g>
	</g>
</g>
</svg>
