<svg id="Capa_1" xmlns="http://www.w3.org/2000/svg" viewBox="0 0 1024 1504.2"><style>.st0{fill:#fff}</style><path class="st0" d="M849.9 255.2c-40.9 0-74.2 44.6-74.2 99.5s33.3 99.5 74.2 99.5c40.9 0 74.2-44.7 74.2-99.5s-33.3-99.5-74.2-99.5zM630 158.4c1.5 2.1 3 4 3.8 5.7 16.6 35.5 62 77.3 135.7 78.4h2.8c72.5 0 117.6-39.6 135.7-76.7.6-1.3 2-2.9 3.4-4.7 1.7-2 3.4-4.1 4.9-6.4 15.2-23.7 23-50.4 21.9-75.2C937 53.2 926 32.1 907.3 20c-7.6-4.9-15.7-7.3-24.3-7.3-17.7 0-33.9 10-52.6 21.5-11.9 7.3-24.2 14.9-37.9 20.6-1.5.5-7.8 1.3-18.1 1.3-12.2 0-21-1.1-22.9-1.7-13.5-5.9-25.2-13.7-36.5-21.1C697.6 21.8 681.2 11 663.4 11c-7.6 0-15.1 2-22 6-38.6 21.9-45.9 82-16.4 134 1.4 2.6 3.2 5 5 7.4zM692.2 255.2c-40.9 0-74.1 44.6-74.1 99.5s33.3 99.5 74.1 99.5c40.9 0 74.2-44.7 74.2-99.5s-33.3-99.5-74.2-99.5zM570.4 306.3c32.8 0 58.4-34 58.4-77.4 0-43.4-25.7-77.4-58.4-77.4-32.8 0-58.4 34-58.4 77.4 0 43.4 25.7 77.4 58.4 77.4zM907.1 228.9c0 43.4 25.7 77.4 58.4 77.4 32.8 0 58.4-34 58.4-77.4 0-43.4-25.7-77.4-58.4-77.4s-58.4 34.1-58.4 77.4z"/><g><path class="st0" d="M337.9 768.5c-40.9 0-74.2 44.6-74.2 99.5s33.3 99.5 74.2 99.5c40.9 0 74.2-44.7 74.2-99.5 0-54.9-33.3-99.5-74.2-99.5zM118 671.7c1.5 2.1 3 4 3.8 5.7 16.6 35.5 62 77.3 135.7 78.4h2.8c72.5 0 117.6-39.6 135.7-76.7.6-1.3 2-2.9 3.4-4.7 1.7-2 3.4-4.1 4.9-6.4 15.2-23.7 23-50.4 21.9-75.2-1.2-26.3-12.2-47.4-30.9-59.5-7.6-4.9-15.7-7.3-24.3-7.3-17.7 0-33.9 10-52.6 21.5-11.9 7.3-24.2 14.9-37.9 20.6-1.5.5-7.8 1.3-18.1 1.3-12.2 0-21-1.1-22.9-1.7-13.4-5.9-25.1-13.6-36.4-21.1-17.4-11.5-33.8-22.3-51.6-22.3-7.6 0-15.1 2-22 6-38.6 21.9-45.9 82-16.4 134 1.3 2.5 3.1 5 4.9 7.4zM180.2 768.5c-40.9 0-74.1 44.6-74.1 99.5s33.3 99.5 74.1 99.5c40.9 0 74.2-44.7 74.2-99.5 0-54.9-33.3-99.5-74.2-99.5zM58.4 819.6c32.8 0 58.4-34 58.4-77.4 0-43.4-25.7-77.4-58.4-77.4-32.8 0-58.4 34-58.4 77.4 0 43.4 25.7 77.4 58.4 77.4zM395.1 742.2c0 43.4 25.7 77.4 58.4 77.4 32.8 0 58.4-34 58.4-77.4 0-43.4-25.7-77.4-58.4-77.4s-58.4 34-58.4 77.4z"/></g><g><path class="st0" d="M849.9 1281.7c-40.9 0-74.2 44.6-74.2 99.5s33.3 99.5 74.2 99.5c40.9 0 74.2-44.7 74.2-99.5s-33.3-99.5-74.2-99.5zM630 1184.9c1.5 2.1 3 4 3.8 5.7 16.6 35.5 62 77.3 135.7 78.4h2.8c72.5 0 117.6-39.6 135.7-76.7.6-1.3 2-2.9 3.4-4.7 1.7-2 3.4-4.1 4.9-6.4 15.2-23.7 23-50.4 21.9-75.2-1.2-26.3-12.2-47.4-30.9-59.5-7.6-4.9-15.7-7.3-24.3-7.3-17.7 0-33.9 10-52.6 21.5-11.9 7.3-24.2 14.9-37.9 20.6-1.5.5-7.8 1.3-18.1 1.3-12.2 0-21-1.1-22.9-1.7-13.4-5.9-25.1-13.6-36.4-21.1-17.4-11.5-33.8-22.3-51.6-22.3-7.6 0-15.1 2-22 6-38.6 21.9-45.9 82-16.4 134 1.3 2.6 3.1 5 4.9 7.4zM692.2 1281.7c-40.9 0-74.1 44.6-74.1 99.5s33.3 99.5 74.1 99.5c40.9 0 74.2-44.7 74.2-99.5s-33.3-99.5-74.2-99.5zM570.4 1332.8c32.8 0 58.4-34 58.4-77.4 0-43.4-25.7-77.4-58.4-77.4-32.8 0-58.4 34-58.4 77.4 0 43.4 25.7 77.4 58.4 77.4zM907.1 1255.4c0 43.4 25.7 77.4 58.4 77.4 32.8 0 58.4-34 58.4-77.4 0-43.4-25.7-77.4-58.4-77.4s-58.4 34.1-58.4 77.4z"/></g></svg>