<?xml version="1.0" encoding="utf-8"?>
<!-- Generator: Adobe Illustrator 21.0.2, SVG Export Plug-In . SVG Version: 6.00 Build 0)  -->
<svg version="1.1" id="Capa_1" xmlns="http://www.w3.org/2000/svg" xmlns:xlink="http://www.w3.org/1999/xlink" x="0px" y="0px"
	 viewBox="0 0 1024 1504.2" style="enable-background:new 0 0 1024 1504.2;" xml:space="preserve">
<style type="text/css">
	.st0{fill:#FFFFFF;}
</style>
<g>
	<g>
		<path class="st0" d="M849.9,255.2c-40.9,0-74.2,44.6-74.2,99.5c0,54.9,33.3,99.5,74.2,99.5c40.9,0,74.2-44.7,74.2-99.5
			C924.1,299.9,890.8,255.2,849.9,255.2z"/>
		<path class="st0" d="M630,158.4c1.5,2.1,3,4,3.8,5.7c16.6,35.5,62,77.3,135.7,78.4l2.8,0c72.5,0,117.6-39.6,135.7-76.7
			c0.6-1.3,2-2.9,3.4-4.7c1.7-2,3.4-4.1,4.9-6.4c15.2-23.7,23-50.4,21.9-75.2c-1.2-26.3-12.2-47.4-30.9-59.5
			c-7.6-4.9-15.7-7.3-24.3-7.3c-17.7,0-33.9,10-52.6,21.5c-11.9,7.3-24.2,14.9-37.9,20.6c-1.5,0.5-7.8,1.3-18.1,1.3
			c-12.2,0-21-1.1-22.9-1.7C738,48.5,726.3,40.7,715,33.3C697.6,21.8,681.2,11,663.4,11c-7.6,0-15.1,2-22,6
			c-38.6,21.9-45.9,82-16.4,134C626.4,153.6,628.2,156,630,158.4z"/>
		<path class="st0" d="M692.2,255.2c-40.9,0-74.1,44.6-74.1,99.5c0,54.9,33.3,99.5,74.1,99.5c40.9,0,74.2-44.7,74.2-99.5
			C766.4,299.9,733.1,255.2,692.2,255.2z"/>
		<path class="st0" d="M570.4,306.3c32.8,0,58.4-34,58.4-77.4c0-43.4-25.7-77.4-58.4-77.4c-32.8,0-58.4,34-58.4,77.4
			C512,272.3,537.7,306.3,570.4,306.3z"/>
		<path class="st0" d="M907.1,228.9c0,43.4,25.7,77.4,58.4,77.4c32.8,0,58.4-34,58.4-77.4c0-43.4-25.7-77.4-58.4-77.4
			S907.1,185.6,907.1,228.9z"/>
	</g>
</g>
<g>
	<g>
		<path class="st0" d="M337.9,768.5c-40.9,0-74.2,44.6-74.2,99.5c0,54.9,33.3,99.5,74.2,99.5c40.9,0,74.2-44.7,74.2-99.5
			C412.1,813.1,378.8,768.5,337.9,768.5z"/>
		<path class="st0" d="M118,671.7c1.5,2.1,3,4,3.8,5.7c16.6,35.5,62,77.3,135.7,78.4l2.8,0c72.5,0,117.6-39.6,135.7-76.7
			c0.6-1.3,2-2.9,3.4-4.7c1.7-2,3.4-4.1,4.9-6.4c15.2-23.7,23-50.4,21.9-75.2c-1.2-26.3-12.2-47.4-30.9-59.5
			c-7.6-4.9-15.7-7.3-24.3-7.3c-17.7,0-33.9,10-52.6,21.5c-11.9,7.3-24.2,14.9-37.9,20.6c-1.5,0.5-7.8,1.3-18.1,1.3
			c-12.2,0-21-1.1-22.9-1.7c-13.4-5.9-25.1-13.6-36.4-21.1c-17.4-11.5-33.8-22.3-51.6-22.3c-7.6,0-15.1,2-22,6
			c-38.6,21.9-45.9,82-16.4,134C114.4,666.8,116.2,669.3,118,671.7z"/>
		<path class="st0" d="M180.2,768.5c-40.9,0-74.1,44.6-74.1,99.5c0,54.9,33.3,99.5,74.1,99.5c40.9,0,74.2-44.7,74.2-99.5
			C254.4,813.1,221.1,768.5,180.2,768.5z"/>
		<path class="st0" d="M58.4,819.6c32.8,0,58.4-34,58.4-77.4c0-43.4-25.7-77.4-58.4-77.4c-32.8,0-58.4,34-58.4,77.4
			C0,785.6,25.7,819.6,58.4,819.6z"/>
		<path class="st0" d="M395.1,742.2c0,43.4,25.7,77.4,58.4,77.4c32.8,0,58.4-34,58.4-77.4c0-43.4-25.7-77.4-58.4-77.4
			S395.1,698.8,395.1,742.2z"/>
	</g>
</g>
<g>
	<g>
		<path class="st0" d="M849.9,1281.7c-40.9,0-74.2,44.6-74.2,99.5c0,54.9,33.3,99.5,74.2,99.5c40.9,0,74.2-44.7,74.2-99.5
			C924.1,1326.4,890.8,1281.7,849.9,1281.7z"/>
		<path class="st0" d="M630,1184.9c1.5,2.1,3,4,3.8,5.7c16.6,35.5,62,77.3,135.7,78.4l2.8,0c72.5,0,117.6-39.6,135.7-76.7
			c0.6-1.3,2-2.9,3.4-4.7c1.7-2,3.4-4.1,4.9-6.4c15.2-23.7,23-50.4,21.9-75.2c-1.2-26.3-12.2-47.4-30.9-59.5
			c-7.6-4.9-15.7-7.3-24.3-7.3c-17.7,0-33.9,10-52.6,21.5c-11.9,7.3-24.2,14.9-37.9,20.6c-1.5,0.5-7.8,1.3-18.1,1.3
			c-12.2,0-21-1.1-22.9-1.7c-13.4-5.9-25.1-13.6-36.4-21.1c-17.4-11.5-33.8-22.3-51.6-22.3c-7.6,0-15.1,2-22,6
			c-38.6,21.9-45.9,82-16.4,134C626.4,1180.1,628.2,1182.5,630,1184.9z"/>
		<path class="st0" d="M692.2,1281.7c-40.9,0-74.1,44.6-74.1,99.5c0,54.9,33.3,99.5,74.1,99.5c40.9,0,74.2-44.7,74.2-99.5
			C766.4,1326.4,733.1,1281.7,692.2,1281.7z"/>
		<path class="st0" d="M570.4,1332.8c32.8,0,58.4-34,58.4-77.4c0-43.4-25.7-77.4-58.4-77.4c-32.8,0-58.4,34-58.4,77.4
			C512,1298.8,537.7,1332.8,570.4,1332.8z"/>
		<path class="st0" d="M907.1,1255.4c0,43.4,25.7,77.4,58.4,77.4c32.8,0,58.4-34,58.4-77.4c0-43.4-25.7-77.4-58.4-77.4
			S907.1,1212.1,907.1,1255.4z"/>
	</g>
</g>
</svg>
