<?xml version="1.0" encoding="utf-8"?>
<!-- Generator: Adobe Illustrator 16.0.0, SVG Export Plug-In . SVG Version: 6.00 Build 0)  -->
<!DOCTYPE svg PUBLIC "-//W3C//DTD SVG 1.1//EN" "http://www.w3.org/Graphics/SVG/1.1/DTD/svg11.dtd">
<svg version="1.1" id="_x32_1.5-inch_iMac" xmlns="http://www.w3.org/2000/svg" xmlns:xlink="http://www.w3.org/1999/xlink" x="0px"
	 y="0px" width="50px" height="50px" viewBox="0 0 50 50" enable-background="new 0 0 50 50" xml:space="preserve">
<g>
	<rect x="14.626" y="14.456" fill="#F0F1F2" width="31.021" height="19.762"/>
	<g>
		<g>
			<defs>
				<rect id="SVGID_1_" x="14.66" y="14.456" width="31.02" height="19.762"/>
			</defs>
			<clipPath id="SVGID_2_">
				<use xlink:href="#SVGID_1_"  overflow="visible"/>
			</clipPath>
			<g clip-path="url(#SVGID_2_)">
				<g>
					<rect x="19.184" y="20.749" fill="#FFFFFF" width="7.041" height="12.006"/>
					<g>
						<rect x="19.32" y="22.959" fill="#52E892" width="6.803" height="7.449"/>
						<g>
							<circle opacity="0.3" fill="#DBDCDD" enable-background="new    " cx="20.272" cy="21.871" r="0.646"/>
							<rect x="21.258" y="21.701" opacity="0.3" fill="#C1C1C1" enable-background="new    " width="4.218" height="0.34"/>
							<rect x="19.66" y="30.816" opacity="0.3" fill="#DBDCDD" enable-background="new    " width="4.83" height="0.408"/>
							<rect x="25.204" y="30.816" opacity="0.3" fill="#DBDCDD" enable-background="new    " width="0.476" height="0.477"/>
						</g>
						<g>
							<path fill="#575656" d="M23.197,27.959c0,0,1.292,0,1.292,0.646s0,1.293,0,1.293S23.197,28.299,23.197,27.959z"/>
							<g>
								<path fill="#575656" d="M22.619,26.871c-0.918-0.068-0.749,0.782-0.749,0.782v1.7h1.19c0.612,0,0.714-0.204,0.714-0.611
									C23.742,28.163,23.538,26.904,22.619,26.871z"/>
								<path fill="#838F92" d="M22.075,29.354C22.075,29.354,22.075,29.32,22.075,29.354v-1.7c0-0.204,0.17-0.341,0.34-0.341
									c0.204,0,0.34,0.17,0.34,0.341v1.36c0,0.136,0,0.238,0,0.34h0.646v-2.449c0-0.441-0.442-0.952-0.884-0.952h0.068
									c-0.646,0-1.156,0.442-1.156,1.089v2.279h0.646V29.354z"/>
								<path fill="#AFBFC2" d="M22.007,29.354c0.068,0,0.102-0.068,0.068-0.102c-0.034-0.17-0.204-0.272-0.374-0.272
									s-0.34,0.103-0.374,0.272c0,0.068,0.034,0.102,0.068,0.102H22.007z"/>
								<path fill="#AFBFC2" d="M23.469,29.354c0.034,0,0.068-0.033,0.068-0.068c-0.034-0.17-0.204-0.306-0.375-0.306
									c-0.17,0-0.34,0.136-0.374,0.306c0,0.035,0.034,0.068,0.068,0.068H23.469z"/>
								<path fill="#AFBFC2" d="M23.844,25.068c0,0.68-0.681,1.701-1.463,1.701s-1.36-1.021-1.36-1.701v-0.102
									c0-0.68,0.612-1.088,1.429-1.088l0,0c0.782,0,1.428,0.408,1.428,1.088v0.102H23.844z"/>
								<path fill="#F3A5AE" d="M22.177,25.986v0.816c0,0.137,0.136,0.271,0.272,0.271l0,0c0.136,0,0.238-0.135,0.238-0.271v-0.816
									H22.177z"/>
								<path fill="#FFFFFF" d="M23.129,25.952c-0.034-0.102-0.102-0.237-0.17-0.306c-0.17-0.137-0.272-0.306-0.272-0.477
									c-0.068-0.476-0.17-1.326-0.17-1.326h-0.17l-0.136,1.292c-0.034,0.17-0.102,0.34-0.238,0.442
									c-0.136,0.102-0.204,0.204-0.238,0.34c-0.068,0.272,0.306,0.477,0.714,0.477C22.857,26.395,23.163,26.225,23.129,25.952z"/>
								<path fill="#11201C" d="M22.415,25.68L22.415,25.68L22.415,25.68L22.415,25.68L22.415,25.68
									c-0.306,0-0.51,0.137-0.374,0.307c0.306,0.374,0.544,0.17,0.714,0C22.959,25.816,22.721,25.68,22.415,25.68z"/>
								<path fill="#AFBFC2" d="M21.225,24.592c0,0-0.034-1.258,0.17-1.327c0.204-0.068,0.612,0.714,0.612,0.714L21.225,24.592z"/>
								<path fill="#AFBFC2" d="M23.538,24.592c0,0,0.034-1.258-0.17-1.327c-0.204-0.068-0.612,0.714-0.612,0.714L23.538,24.592z"/>
								<path fill="#FFD4BC" d="M22.959,23.979l0.238-0.34c0.034-0.034,0.068,0,0.068,0.034l0.034,0.476L22.959,23.979z"/>
								<path fill="#FFD4BC" d="M21.837,24.014l-0.272-0.306c-0.034-0.034-0.068,0-0.068,0.034l-0.034,0.476L21.837,24.014z"/>
								<ellipse fill="#11201C" cx="23.095" cy="25.034" rx="0.102" ry="0.136"/>
								<ellipse fill="#11201C" cx="21.735" cy="25.034" rx="0.102" ry="0.136"/>
							</g>
						</g>
					</g>
					<g>
						<g opacity="0.3">
							<rect x="19.66" y="31.973" fill="#DBDCDD" width="0.646" height="0.34"/>
						</g>
						<g opacity="0.3">
							<rect x="21.462" y="31.973" fill="#DBDCDD" width="0.646" height="0.34"/>
						</g>
						<g>
							<rect x="23.163" y="31.973" opacity="0.3" fill="#DBDCDD" enable-background="new    " width="0.646" height="0.34"/>
						</g>
						<g>
							<rect x="24.864" y="31.973" opacity="0.3" fill="#DBDCDD" enable-background="new    " width="0.646" height="0.34"/>
						</g>
					</g>
				</g>
				<g>
					<rect x="26.666" y="20.749" fill="#FFFFFF" width="7.041" height="12.006"/>
					<g>
						<rect x="26.803" y="22.959" fill="#63AFC6" width="6.803" height="7.449"/>
						<g>
							<circle opacity="0.3" fill="#DBDCDD" enable-background="new    " cx="27.755" cy="21.871" r="0.646"/>
							<rect x="28.742" y="21.701" opacity="0.3" fill="#C1C1C1" enable-background="new    " width="4.217" height="0.34"/>
							<rect x="27.143" y="30.816" opacity="0.3" fill="#DBDCDD" enable-background="new    " width="4.83" height="0.408"/>
							<rect x="32.688" y="30.816" opacity="0.3" fill="#DBDCDD" enable-background="new    " width="0.476" height="0.477"/>
						</g>
						<g display="none">
							<path display="inline" fill="#575656" d="M30.68,27.959c0,0,1.293,0,1.293,0.646s0,1.293,0,1.293S30.68,28.299,30.68,27.959z
								"/>
							<g display="inline">
								<path fill="#575656" d="M30.102,26.871c-0.918-0.068-0.748,0.782-0.748,0.782v1.7h1.191c0.611,0,0.713-0.204,0.713-0.611
									C31.225,28.163,31.021,26.904,30.102,26.871z"/>
								<path fill="#838F92" d="M29.558,29.354C29.558,29.354,29.558,29.32,29.558,29.354v-1.7c0-0.204,0.171-0.341,0.341-0.341
									c0.203,0,0.34,0.17,0.34,0.341v1.36c0,0.136,0,0.238,0,0.34h0.646v-2.449c0-0.441-0.442-0.952-0.885-0.952h0.068
									c-0.646,0-1.156,0.442-1.156,1.089v2.279h0.646V29.354z"/>
								<path fill="#AFBFC2" d="M29.49,29.354c0.067,0,0.102-0.068,0.067-0.102c-0.034-0.17-0.204-0.272-0.374-0.272
									s-0.34,0.103-0.374,0.272c0,0.068,0.034,0.102,0.067,0.102H29.49z"/>
								<path fill="#AFBFC2" d="M30.952,29.354c0.034,0,0.068-0.033,0.068-0.068c-0.034-0.17-0.204-0.306-0.374-0.306
									s-0.34,0.136-0.375,0.306c0,0.035,0.035,0.068,0.068,0.068H30.952z"/>
								<path fill="#AFBFC2" d="M31.326,25.068c0,0.68-0.68,1.701-1.463,1.701c-0.781,0-1.359-1.021-1.359-1.701v-0.102
									c0-0.68,0.611-1.088,1.428-1.088l0,0c0.783,0,1.429,0.408,1.429,1.088v0.102H31.326z"/>
								<path fill="#F3A5AE" d="M29.66,25.986v0.816c0,0.137,0.136,0.271,0.271,0.271l0,0c0.137,0,0.238-0.135,0.238-0.271v-0.816
									H29.66z"/>
								<path fill="#FFFFFF" d="M30.612,25.952c-0.034-0.102-0.103-0.237-0.17-0.306c-0.171-0.137-0.272-0.306-0.272-0.477
									C30.102,24.694,30,23.844,30,23.844h-0.17l-0.137,1.292c-0.033,0.17-0.102,0.34-0.238,0.442
									c-0.135,0.102-0.203,0.204-0.237,0.34c-0.068,0.272,0.306,0.477,0.714,0.477S30.646,26.225,30.612,25.952z"/>
								<path fill="#11201C" d="M29.898,25.68L29.898,25.68L29.898,25.68L29.898,25.68L29.898,25.68
									c-0.307,0-0.511,0.137-0.375,0.307c0.307,0.374,0.545,0.17,0.715,0C30.442,25.816,30.204,25.68,29.898,25.68z"/>
								<path fill="#AFBFC2" d="M28.707,24.592c0,0-0.033-1.258,0.17-1.327c0.205-0.068,0.613,0.714,0.613,0.714L28.707,24.592z"/>
								<path fill="#AFBFC2" d="M31.021,24.592c0,0,0.034-1.258-0.17-1.327c-0.204-0.068-0.612,0.714-0.612,0.714L31.021,24.592z"/>
								<path fill="#FFD4BC" d="M30.442,23.979l0.237-0.34c0.035-0.034,0.068,0,0.068,0.034l0.034,0.476L30.442,23.979z"/>
								<path fill="#FFD4BC" d="M29.32,24.014l-0.272-0.306c-0.034-0.034-0.068,0-0.068,0.034l-0.034,0.476L29.32,24.014z"/>
								<ellipse fill="#11201C" cx="30.578" cy="25.034" rx="0.102" ry="0.136"/>
								<ellipse fill="#11201C" cx="29.218" cy="25.034" rx="0.103" ry="0.136"/>
							</g>
						</g>
						<g>
							<g>
								<path fill="#D07422" d="M29.729,29.115c-0.171-0.102-0.273-0.17-0.375-0.271s-0.204-0.204-0.271-0.34
									c-0.137-0.238-0.238-0.477-0.272-0.749c0.136,0.204,0.306,0.374,0.511,0.511c0.102,0.068,0.203,0.102,0.306,0.136
									s0.237,0.067,0.272,0.067L29.729,29.115z"/>
							</g>
							<path fill="#9C571A" d="M29.762,27.381l0.851,0.612v1.292h-0.749c-0.373,0-0.611-0.067-0.611-0.34
								C29.252,28.571,29.523,27.585,29.762,27.381z"/>
							<path fill="#D48B4D" d="M30.51,29.285L30.51,29.285v-1.122c0-0.136-0.102-0.204-0.238-0.204
								c-0.135,0-0.237,0.102-0.237,0.238v0.885c0,0.102,0,0.17,0,0.203h-0.408v-2.108h0.544c0.408,0,0.748,0.341,0.748,0.749v1.359
								H30.51z"/>
							<path fill="#FFE2D1" d="M30.545,29.285c-0.035,0-0.068-0.033-0.035-0.067c0.035-0.103,0.137-0.17,0.238-0.17
								c0.103,0,0.204,0.067,0.238,0.17c0,0.034,0,0.067-0.034,0.067H30.545z"/>
							<path fill="#FFE2D1" d="M29.626,29.285c-0.034,0-0.034,0-0.034-0.033c0.034-0.103,0.137-0.204,0.238-0.204
								c0.136,0,0.204,0.102,0.238,0.204c0,0.033,0,0.033-0.034,0.033H29.626z"/>
							<g>
								<path fill="#D48B4D" d="M29.115,26.021c0,0-0.373-0.034-0.611-0.374c-0.17-0.238-0.205-0.579-0.137-0.987l0.034-0.136
									l0.136-0.034c0,0,0.103-0.034,0.238-0.034c0.578,0,0.885,0.306,0.885,0.85v0.068l-0.477,0.612L29.115,26.021z"/>
								<path fill="#FFD4BC" d="M29.115,25.816c0,0-0.781-0.068-0.544-1.088c0,0,0.919-0.204,0.919,0.646L29.115,25.816z"/>
								<path fill="#D48B4D" d="M31.429,26.021c0,0,0.374-0.034,0.612-0.374c0.17-0.238,0.204-0.579,0.136-0.987l-0.034-0.136
									l-0.136-0.034c0,0-0.136-0.034-0.272-0.034c-0.578,0-0.918,0.306-0.918,0.85v0.068l0.51,0.612L31.429,26.021z"/>
								<path fill="#FFD4BC" d="M31.429,25.816c0,0,0.782-0.068,0.544-1.088c0,0-0.918-0.204-0.918,0.646L31.429,25.816z"/>
								<path fill="#D48B4D" d="M28.877,26.123c0,0.646,0.646,1.564,1.395,1.564c0.749,0,1.327-0.953,1.327-1.564v-0.103
									c0-0.646-0.578-1.021-1.36-1.021l0,0c-0.748,0-1.361,0.374-1.361,1.021V26.123z"/>
								<path fill="#FFE2D1" d="M29.218,27.041c0.272,0.374,0.646,0.646,1.089,0.646c0.441,0,0.816-0.307,1.054-0.715l-0.374-0.307
									c-0.408-0.306-0.952-0.306-1.326,0L29.218,27.041z"/>
								<ellipse fill="#5A2A00" cx="30.885" cy="26.225" rx="0.136" ry="0.204"/>
								<ellipse fill="#5A2A00" cx="29.729" cy="26.225" rx="0.135" ry="0.204"/>
								<path fill="#FFE2D1" d="M30.307,27.041L30.307,27.041c-0.103,0-0.17-0.068-0.17-0.17V25.68c0-0.102,0.067-0.17,0.17-0.17
									l0,0c0.102,0,0.17,0.068,0.17,0.17v1.191C30.442,26.973,30.374,27.041,30.307,27.041z"/>
								<path fill="#11201C" d="M30.307,26.769L30.307,26.769L30.307,26.769L30.307,26.769L30.307,26.769
									c0.203,0,0.373,0.068,0.271,0.238c-0.136,0.306-0.408,0.306-0.51,0C30,26.837,30.137,26.769,30.307,26.769z"/>
							</g>
							<path fill="#F3A5AE" d="M30.17,27.381v0.238c0,0.102,0.102,0.204,0.204,0.204l0,0c0.103,0,0.171-0.103,0.171-0.204v-0.204
								H30.17V27.381z"/>
						</g>
					</g>
					<g>
						<g opacity="0.3">
							<rect x="27.143" y="31.973" fill="#DBDCDD" width="0.646" height="0.34"/>
						</g>
						<g>
							<rect x="28.945" y="31.973" opacity="0.3" fill="#DBDCDD" enable-background="new    " width="0.646" height="0.34"/>
						</g>
						<g opacity="0.3">
							<rect x="30.646" y="31.973" fill="#DBDCDD" width="0.646" height="0.34"/>
						</g>
						<g>
							<rect x="32.348" y="31.973" opacity="0.3" fill="#DBDCDD" enable-background="new    " width="0.646" height="0.34"/>
						</g>
					</g>
				</g>
				<g>
					<rect x="34.149" y="20.749" fill="#FFFFFF" width="7.041" height="12.006"/>
					<g>
						<rect x="34.285" y="22.959" fill="#EAD168" width="6.803" height="7.449"/>
						<g opacity="0.3">
							<circle fill="#DBDCDD" cx="35.238" cy="21.871" r="0.646"/>
							<rect x="36.225" y="21.701" fill="#C1C1C1" width="4.218" height="0.34"/>
							<rect x="34.626" y="30.816" fill="#DBDCDD" width="4.829" height="0.408"/>
							<rect x="40.17" y="30.816" fill="#DBDCDD" width="0.477" height="0.477"/>
						</g>
						<g display="none">
							<path display="inline" fill="#575656" d="M38.163,27.959c0,0,1.292,0,1.292,0.646s0,1.293,0,1.293
								S38.163,28.299,38.163,27.959z"/>
							<g display="inline">
								<path fill="#575656" d="M37.585,26.871c-0.919-0.068-0.748,0.782-0.748,0.782v1.7h1.19c0.612,0,0.715-0.204,0.715-0.611
									C38.707,28.163,38.504,26.904,37.585,26.871z"/>
								<path fill="#838F92" d="M37.041,29.354C37.041,29.354,37.041,29.32,37.041,29.354v-1.7c0-0.204,0.17-0.341,0.34-0.341
									c0.204,0,0.34,0.17,0.34,0.341v1.36c0,0.136,0,0.238,0,0.34h0.646v-2.449c0-0.441-0.441-0.952-0.885-0.952h0.068
									c-0.646,0-1.156,0.442-1.156,1.089v2.279h0.646V29.354z"/>
								<path fill="#AFBFC2" d="M36.973,29.354c0.068,0,0.102-0.068,0.068-0.102c-0.034-0.17-0.204-0.272-0.375-0.272
									c-0.17,0-0.34,0.103-0.373,0.272c0,0.068,0.033,0.102,0.067,0.102H36.973z"/>
								<path fill="#AFBFC2" d="M38.436,29.354c0.033,0,0.068-0.033,0.068-0.068c-0.035-0.17-0.205-0.306-0.375-0.306
									s-0.34,0.136-0.374,0.306c0,0.035,0.034,0.068,0.068,0.068H38.436z"/>
								<path fill="#AFBFC2" d="M38.81,25.068c0,0.68-0.681,1.701-1.462,1.701c-0.783,0-1.361-1.021-1.361-1.701v-0.102
									c0-0.68,0.612-1.088,1.429-1.088l0,0c0.782,0,1.429,0.408,1.429,1.088v0.102H38.81z"/>
								<path fill="#F3A5AE" d="M37.143,25.986v0.816c0,0.137,0.137,0.271,0.272,0.271l0,0c0.136,0,0.237-0.135,0.237-0.271v-0.816
									H37.143z"/>
								<path fill="#FFFFFF" d="M38.096,25.952c-0.035-0.102-0.103-0.237-0.17-0.306c-0.137-0.137-0.238-0.272-0.238-0.477
									c-0.068-0.476-0.17-1.326-0.17-1.326h-0.17l-0.137,1.292c-0.034,0.17-0.102,0.34-0.238,0.442
									c-0.136,0.102-0.204,0.204-0.238,0.34c-0.068,0.272,0.307,0.477,0.715,0.477S38.129,26.225,38.096,25.952z"/>
								<path fill="#11201C" d="M37.381,25.68L37.381,25.68L37.381,25.68L37.381,25.68L37.381,25.68
									c-0.307,0-0.51,0.137-0.374,0.307c0.306,0.374,0.544,0.17,0.714,0C37.926,25.816,37.688,25.68,37.381,25.68z"/>
								<path fill="#AFBFC2" d="M36.19,24.592c0,0-0.034-1.258,0.17-1.327c0.204-0.068,0.612,0.714,0.612,0.714L36.19,24.592z"/>
								<path fill="#AFBFC2" d="M38.504,24.592c0,0,0.033-1.258-0.17-1.327c-0.205-0.068-0.613,0.714-0.613,0.714L38.504,24.592z"/>
								<path fill="#FFD4BC" d="M37.926,23.979l0.237-0.34c0.034-0.034,0.068,0,0.068,0.034l0.034,0.476L37.926,23.979z"/>
								<path fill="#FFD4BC" d="M36.803,24.014l-0.271-0.306c-0.035-0.034-0.068,0-0.068,0.034l-0.034,0.476L36.803,24.014z"/>
								<ellipse fill="#11201C" cx="38.061" cy="25.034" rx="0.103" ry="0.136"/>
								<ellipse fill="#11201C" cx="36.701" cy="25.034" rx="0.102" ry="0.136"/>
							</g>
						</g>
						<g>
							<g>
								<path fill="#D07422" d="M38.571,28.707c0.068,0,0.136-0.033,0.204-0.067s0.137-0.068,0.204-0.103
									c0.136-0.102,0.238-0.203,0.306-0.34c-0.033,0.17-0.102,0.34-0.203,0.477c-0.034,0.068-0.103,0.136-0.17,0.203
									c-0.068,0.068-0.137,0.103-0.238,0.171L38.571,28.707z"/>
							</g>
							<path fill="#754114" d="M37.959,27.245c-0.85-0.068-0.68,0.714-0.68,0.714v1.531h1.055c0.543,0,0.646-0.17,0.646-0.545
								C39.014,28.436,38.81,27.279,37.959,27.245z"/>
							<path fill="#9C571A" d="M37.449,29.456C37.449,29.456,37.449,29.422,37.449,29.456v-1.429c0-0.17,0.136-0.307,0.306-0.307
								c0.171,0,0.306,0.137,0.306,0.307v1.122c0,0.136,0,0.204,0,0.307h0.579v-1.938c0-0.408-0.408-0.852-0.816-0.852h0.067
								c-0.578,0-1.054,0.477-1.054,1.055v1.734L37.449,29.456L37.449,29.456z"/>
							<path fill="#D48B4D" d="M37.381,29.49c0.034,0,0.102-0.034,0.068-0.103c-0.034-0.136-0.17-0.238-0.34-0.238
								s-0.307,0.103-0.341,0.238c0,0.034,0.034,0.103,0.068,0.103H37.381z"/>
							<path fill="#D48B4D" d="M38.775,29.49c0.034,0,0.068-0.034,0.068-0.068c-0.034-0.17-0.17-0.272-0.34-0.272
								s-0.307,0.136-0.341,0.272c0,0.034,0.034,0.068,0.068,0.068H38.775z"/>
							<path fill="#D48B4D" d="M36.496,26.258c0-0.543,0.613-1.394,1.327-1.394s1.259,0.851,1.259,1.394v0.103
								c0,0.544-0.578,0.919-1.293,0.919l0,0c-0.715,0-1.293-0.34-1.293-0.919V26.258z"/>
							<path fill="#FFE2D1" d="M36.531,26.395c0.033,0.545,0.476,0.851,1.258,0.851c0.68,0,1.293-0.306,1.293-0.851H38.64
								c-0.238,0-0.477-0.17-0.511-0.408l-0.271-1.123l-0.375,1.157c-0.067,0.204-0.271,0.374-0.51,0.374H36.531z"/>
							<ellipse fill="#FFFFFF" cx="37.789" cy="26.735" rx="0.68" ry="0.51"/>
							<path fill="#11201C" d="M37.789,26.429L37.789,26.429C37.789,26.429,37.755,26.429,37.789,26.429c-0.034,0,0,0-0.034,0l0,0
								c-0.237,0-0.374,0.103-0.272,0.237c0.238,0.307,0.443,0.137,0.578,0C38.197,26.564,38.027,26.429,37.789,26.429z"/>
							<path fill="#9C571A" d="M37.348,25.034c0,0-0.137-0.17-0.545,0c-0.408,0.17-0.477,0.612-0.51,0.952
								c-0.068,0.477-0.511,1.123,0.271,0.986C37.312,26.803,36.293,25.374,37.348,25.034z"/>
							<path fill="#9C571A" d="M38.367,25.034c0,0,0.137-0.17,0.545,0.034s0.408,0.647,0.441,0.987c0,0.477,0.375,1.156-0.34,0.952
								C38.266,26.803,39.388,25.612,38.367,25.034z"/>
							<path fill="#F3A5AE" d="M37.585,27.041v0.271c0,0.137,0.103,0.238,0.238,0.238l0,0c0.136,0,0.237-0.102,0.237-0.238v-0.271
								H37.585z"/>
							<ellipse fill="#5A2A00" cx="38.266" cy="25.952" rx="0.102" ry="0.136"/>
							<ellipse fill="#5A2A00" cx="37.245" cy="25.952" rx="0.103" ry="0.136"/>
						</g>
					</g>
					<g opacity="0.3">
						<g>
							<rect x="34.626" y="31.973" fill="#DBDCDD" width="0.646" height="0.34"/>
						</g>
						<g>
							<rect x="36.429" y="31.973" fill="#DBDCDD" width="0.646" height="0.34"/>
						</g>
						<g>
							<rect x="38.129" y="31.973" fill="#DBDCDD" width="0.646" height="0.34"/>
						</g>
						<g>
							<rect x="39.83" y="31.973" fill="#DBDCDD" width="0.646" height="0.34"/>
						</g>
					</g>
				</g>
			</g>
		</g>
	</g>
	<rect x="14.694" y="14.286" fill="none" width="30.613" height="18.708"/>
	<g display="none">
		<path display="inline" fill="#52E892" d="M14.66,30.646c0.034-0.068,30.647,0,30.647,0v3.367H14.694L14.66,30.646z"/>
		<path display="inline" fill="#F3A5AE" d="M21.36,28.571c-0.306-0.17-0.544,0.103-0.544,0.341c0-0.238-0.272-0.511-0.544-0.341
			c-0.408,0.238,0,0.919,0.544,1.122C21.36,29.456,21.735,28.775,21.36,28.571z"/>
		<path display="inline" fill="#F3A5AE" d="M41.021,23.844c-0.272-0.136-0.476,0.102-0.476,0.306c0-0.204-0.238-0.442-0.477-0.306
			c-0.34,0.204,0,0.816,0.477,0.986C41.021,24.66,41.36,24.048,41.021,23.844z"/>
		<path display="inline" fill="#F3A5AE" d="M39.729,18.027c-0.307-0.17-0.545,0.102-0.545,0.34c0-0.238-0.271-0.51-0.544-0.34
			c-0.408,0.238,0,0.918,0.544,1.122C39.729,18.912,40.102,18.231,39.729,18.027z"/>
		<g display="inline">
			<g>
				<path fill="#FFD4BC" d="M28.707,20.782c0,0-0.34-0.476-0.51-0.238c-0.17,0.238,0.137,0.986,0.51,0.85V20.782z"/>
				<path fill="#FFD4BC" d="M32.823,20.782c0,0,0.34-0.476,0.511-0.238c0.17,0.238-0.137,0.986-0.511,0.85V20.782z"/>
				<g>
					<path fill="#754114" d="M30.918,30.612v0.204c0,0.068,0.068,0.136,0.137,0.136h0.816c0.102,0,0.136-0.102,0.102-0.204
						c-0.068-0.102-0.918-0.271-0.918-0.271C30.986,30.477,30.918,30.51,30.918,30.612z"/>
					<path fill="#754114" d="M30.545,30.612v0.204c0,0.068-0.068,0.136-0.137,0.136h-0.816c-0.102,0-0.137-0.102-0.102-0.204
						c0.067-0.102,0.918-0.271,0.918-0.271C30.51,30.477,30.545,30.51,30.545,30.612z"/>
					<path fill="#EA9300" d="M29.523,26.701h2.483l-0.442,3.844h-0.646c0,0,0.068-3.062-0.17-3.096c-0.238,0-0.17,3.096-0.17,3.096
						h-0.782L29.523,26.701z"/>
					<path fill="#62C5CF" d="M27.177,24.422c1.089-0.34,2.211-1.531,3.062-1.531c0.544,0,0.952,0,0.952,0s0.408-0.068,0.816,0.306
						c0.272,0.238,0.511,1.021,0.952,1.735c0.545,0.884,0.953,1.02,1.429,1.292c0.17,0.374-0.306,0.307-0.34,0.374
						c-1.53-1.19-2.211-2.415-2.211-2.415s0.374,1.769,0.306,3.027c0,0-0.714,0.034-1.36,0.034c-0.681,0-1.36-0.103-1.36-0.103
						c-0.068-1.225,0.102-3.027,0.102-3.027l-2.619,1.088C26.633,25.034,27.177,24.422,27.177,24.422z"/>
					<path fill="#FFD4BC" d="M30.238,22.925c0,0.272,0.238,0.476,0.51,0.476l0,0c0.307,0,0.545-0.204,0.545-0.476v-0.646
						c0-0.272-0.238-0.578-0.545-0.578l0,0c-0.306,0-0.51,0.306-0.51,0.578V22.925z"/>
					<path fill="#FFD4BC" d="M33.061,19.048v2.483c0,0.646-0.543,1.19-1.258,1.19h-2.041c-0.68,0-1.258-0.544-1.258-1.19v-2.449
						L33.061,19.048z"/>
					<path fill="#FFC0AD" d="M30.851,22.585c0.748,0,1.462,0,2.143-0.646c-0.17,0.442-0.646,0.782-1.156,0.782h-2.041
						c-0.544,0-1.021-0.34-1.19-0.851C29.252,22.585,30.068,22.585,30.851,22.585z"/>
					<ellipse fill="#5A2A00" cx="31.904" cy="20.646" rx="0.205" ry="0.34"/>
					<ellipse fill="#5A2A00" cx="29.693" cy="20.646" rx="0.205" ry="0.34"/>
					<path opacity="0.8" fill="#191919" enable-background="new    " d="M30.816,21.19c0.136,0,0.271-0.034,0.374-0.068
						c0,0.034,0.034,0.068,0.034,0.068c0,0.136-0.17,0.272-0.374,0.272s-0.374-0.102-0.374-0.272c0-0.034,0-0.068,0.033-0.068
						C30.545,21.19,30.68,21.19,30.816,21.19z"/>
					<ellipse fill="#FFC0AD" cx="31.904" cy="21.361" rx="0.272" ry="0.272"/>
					<ellipse fill="#FFC0AD" cx="29.693" cy="21.361" rx="0.272" ry="0.272"/>
					<g>
						<g>
							<path id="XMLID_3_" fill="#B83336" d="M31.258,21.701c0,0.272-0.237,0.51-0.51,0.51c-0.271,0-0.51-0.204-0.51-0.51"/>
						</g>
						<g>
							<defs>
								<path id="SVGID_3_" d="M31.258,21.701c0,0.272-0.237,0.51-0.51,0.51c-0.271,0-0.51-0.204-0.51-0.51"/>
							</defs>
							<clipPath id="SVGID_4_">
								<use xlink:href="#SVGID_3_"  overflow="visible"/>
							</clipPath>
							<ellipse clip-path="url(#SVGID_4_)" fill="#FC6B79" cx="30.885" cy="22.347" rx="0.476" ry="0.476"/>
						</g>
					</g>
				</g>
				<path fill="#754114" d="M33.061,21.123h-0.17V19.66c0-0.34-0.306-0.578-0.646-0.51l-1.225,0.272
					c-0.17,0.034-0.374,0.068-0.544,0l-1.259-0.272c-0.238-0.068-0.442,0.136-0.442,0.375v1.564h-0.238c0,0-0.714-1.973,0.034-2.823
					c0.749-0.816,2.619-1.599,3.708-0.238c0,0,0.408-0.136,0.781,0.306C33.504,18.81,33.334,20,33.061,21.123z"/>
			</g>
			<g>
				<g>
					<path fill="#575656" d="M27.109,27.688l-0.035,0.033l-0.033,0.034l0,0v0.034c0,0.034,0,0.034,0,0.068c0,0.033,0,0.068,0,0.102
						c0,0.068,0.033,0.102,0.068,0.17c0.067,0.103,0.136,0.17,0.238,0.238c0.17,0.137,0.407,0.17,0.611,0.137
						c0.204-0.068,0.442-0.205,0.578-0.408c0.103-0.103,0.137-0.238,0.238-0.375c0.068-0.136,0.102-0.271,0.17-0.408
						c0.137,0.068,0.272,0.137,0.442,0.205c0.136,0.067,0.272,0.17,0.408,0.271c0.272,0.238,0.511,0.545,0.714,0.918
						c0.17,0.408,0.272,0.885,0.238,1.43c0,0.271-0.068,0.543-0.136,0.815c-0.034,0.136-0.103,0.272-0.17,0.408
						c-0.034,0.068-0.068,0.136-0.103,0.204c-0.033,0.034-0.033,0.068-0.068,0.137l-0.033,0.067l0,0l-0.034,0.034l-0.067,0.068
						L27.109,27.688z"/>
				</g>
				<path fill="#575656" d="M27.381,27.312c-1.36-0.102-1.088,1.156-1.088,1.156v2.449h1.734c0.885,0,1.055-0.271,1.055-0.884
					C29.082,29.218,28.742,27.381,27.381,27.312z"/>
				<path fill="#838F92" d="M26.599,30.952v-0.034v-2.482c0-0.272,0.238-0.477,0.511-0.477c0.271,0,0.51,0.238,0.51,0.51v2.008
					c0,0.203,0,0.34,0,0.476h0.952v-3.571c0-0.68-0.646-1.36-1.292-1.36h0.102c-0.918,0-1.701,0.646-1.701,1.599v3.333H26.599z"/>
				<path fill="#AFBFC2" d="M26.496,30.952c0.068,0,0.137-0.067,0.103-0.136c-0.067-0.238-0.306-0.408-0.544-0.408
					c-0.272,0-0.477,0.17-0.545,0.408c0,0.068,0.035,0.136,0.137,0.136H26.496z"/>
				<path fill="#AFBFC2" d="M28.64,30.952c0.067,0,0.103-0.067,0.103-0.102c-0.068-0.272-0.273-0.442-0.545-0.442
					s-0.51,0.204-0.545,0.442c0,0.067,0.035,0.102,0.103,0.102H28.64z"/>
				<path fill="#AFBFC2" d="M29.184,24.694c0,0.986-0.986,2.483-2.143,2.483s-2.007-1.497-2.007-2.483v-0.17
					c0-0.986,0.918-1.599,2.075-1.599l0,0c1.156,0,2.074,0.612,2.074,1.599V24.694z"/>
				<path fill="#F3A5AE" d="M26.769,26.055v1.19c0,0.204,0.171,0.408,0.374,0.374l0,0c0.205,0,0.375-0.17,0.375-0.408v-1.156H26.769
					z"/>
				<path fill="#FFFFFF" d="M28.129,25.952c-0.033-0.17-0.136-0.34-0.271-0.442c-0.205-0.169-0.34-0.408-0.375-0.68
					c-0.067-0.714-0.237-1.939-0.237-1.939l-0.238,0.034l-0.204,1.905c-0.034,0.238-0.17,0.476-0.374,0.646
					c-0.171,0.136-0.306,0.306-0.374,0.51c-0.068,0.408,0.441,0.715,1.02,0.715S28.197,26.36,28.129,25.952z"/>
				<path fill="#11201C" d="M27.109,25.545L27.109,25.545C27.109,25.545,27.074,25.545,27.109,25.545
					C27.074,25.545,27.109,25.545,27.109,25.545L27.109,25.545c-0.477,0-0.749,0.17-0.545,0.476c0.442,0.544,0.783,0.272,1.055,0
					S27.585,25.578,27.109,25.545z"/>
				<path fill="#AFBFC2" d="M25.374,23.979c0,0-0.068-1.836,0.238-1.938c0.306-0.102,0.919,1.054,0.919,1.054L25.374,23.979z"/>
				<path fill="#AFBFC2" d="M28.742,23.979c0,0,0.067-1.836-0.238-1.938c-0.307-0.102-0.919,1.054-0.919,1.054L28.742,23.979z"/>
				<path fill="#FFD4BC" d="M27.891,23.061l0.375-0.51c0.033-0.034,0.102-0.034,0.102,0.034l0.068,0.714L27.891,23.061z"/>
				<path fill="#FFD4BC" d="M26.258,23.129l-0.407-0.476c-0.034-0.034-0.103-0.034-0.103,0.034l-0.033,0.714L26.258,23.129z"/>
				<ellipse fill="#11201C" cx="28.061" cy="24.626" rx="0.137" ry="0.204"/>
				<ellipse fill="#11201C" cx="26.123" cy="24.626" rx="0.135" ry="0.204"/>
			</g>
			<g>
				<g>
					<path fill="#D07422" d="M34.285,26.904c-0.102,0.035-0.102,0.068-0.102,0.103c-0.034,0.034-0.034,0.034-0.034,0.067
						c0,0.035-0.034,0.068-0.034,0.137s0,0.137,0,0.238c0.034,0.136,0.068,0.271,0.103,0.408c0.103,0.238,0.272,0.477,0.476,0.646
						c0.408,0.373,0.953,0.544,1.564,0.476c0.408,0.408,0.715,1.055,0.749,1.769c0.034,0.375,0,0.748-0.103,1.123
						c-0.033,0.203-0.102,0.408-0.203,0.578c-0.035,0.102-0.103,0.204-0.17,0.306c-0.035,0.034-0.068,0.103-0.103,0.171
						c-0.034,0.033-0.034,0.067-0.068,0.067c-0.034,0.034-0.034,0.067-0.17,0.103L34.285,26.904z"/>
				</g>
				<path fill="#754114" d="M34.218,27.482c-1.292-0.067-1.021,1.123-1.021,1.123v2.347h1.633c0.85,0,0.986-0.272,0.986-0.851
					C35.816,29.32,35.51,27.585,34.218,27.482z"/>
				<path fill="#9C571A" d="M33.401,30.885C33.401,30.885,33.401,30.851,33.401,30.885v-2.211c0-0.272,0.238-0.477,0.476-0.477
					c0.272,0,0.477,0.204,0.477,0.477v1.734c0,0.17,0,0.34,0,0.442h0.885v-2.96c0-0.646-0.612-1.292-1.225-1.292h0.102
					c-0.884,0-1.598,0.714-1.598,1.599v2.653h0.884V30.885z"/>
				<path fill="#D48B4D" d="M33.334,30.952c0.067,0,0.135-0.067,0.102-0.136c-0.068-0.238-0.272-0.374-0.51-0.374
					c-0.238,0-0.443,0.17-0.511,0.374c-0.034,0.068,0.034,0.136,0.103,0.136H33.334z"/>
				<path fill="#D48B4D" d="M35.442,30.952c0.067,0,0.103-0.034,0.067-0.102c-0.067-0.238-0.271-0.442-0.544-0.442
					s-0.476,0.17-0.544,0.442c0,0.067,0.033,0.102,0.068,0.102H35.442z"/>
				<path fill="#D48B4D" d="M31.939,25.952c0-0.85,0.951-2.143,2.04-2.143s1.905,1.292,1.905,2.143v0.136
					c0,0.852-0.885,1.395-1.973,1.395l0,0c-1.089,0-1.973-0.543-1.973-1.395V25.952L31.939,25.952z"/>
				<path fill="#FFE2D1" d="M32.007,26.19c0.067,0.816,0.748,1.327,1.938,1.292c1.055,0,1.973-0.51,2.007-1.292h-0.681
					c-0.373,0-0.714-0.272-0.816-0.612l-0.441-1.734l-0.612,1.803c-0.067,0.306-0.408,0.544-0.749,0.544H32.007z"/>
				<ellipse fill="#FFFFFF" cx="33.945" cy="26.734" rx="1.055" ry="0.748"/>
				<path fill="#11201C" d="M33.912,26.258L33.912,26.258C33.912,26.258,33.877,26.258,33.912,26.258c-0.035,0,0,0-0.068,0l0,0
					c-0.375,0-0.578,0.137-0.408,0.408c0.34,0.443,0.68,0.238,0.885,0C34.558,26.429,34.285,26.258,33.912,26.258z"/>
				<path fill="#9C571A" d="M33.231,24.116c0,0-0.204-0.272-0.851,0s-0.715,0.952-0.782,1.462c-0.103,0.748-0.748,1.734,0.408,1.496
					C33.197,26.837,31.633,24.626,33.231,24.116z"/>
				<path fill="#9C571A" d="M34.83,24.116c0,0,0.238-0.272,0.85,0.068c0.613,0.34,0.646,1.021,0.646,1.531
					c0.034,0.748,0.613,1.803-0.544,1.462C34.66,26.837,36.429,24.966,34.83,24.116z"/>
				<path fill="#F3A5AE" d="M33.605,27.177v0.408c0,0.204,0.17,0.341,0.374,0.341l0,0c0.204,0,0.341-0.171,0.341-0.375v-0.408
					h-0.715V27.177z"/>
				<ellipse fill="#5A2A00" cx="34.693" cy="25.51" rx="0.137" ry="0.204"/>
				<ellipse fill="#5A2A00" cx="33.129" cy="25.544" rx="0.137" ry="0.204"/>
			</g>
			<path fill="#F3A5AE" d="M22.721,18.844c-0.442-0.238-0.816,0.17-0.816,0.51c0-0.34-0.374-0.748-0.816-0.51
				c-0.578,0.34,0,1.36,0.816,1.667C22.755,20.17,23.333,19.184,22.721,18.844z"/>
			<path fill="#F3A5AE" d="M35.204,21.123c-0.341-0.17-0.612,0.102-0.612,0.374c0-0.272-0.271-0.578-0.612-0.374
				c-0.442,0.238,0,1.021,0.612,1.258C35.238,22.143,35.646,21.395,35.204,21.123z"/>
			<path fill="#F3A5AE" d="M34.523,18.061c-0.17-0.102-0.306,0.068-0.306,0.204c0-0.136-0.136-0.306-0.306-0.204
				c-0.238,0.136,0,0.544,0.306,0.646C34.523,18.605,34.762,18.197,34.523,18.061z"/>
			<path fill="#F3A5AE" d="M27.211,20.204c-0.17-0.102-0.307,0.068-0.307,0.17c0-0.136-0.136-0.272-0.306-0.17
				c-0.204,0.136,0,0.51,0.306,0.612C27.211,20.68,27.415,20.306,27.211,20.204z"/>
		</g>
	</g>
	<rect x="14.592" y="14.796" fill="#FFFFFF" width="31.021" height="1.871"/>
	<g>
		<path fill="#404041" d="M46.123,33.979V14.83c0-0.68-0.545-1.225-1.225-1.225H15.442c-0.681,0-1.225,0.544-1.225,1.225v19.149
			c0,0.341,0.136,0.612,0.34,0.851h31.225C45.986,34.626,46.123,34.32,46.123,33.979z M45,33.469H15.17V14.83h29.796v18.639H45z"/>
		<polygon fill="#D0D2D3" points="45.782,34.83 14.558,34.83 10.68,34.83 10.68,35.545 49.693,35.545 49.693,34.83 		"/>
		<circle fill="#929497" cx="30.204" cy="14.286" r="0.17"/>
		<path fill="#BBBDBF" d="M30.17,34.83h-0.068h-2.721c0,0,0.068,0.477,0.51,0.477c0.375,0,1.803,0,2.178,0c0.068,0,0.102,0,0.102,0
			c0.375,0,1.803,0,2.178,0c0.441,0,0.51-0.477,0.51-0.477H30.17z"/>
		<path fill="#E6E7E8" d="M10.68,35.545c0,0,0.238,0.51,2.245,0.51s17.176,0,17.176,0h0.17c0,0,15.137,0,17.178,0
			c2.006,0,2.244-0.51,2.244-0.51"/>
	</g>
</g>
<g>
	<g>
		<path fill="#404041" d="M1.701,36.055c-0.749,0-1.395-0.612-1.395-1.395V18.81c0-0.749,0.612-1.395,1.395-1.395h6.088
			c0.749,0,1.395,0.612,1.395,1.395V34.66c0,0.748-0.612,1.395-1.395,1.395H1.701z"/>
	</g>
	<rect x="0.578" y="19.388" display="none" fill="#58B4DD" width="8.164" height="14.626"/>
	<rect x="0.918" y="20.068" fill="#EAEAEA" width="7.585" height="13.436"/>
	<g display="none">
		<path display="inline" fill="#FFD4BC" d="M6.36,28.912l0.34,0.34c0,0,0,0.34-0.34,0.34c-0.34,0-0.34-0.68-0.34-0.68H6.36z"/>
		<g display="inline">
			<path fill="#D07422" d="M4.456,31.564v0.137c0,0.067-0.034,0.102-0.102,0.102H3.775c-0.068,0-0.102-0.068-0.068-0.137
				c0.034-0.067,0.646-0.203,0.646-0.203C4.422,31.463,4.456,31.496,4.456,31.564z"/>
			<path fill="#D07422" d="M4.728,31.564v0.137c0,0.067,0.034,0.102,0.102,0.102h0.578c0.068,0,0.102-0.068,0.068-0.137
				c-0.034-0.067-0.646-0.203-0.646-0.203C4.762,31.463,4.728,31.496,4.728,31.564z"/>
			<path fill="#62C5CF" d="M5.442,28.81H3.708l0.306,2.722h0.442c0,0-0.068-2.178,0.136-2.178c0.17,0,0.102,2.178,0.102,2.178h0.544
				L5.442,28.81z"/>
			<path fill="#FC6B79" d="M6.36,28.912c-0.34-1.021-0.816-2.789-1.395-2.789c-0.374,0-0.68,0-0.68,0s-0.306-0.035-0.578,0.203
				c-0.204,0.17-0.374,0.715-0.68,1.225c-0.374,0.612-0.578,0.986-0.884,1.191c-0.136,0.237,0.204,0.17,0.238,0.237
				c1.055-0.919,1.463-1.973,1.463-1.973s-0.272,1.259-0.204,2.143c0,0,0.51,0.034,0.952,0.034s0.953-0.068,0.953-0.068
				c0.034-0.884-0.204-2.108-0.204-2.108l0.68,2.245C6.225,29.149,6.36,28.912,6.36,28.912z"/>
			<path fill="#FFD4BC" d="M4.932,26.123c0,0.203-0.136,0.34-0.34,0.34l0,0c-0.204,0-0.408-0.137-0.408-0.34V25.68
				c0-0.204,0.204-0.408,0.408-0.408l0,0c0.204,0,0.34,0.204,0.34,0.408V26.123z"/>
			<path fill="#FFD4BC" d="M2.959,23.401v1.769c0,0.477,0.408,0.851,0.885,0.851h1.428c0.476,0,0.884-0.374,0.884-0.851v-1.734
				L2.959,23.401z"/>
			<path fill="#FFC0AD" d="M4.524,25.885c-0.544,0-1.055,0-1.497-0.442c0.136,0.306,0.442,0.544,0.816,0.544h1.428
				c0.408,0,0.714-0.238,0.851-0.578C5.646,25.885,5.068,25.885,4.524,25.885z"/>
			<ellipse fill="#5A2A00" cx="3.775" cy="24.524" rx="0.136" ry="0.238"/>
			<ellipse fill="#5A2A00" cx="5.34" cy="24.524" rx="0.136" ry="0.238"/>
			<path opacity="0.8" fill="#191919" enable-background="new    " d="M4.558,24.932c-0.102,0-0.17-0.034-0.272-0.068
				c0,0.034,0,0.034,0,0.068c0,0.102,0.136,0.17,0.272,0.17c0.136,0,0.272-0.068,0.272-0.17c0-0.034,0-0.034,0-0.068
				C4.728,24.898,4.66,24.932,4.558,24.932z"/>
			<ellipse fill="#FFC0AD" cx="3.775" cy="25.034" rx="0.204" ry="0.204"/>
			<ellipse fill="#FFC0AD" cx="5.34" cy="25.034" rx="0.204" ry="0.204"/>
			<g>
				<g>
					<path id="XMLID_14_" fill="#B83336" d="M4.218,25.272c0,0.204,0.17,0.34,0.34,0.34c0.204,0,0.34-0.17,0.34-0.34"/>
				</g>
				<g>
					<defs>
						<path id="SVGID_5_" d="M4.218,25.272c0,0.204,0.17,0.34,0.34,0.34c0.204,0,0.34-0.17,0.34-0.34"/>
					</defs>
					<clipPath id="SVGID_6_">
						<use xlink:href="#SVGID_5_"  overflow="visible"/>
					</clipPath>
					<circle clip-path="url(#SVGID_6_)" fill="#FC6B79" cx="4.49" cy="25.748" r="0.34"/>
				</g>
			</g>
			<path fill="#9C571A" d="M3.333,23.367c0,0-0.714,1.225-0.204,2.585c0,0-1.259-1.632-0.17-3.061c0,0-0.17-0.51,0.681-0.646
				c0.85-0.136,2.108,0.17,2.483,0.816c0.408,0.714,0.408,1.837-0.102,2.654c0,0,0.34-1.429-0.136-1.871
				C5.34,23.367,4.83,24.388,3.333,23.367z"/>
			<path fill="#FFD4BC" d="M3.061,24.626c0,0-0.238-0.34-0.374-0.17c-0.102,0.17,0.102,0.68,0.34,0.578L3.061,24.626z"/>
		</g>
		<g display="inline">
			<g>
				<path fill="#D07422" d="M1.939,33.096c-0.068-0.035-0.068-0.035-0.102-0.068c0-0.034,0-0.034-0.034-0.068
					c-0.034-0.033-0.034-0.068-0.068-0.102c-0.034-0.068-0.068-0.103-0.102-0.17c-0.068-0.103-0.102-0.205-0.136-0.34
					c-0.068-0.205-0.102-0.443-0.102-0.646c0-0.408,0.136-0.783,0.34-1.055c0.34,0.068,0.646,0,0.884-0.137
					c0.136-0.067,0.238-0.17,0.306-0.306C2.959,30.137,2.993,30.068,3.027,30c0-0.034,0.034-0.068,0.034-0.102
					c0-0.035,0-0.035,0-0.068v-0.034c0,0,0-0.034-0.068-0.034L1.939,33.096z"/>
			</g>
			<path fill="#9C571A" d="M2.381,30.442l0.612,0.442v0.952H2.449c-0.272,0-0.442-0.068-0.442-0.272
				C2.041,31.293,2.211,30.578,2.381,30.442z"/>
			<path fill="#D48B4D" d="M2.925,31.803L2.925,31.803v-0.816c0-0.102-0.068-0.17-0.17-0.17c-0.102,0-0.17,0.068-0.17,0.17v0.646
				c0,0.068,0,0.102,0,0.17H2.313v-1.531h0.374c0.306,0,0.544,0.238,0.544,0.545v0.986H2.925z"/>
			<path fill="#FFE2D1" d="M2.959,31.837c-0.034,0-0.034-0.034-0.034-0.034c0.034-0.102,0.102-0.17,0.17-0.17
				s0.136,0.068,0.17,0.136c0,0.034,0,0.034-0.034,0.034H2.959V31.837z"/>
			<path fill="#FFE2D1" d="M2.313,31.837c-0.034,0-0.034,0-0.034-0.034c0-0.102,0.068-0.17,0.17-0.17c0.102,0,0.17,0.068,0.17,0.136
				c0,0.034,0,0.034-0.034,0.034H2.313V31.837z"/>
			<g>
				<path fill="#D48B4D" d="M1.905,29.456c0,0-0.272-0.034-0.442-0.272c-0.136-0.17-0.17-0.408-0.102-0.715l0.034-0.102l0.102-0.033
					c0,0,0.068,0,0.17,0c0.408,0,0.646,0.237,0.646,0.611v0.068l-0.34,0.442H1.905z"/>
				<path fill="#FFD4BC" d="M1.939,29.285c0,0-0.579-0.067-0.408-0.781c0,0,0.68-0.137,0.68,0.476L1.939,29.285z"/>
				<path fill="#D48B4D" d="M3.605,29.456c0,0,0.272-0.034,0.442-0.272c0.136-0.17,0.17-0.408,0.102-0.715l-0.034-0.102
					l-0.102-0.033c0,0-0.102,0-0.204,0c-0.408,0-0.68,0.237-0.68,0.611v0.068l0.374,0.442H3.605z"/>
				<path fill="#FFD4BC" d="M3.605,29.285c0,0,0.578-0.067,0.408-0.781c0,0-0.68-0.137-0.68,0.476L3.605,29.285z"/>
				<path fill="#D48B4D" d="M1.735,29.523c0,0.442,0.476,1.156,1.02,1.156c0.544,0,0.953-0.68,0.953-1.156v-0.067
					c0-0.442-0.442-0.749-0.986-0.749l0,0c-0.544,0-0.986,0.272-0.986,0.749V29.523z"/>
				<path fill="#FFE2D1" d="M2.007,30.204c0.17,0.272,0.476,0.476,0.782,0.476s0.578-0.237,0.749-0.51l-0.272-0.238
					c-0.272-0.238-0.68-0.238-0.952,0L2.007,30.204z"/>
				<ellipse fill="#5A2A00" cx="3.197" cy="29.592" rx="0.102" ry="0.136"/>
				<ellipse fill="#5A2A00" cx="2.381" cy="29.592" rx="0.102" ry="0.136"/>
				<path fill="#FFE2D1" d="M2.789,30.204L2.789,30.204c-0.068,0-0.102-0.067-0.102-0.103v-0.85c0-0.068,0.068-0.103,0.102-0.103
					l0,0c0.068,0,0.102,0.068,0.102,0.103v0.85C2.891,30.137,2.857,30.204,2.789,30.204z"/>
				<path fill="#11201C" d="M2.789,30L2.789,30L2.789,30L2.789,30L2.789,30c0.17,0,0.272,0.034,0.204,0.17
					c-0.102,0.204-0.306,0.204-0.374,0C2.585,30.034,2.653,30,2.789,30z"/>
			</g>
			<path fill="#F3A5AE" d="M2.687,30.442v0.17c0,0.067,0.068,0.136,0.136,0.136l0,0c0.068,0,0.136-0.068,0.136-0.136v-0.17H2.687z"
				/>
		</g>
		<g display="inline">
			<path fill="#F3A5AE" d="M7.279,21.395c-0.306-0.17-0.578,0.102-0.578,0.34c0-0.238-0.272-0.544-0.578-0.34
				c-0.408,0.238,0,0.953,0.578,1.19C7.279,22.347,7.687,21.633,7.279,21.395z"/>
			<path fill="#F3A5AE" d="M2.313,27.415c-0.102-0.067-0.238,0.034-0.238,0.136c0-0.102-0.102-0.203-0.238-0.136
				c-0.17,0.103,0,0.374,0.238,0.442C2.313,27.789,2.483,27.518,2.313,27.415z"/>
			<path fill="#F3A5AE" d="M2.517,26.871c-0.068-0.034-0.136,0.033-0.136,0.102c0-0.068-0.068-0.136-0.136-0.068
				c-0.102,0.068,0,0.238,0.136,0.272C2.517,27.109,2.619,26.939,2.517,26.871z"/>
			<path fill="#F3A5AE" d="M8.027,21.055c-0.068-0.034-0.136,0.034-0.136,0.068c0-0.068-0.068-0.136-0.136-0.068
				c-0.102,0.068,0,0.238,0.136,0.272C8.027,21.292,8.095,21.123,8.027,21.055z"/>
			<path fill="#F3A5AE" d="M1.871,26.123c-0.068-0.035-0.136,0.033-0.136,0.067c0-0.067-0.068-0.136-0.136-0.067
				c-0.102,0.067,0,0.237,0.136,0.271C1.871,26.326,1.973,26.19,1.871,26.123z"/>
			<path fill="#F3A5AE" d="M7.143,24.218c-0.102-0.068-0.204,0.034-0.204,0.136c0-0.102-0.102-0.204-0.204-0.136
				c-0.136,0.102,0,0.34,0.204,0.442C7.143,24.558,7.279,24.286,7.143,24.218z"/>
		</g>
		<rect x="0.952" y="31.633" display="inline" fill="#52E892" width="7.585" height="1.871"/>
	</g>
	<circle fill="#5B5B5B" cx="4.762" cy="34.864" r="0.681"/>
	<path fill="#E6E7E8" d="M5.374,19.184c0.068,0,0.136-0.068,0.136-0.136l0,0c0-0.068-0.068-0.136-0.136-0.136H4.149
		c-0.068,0-0.136,0.068-0.136,0.136l0,0c0,0.068,0.068,0.136,0.136,0.136H5.374z"/>
	<circle fill="#E6E7E8" cx="4.762" cy="18.367" r="0.17"/>
	<rect x="6.156" y="17.313" fill="#404041" width="1.429" height="0.204"/>
</g>
<g>
	<g>
		<defs>
			<rect id="SVGID_7_" x="0.918" y="20.068" width="7.585" height="13.436"/>
		</defs>
		<clipPath id="SVGID_8_">
			<use xlink:href="#SVGID_7_"  overflow="visible"/>
		</clipPath>
		<g clip-path="url(#SVGID_8_)">
			<rect x="1.225" y="20.068" fill="#FFFFFF" width="7.041" height="12.006"/>
			<g>
				<rect x="1.36" y="22.279" fill="#52E892" width="6.803" height="7.45"/>
				<g>
					<circle opacity="0.3" fill="#DBDCDD" enable-background="new    " cx="2.313" cy="21.191" r="0.646"/>
					<rect x="3.299" y="21.021" opacity="0.3" fill="#DBDCDD" enable-background="new    " width="4.218" height="0.34"/>
					<rect x="1.701" y="30.034" opacity="0.3" fill="#DBDCDD" enable-background="new    " width="4.218" height="0.578"/>
					<rect x="7.177" y="30.034" opacity="0.3" fill="#DBDCDD" enable-background="new    " width="0.646" height="0.646"/>
					<rect x="6.938" y="31.116" opacity="0.3" fill="#DBDCDD" enable-background="new    " width="0.884" height="0.408"/>
					<rect x="5.204" y="31.123" opacity="0.3" fill="#DBDCDD" enable-background="new    " width="0.884" height="0.408"/>
					<rect x="3.421" y="31.116" opacity="0.3" fill="#DBDCDD" enable-background="new    " width="0.884" height="0.408"/>
					<rect x="1.698" y="31.116" opacity="0.3" fill="#DBDCDD" enable-background="new    " width="0.884" height="0.408"/>
				</g>
				<g>
					<path fill="#575656" d="M5.272,27.279c0,0,1.292,0,1.292,0.646c0,0.646,0,1.292,0,1.292S5.272,27.619,5.272,27.279z"/>
					<g>
						<path fill="#575656" d="M4.66,26.19c-0.918-0.067-0.748,0.782-0.748,0.782v1.701h1.19c0.612,0,0.714-0.205,0.714-0.613
							C5.816,27.482,5.578,26.225,4.66,26.19z"/>
						<path fill="#838F92" d="M4.116,28.674C4.116,28.674,4.116,28.64,4.116,28.674v-1.701c0-0.204,0.17-0.34,0.34-0.34
							c0.204,0,0.34,0.17,0.34,0.34v1.361c0,0.135,0,0.237,0,0.34h0.646v-2.449c0-0.442-0.442-0.953-0.885-0.953h0.068
							c-0.646,0-1.157,0.443-1.157,1.088v2.279h0.646V28.674z"/>
						<path fill="#AFBFC2" d="M4.048,28.674c0.068,0,0.102-0.068,0.068-0.103c-0.034-0.17-0.204-0.272-0.374-0.272
							c-0.17,0-0.34,0.103-0.375,0.272c0,0.068,0.034,0.103,0.068,0.103H4.048z"/>
						<path fill="#AFBFC2" d="M5.544,28.674c0.034,0,0.068-0.034,0.068-0.068c-0.034-0.17-0.204-0.307-0.374-0.307
							c-0.17,0-0.34,0.137-0.375,0.307c0,0.034,0.034,0.068,0.068,0.068H5.544z"/>
						<path fill="#AFBFC2" d="M5.884,24.388c0,0.68-0.68,1.7-1.462,1.7s-1.361-1.02-1.361-1.7v-0.102
							c0-0.68,0.612-1.088,1.429-1.088l0,0c0.782,0,1.429,0.408,1.429,1.088v0.102H5.884z"/>
						<path fill="#F3A5AE" d="M4.252,25.306v0.817c0,0.135,0.136,0.271,0.272,0.271l0,0c0.136,0,0.238-0.137,0.238-0.271v-0.817
							H4.252z"/>
						<path fill="#FFFFFF" d="M5.17,25.272C5.136,25.17,5.068,25.034,5,24.966C4.83,24.83,4.762,24.66,4.728,24.49
							c-0.068-0.476-0.17-1.327-0.17-1.327h-0.17l-0.136,1.293c-0.034,0.17-0.103,0.34-0.238,0.442
							C3.877,25,3.81,25.102,3.775,25.238c-0.068,0.271,0.306,0.477,0.714,0.477S5.238,25.545,5.17,25.272z"/>
						<path fill="#11201C" d="M4.456,25L4.456,25L4.456,25L4.456,25L4.456,25c-0.306,0-0.51,0.136-0.374,0.306
							c0.306,0.374,0.544,0.17,0.714,0C5,25.136,4.796,25,4.456,25z"/>
						<path fill="#AFBFC2" d="M3.299,23.912c0,0-0.034-1.258,0.17-1.327c0.204-0.068,0.612,0.714,0.612,0.714L3.299,23.912z"/>
						<path fill="#AFBFC2" d="M5.578,23.912c0,0,0.034-1.258-0.17-1.327c-0.204-0.068-0.612,0.714-0.612,0.714L5.578,23.912z"/>
						<path fill="#FFD4BC" d="M5,23.299l0.238-0.34c0.034-0.034,0.068,0,0.068,0.034l0.034,0.476L5,23.299z"/>
						<path fill="#FFD4BC" d="M3.912,23.333L3.64,23.027c-0.034-0.034-0.068,0-0.068,0.034l-0.034,0.477L3.912,23.333z"/>
						<ellipse fill="#11201C" cx="5.136" cy="24.354" rx="0.102" ry="0.136"/>
						<ellipse fill="#11201C" cx="3.81" cy="24.354" rx="0.102" ry="0.136"/>
					</g>
				</g>
			</g>
		</g>
	</g>
	<g>
		<defs>
			<rect id="SVGID_9_" x="0.918" y="20.068" width="7.585" height="13.436"/>
		</defs>
		<clipPath id="SVGID_10_">
			<use xlink:href="#SVGID_9_"  overflow="visible"/>
		</clipPath>
		<g clip-path="url(#SVGID_10_)">
			<rect x="1.225" y="32.312" fill="#FFFFFF" width="7.041" height="12.008"/>
			<g>
				<rect x="1.36" y="34.523" fill="#52E892" width="6.803" height="7.449"/>
				<g>
					<circle opacity="0.3" fill="#DBDCDD" enable-background="new    " cx="2.313" cy="33.436" r="0.646"/>
					<rect x="3.299" y="33.266" opacity="0.3" fill="#C1C1C1" enable-background="new    " width="4.218" height="0.34"/>
				</g>
				<g>
					<g>
						<path fill="#AFBFC2" d="M5.884,36.633c0,0.68-0.68,1.701-1.462,1.701s-1.361-1.021-1.361-1.701v-0.102
							c0-0.681,0.612-1.089,1.429-1.089l0,0c0.782,0,1.429,0.408,1.429,1.089v0.102H5.884z"/>
						<path fill="#FFFFFF" d="M5.17,37.518C5.136,37.415,5.068,37.279,5,37.211c-0.17-0.137-0.238-0.307-0.272-0.477
							c-0.068-0.477-0.17-1.326-0.17-1.326h-0.17l-0.136,1.293c-0.034,0.17-0.103,0.34-0.238,0.441
							c-0.136,0.103-0.204,0.205-0.238,0.34c-0.068,0.272,0.306,0.477,0.714,0.477S5.238,37.789,5.17,37.518z"/>
						<path fill="#AFBFC2" d="M3.299,36.156c0,0-0.034-1.258,0.17-1.326s0.612,0.715,0.612,0.715L3.299,36.156z"/>
						<path fill="#AFBFC2" d="M5.578,36.156c0,0,0.034-1.258-0.17-1.326s-0.612,0.715-0.612,0.715L5.578,36.156z"/>
						<path fill="#FFD4BC" d="M5,35.545l0.238-0.341c0.034-0.034,0.068,0,0.068,0.034l0.034,0.477L5,35.545z"/>
						<path fill="#FFD4BC" d="M3.912,35.578L3.64,35.271c-0.034-0.033-0.068,0-0.068,0.035l-0.034,0.476L3.912,35.578z"/>
						<ellipse fill="#11201C" cx="5.136" cy="36.599" rx="0.102" ry="0.136"/>
						<ellipse fill="#11201C" cx="3.81" cy="36.599" rx="0.102" ry="0.136"/>
					</g>
				</g>
			</g>
		</g>
	</g>
</g>
<rect x="18.979" y="17.007" fill="#FFFFFF" width="22.108" height="3.401"/>
<g>
	<g>
		<rect x="19.49" y="17.347" opacity="0.2" fill="#E6E7E8" enable-background="new    " width="6.803" height="0.68"/>
		<rect x="26.633" y="17.347" opacity="0.2" fill="#E6E7E8" enable-background="new    " width="6.803" height="0.68"/>
		<rect x="33.775" y="17.347" opacity="0.2" fill="#E6E7E8" enable-background="new    " width="6.803" height="0.68"/>
		<rect x="19.49" y="18.367" opacity="0.2" fill="#E6E7E8" enable-background="new    " width="6.803" height="0.681"/>
		<rect x="26.633" y="18.367" opacity="0.2" fill="#E6E7E8" enable-background="new    " width="6.803" height="0.681"/>
		<rect x="33.775" y="18.367" opacity="0.2" fill="#E6E7E8" enable-background="new    " width="6.803" height="0.681"/>
		<rect x="19.49" y="19.388" opacity="0.2" fill="#E6E7E8" enable-background="new    " width="6.803" height="0.68"/>
		<rect x="26.633" y="19.388" opacity="0.2" fill="#E6E7E8" enable-background="new    " width="6.803" height="0.68"/>
	</g>
	<rect x="33.775" y="19.388" opacity="0.2" fill="#0074FF" enable-background="new    " width="6.803" height="0.68"/>
</g>
<g>
	<path opacity="0.2" fill="#0074FF" enable-background="new    " d="M40.816,15.986L40.816,15.986c-0.204,0-0.34-0.136-0.34-0.34
		l0,0c0-0.204,0.136-0.34,0.34-0.34l0,0c0.204,0,0.34,0.136,0.34,0.34l0,0C41.156,15.851,41.021,15.986,40.816,15.986z"/>
	<path opacity="0.2" fill="#0074FF" enable-background="new    " d="M39.796,15.986L39.796,15.986c-0.204,0-0.341-0.136-0.341-0.34
		l0,0c0-0.204,0.137-0.34,0.341-0.34l0,0c0.204,0,0.341,0.136,0.341,0.34l0,0C40.137,15.851,40,15.986,39.796,15.986z"/>
	<rect x="19.048" y="15.306" opacity="0.2" fill="#0074FF" enable-background="new    " width="2.721" height="0.68"/>
	<path opacity="0.2" fill="#0074FF" enable-background="new    " d="M38.775,15.986L38.775,15.986c-0.204,0-0.34-0.136-0.34-0.34
		l0,0c0-0.204,0.136-0.34,0.34-0.34l0,0c0.204,0,0.34,0.136,0.34,0.34l0,0C39.115,15.851,38.979,15.986,38.775,15.986z"/>
	<path opacity="0.2" fill="#0074FF" enable-background="new    " d="M37.074,15.986L37.074,15.986c-0.203,0-0.34-0.136-0.34-0.34
		l0,0c0-0.204,0.137-0.34,0.34-0.34l0,0c0.205,0,0.341,0.136,0.341,0.34l0,0C37.415,15.851,37.279,15.986,37.074,15.986z"/>
	<path opacity="0.2" fill="#0074FF" enable-background="new    " d="M36.055,15.986L36.055,15.986c-0.204,0-0.34-0.136-0.34-0.34
		l0,0c0-0.204,0.136-0.34,0.34-0.34l0,0c0.203,0,0.34,0.136,0.34,0.34l0,0C36.395,15.851,36.258,15.986,36.055,15.986z"/>
</g>
</svg>
