<svg xmlns="http://www.w3.org/2000/svg" xmlns:xlink="http://www.w3.org/1999/xlink" width="50" height="50" viewBox="0 0 50 50"><path fill="#F0F1F2" d="M14.626 14.456h31.021v19.762H14.626z"/><defs><path id="a" d="M14.66 14.456h31.02v19.762H14.66z"/></defs><clipPath id="b"><use xlink:href="#a" overflow="visible"/></clipPath><g clip-path="url(#b)"><path fill="#FFF" d="M19.184 20.749h7.041v12.006h-7.041z"/><path fill="#52E892" d="M19.32 22.959h6.803v7.449H19.32z"/><circle opacity=".3" fill="#DBDCDD" cx="20.272" cy="21.871" r=".646"/><path opacity=".3" fill="#C1C1C1" d="M21.258 21.701h4.218v.34h-4.218z"/><path opacity=".3" fill="#DBDCDD" d="M19.66 30.816h4.83v.408h-4.83zm5.544 0h.476v.477h-.476z"/><path fill="#575656" d="M23.197 27.959s1.292 0 1.292.646v1.293s-1.292-1.599-1.292-1.939z"/><path fill="#575656" d="M22.619 26.871c-.918-.068-.749.782-.749.782v1.7h1.19c.612 0 .714-.204.714-.611-.032-.579-.236-1.838-1.155-1.871z"/><path fill="#838F92" d="M22.075 29.354s0-.034 0 0v-1.7c0-.204.17-.341.34-.341.204 0 .34.17.34.341v1.7h.646v-2.449c0-.441-.442-.952-.884-.952h.068c-.646 0-1.156.442-1.156 1.089v2.279h.646v.033z"/><path fill="#AFBFC2" d="M22.007 29.354c.068 0 .102-.068.068-.102-.034-.17-.204-.272-.374-.272s-.34.103-.374.272c0 .068.034.102.068.102h.612zm1.462 0a.072.072 0 0 0 .068-.068.399.399 0 0 0-.375-.306c-.17 0-.34.136-.374.306 0 .035.034.068.068.068h.613zm.375-4.286c0 .68-.681 1.701-1.463 1.701s-1.36-1.021-1.36-1.701v-.102c0-.68.612-1.088 1.429-1.088.782 0 1.428.408 1.428 1.088v.102h-.034z"/><path fill="#F3A5AE" d="M22.177 25.986v.816c0 .137.136.271.272.271s.238-.135.238-.271v-.816h-.51z"/><path fill="#FFF" d="M23.129 25.952a.9.9 0 0 0-.17-.306c-.17-.137-.272-.306-.272-.477-.068-.476-.17-1.326-.17-1.326h-.17l-.136 1.292c-.034.17-.102.34-.238.442a.575.575 0 0 0-.238.34c-.068.272.306.477.714.477.408.001.714-.169.68-.442z"/><path fill="#11201C" d="M22.415 25.68c-.306 0-.51.137-.374.307.306.374.544.17.714 0 .204-.171-.034-.307-.34-.307z"/><path fill="#AFBFC2" d="M21.225 24.592s-.034-1.258.17-1.327c.204-.068.612.714.612.714l-.782.613zm2.313 0s.034-1.258-.17-1.327c-.204-.068-.612.714-.612.714l.782.613z"/><path fill="#FFD4BC" d="M22.959 23.979l.238-.34c.034-.034.068 0 .068.034l.034.476-.34-.17zm-1.122.035l-.272-.306c-.034-.034-.068 0-.068.034l-.034.476.374-.204z"/><ellipse fill="#11201C" cx="23.095" cy="25.034" rx=".102" ry=".136"/><ellipse fill="#11201C" cx="21.735" cy="25.034" rx=".102" ry=".136"/><g><path fill="#DBDCDD" d="M19.66 31.973h.646v.34h-.646zm1.802 0h.646v.34h-.646zm1.701 0h.646v.34h-.646zm1.701 0h.646v.34h-.646z" opacity=".3"/></g><g><path fill="#FFF" d="M26.666 20.749h7.041v12.006h-7.041z"/><path fill="#63AFC6" d="M26.803 22.959h6.803v7.449h-6.803z"/><circle opacity=".3" fill="#DBDCDD" cx="27.755" cy="21.871" r=".646"/><path opacity=".3" fill="#C1C1C1" d="M28.742 21.701h4.217v.34h-4.217z"/><path opacity=".3" fill="#DBDCDD" d="M27.143 30.816h4.83v.408h-4.83zm5.545 0h.476v.477h-.476z"/><path fill="#D07422" d="M29.729 29.115c-.171-.102-.273-.17-.375-.271s-.204-.204-.271-.34a1.973 1.973 0 0 1-.272-.749c.136.204.306.374.511.511.102.068.203.102.306.136s.237.067.272.067l-.171.646z"/><path fill="#9C571A" d="M29.762 27.381l.851.612v1.292h-.749c-.373 0-.611-.067-.611-.34-.001-.374.27-1.36.509-1.564z"/><path fill="#D48B4D" d="M30.51 29.285v-1.122c0-.136-.102-.204-.238-.204a.232.232 0 0 0-.237.238v1.088h-.408v-2.108h.544c.408 0 .748.341.748.749v1.359h-.409z"/><path fill="#FFE2D1" d="M30.545 29.285c-.035 0-.068-.033-.035-.067a.256.256 0 0 1 .238-.17c.103 0 .204.067.238.17 0 .034 0 .067-.034.067h-.407zm-.919 0c-.034 0-.034 0-.034-.033.034-.103.137-.204.238-.204.136 0 .204.102.238.204 0 .033 0 .033-.034.033h-.408z"/><path fill="#D48B4D" d="M29.115 26.021s-.373-.034-.611-.374c-.17-.238-.205-.579-.137-.987l.034-.136.136-.034s.103-.034.238-.034c.578 0 .885.306.885.85v.068l-.477.612-.068.035z"/><path fill="#FFD4BC" d="M29.115 25.816s-.781-.068-.544-1.088c0 0 .919-.204.919.646l-.375.442z"/><path fill="#D48B4D" d="M31.429 26.021s.374-.034.612-.374c.17-.238.204-.579.136-.987l-.034-.136-.136-.034s-.136-.034-.272-.034c-.578 0-.918.306-.918.85v.068l.51.612.102.035z"/><path fill="#FFD4BC" d="M31.429 25.816s.782-.068.544-1.088c0 0-.918-.204-.918.646l.374.442z"/><path fill="#D48B4D" d="M28.877 26.123c0 .646.646 1.564 1.395 1.564s1.327-.953 1.327-1.564v-.103c0-.646-.578-1.021-1.36-1.021-.748 0-1.361.374-1.361 1.021v.103z"/><path fill="#FFE2D1" d="M29.218 27.041c.272.374.646.646 1.089.646.441 0 .816-.307 1.054-.715l-.374-.307c-.408-.306-.952-.306-1.326 0l-.443.376z"/><ellipse fill="#5A2A00" cx="30.885" cy="26.225" rx=".136" ry=".204"/><ellipse fill="#5A2A00" cx="29.729" cy="26.225" rx=".135" ry=".204"/><path fill="#FFE2D1" d="M30.307 27.041c-.103 0-.17-.068-.17-.17V25.68c0-.102.067-.17.17-.17.102 0 .17.068.17.17v1.191c-.035.102-.103.17-.17.17z"/><path fill="#11201C" d="M30.307 26.769c.203 0 .373.068.271.238-.136.306-.408.306-.51 0-.068-.17.069-.238.239-.238z"/><path fill="#F3A5AE" d="M30.17 27.381v.238a.22.22 0 0 0 .204.204c.103 0 .171-.103.171-.204v-.204h-.375v-.034z"/><g><path fill="#DBDCDD" d="M27.143 31.973h.646v.34h-.646zm1.802 0h.646v.34h-.646zm1.701 0h.646v.34h-.646zm1.702 0h.646v.34h-.646z" opacity=".3"/></g></g><g><path fill="#FFF" d="M34.149 20.749h7.041v12.006h-7.041z"/><path fill="#EAD168" d="M34.285 22.959h6.803v7.449h-6.803z"/><g opacity=".3"><circle fill="#DBDCDD" cx="35.238" cy="21.871" r=".646"/><path fill="#C1C1C1" d="M36.225 21.701h4.218v.34h-4.218z"/><path fill="#DBDCDD" d="M34.626 30.816h4.829v.408h-4.829zm5.544 0h.477v.477h-.477z"/></g><path fill="#D07422" d="M38.571 28.707c.068 0 .136-.033.204-.067s.137-.068.204-.103a.956.956 0 0 0 .306-.34 1.2 1.2 0 0 1-.203.477c-.034.068-.103.136-.17.203-.068.068-.137.103-.238.171l-.103-.341z"/><path fill="#754114" d="M37.959 27.245c-.85-.068-.68.714-.68.714v1.531h1.055c.543 0 .646-.17.646-.545.034-.509-.17-1.666-1.021-1.7z"/><path fill="#9C571A" d="M37.449 29.456s0-.034 0 0v-1.429a.306.306 0 1 1 .612 0v1.429h.579v-1.938c0-.408-.408-.852-.816-.852h.067a1.06 1.06 0 0 0-1.054 1.055v1.734l.612.001z"/><path fill="#D48B4D" d="M37.381 29.49c.034 0 .102-.034.068-.103-.034-.136-.17-.238-.34-.238s-.307.103-.341.238c0 .034.034.103.068.103h.545zm1.394 0a.073.073 0 0 0 .068-.068c-.034-.17-.17-.272-.34-.272s-.307.136-.341.272c0 .034.034.068.068.068h.545zm-2.279-3.232c0-.543.613-1.394 1.327-1.394s1.259.851 1.259 1.394v.103c0 .544-.578.919-1.293.919s-1.293-.34-1.293-.919v-.103z"/><path fill="#FFE2D1" d="M36.531 26.395c.033.545.476.851 1.258.851.68 0 1.293-.306 1.293-.851h-.442c-.238 0-.477-.17-.511-.408l-.271-1.123-.375 1.157a.55.55 0 0 1-.51.374h-.442z"/><ellipse fill="#FFF" cx="37.789" cy="26.735" rx=".68" ry=".51"/><path fill="#11201C" d="M37.789 26.429s-.034 0 0 0h-.034c-.237 0-.374.103-.272.237.238.307.443.137.578 0 .136-.102-.034-.237-.272-.237z"/><path fill="#9C571A" d="M37.348 25.034s-.137-.17-.545 0c-.408.17-.477.612-.51.952-.068.477-.511 1.123.271.986.748-.169-.271-1.598.784-1.938zm1.019 0s.137-.17.545.034.408.647.441.987c0 .477.375 1.156-.34.952-.747-.204.375-1.395-.646-1.973z"/><path fill="#F3A5AE" d="M37.585 27.041v.271c0 .137.103.238.238.238a.232.232 0 0 0 .237-.238v-.271h-.475z"/><ellipse fill="#5A2A00" cx="38.266" cy="25.952" rx=".102" ry=".136"/><ellipse fill="#5A2A00" cx="37.245" cy="25.952" rx=".103" ry=".136"/><path fill="#DBDCDD" d="M34.626 31.973h.646v.34h-.646zm1.803 0h.646v.34h-.646zm1.7 0h.646v.34h-.646zm1.701 0h.646v.34h-.646z" opacity=".3"/></g></g><path fill="none" d="M14.694 14.286h30.613v18.708H14.694z"/><path fill="#FFF" d="M14.592 14.796h31.021v1.871H14.592z"/><path fill="#404041" d="M46.123 33.979V14.83a1.22 1.22 0 0 0-1.225-1.225H15.442a1.22 1.22 0 0 0-1.225 1.225v19.149c0 .341.136.612.34.851h31.225c.204-.204.341-.51.341-.851zM45 33.469H15.17V14.83h29.796v18.639H45z"/><path fill="#D0D2D3" d="M45.782 34.83H10.68v.715h39.013v-.715z"/><circle fill="#929497" cx="30.204" cy="14.286" r=".17"/><path fill="#BBBDBF" d="M30.17 34.83h-2.789s.068.477.51.477h4.458c.441 0 .51-.477.51-.477H30.17z"/><path fill="#E6E7E8" d="M10.68 35.545s.238.51 2.245.51h34.524c2.006 0 2.244-.51 2.244-.51"/><path fill="#404041" d="M1.701 36.055A1.4 1.4 0 0 1 .306 34.66V18.81a1.4 1.4 0 0 1 1.395-1.395h6.088a1.4 1.4 0 0 1 1.395 1.395v15.85c0 .748-.612 1.395-1.395 1.395H1.701z"/><path fill="#EAEAEA" d="M.918 20.068h7.585v13.436H.918z"/><circle fill="#5B5B5B" cx="4.762" cy="34.864" r=".681"/><path fill="#E6E7E8" d="M5.374 19.184a.146.146 0 0 0 .136-.136.146.146 0 0 0-.136-.136H4.149a.146.146 0 0 0-.136.136c0 .068.068.136.136.136h1.225z"/><circle fill="#E6E7E8" cx="4.762" cy="18.367" r=".17"/><path fill="#404041" d="M6.156 17.313h1.429v.204H6.156z"/><g><defs><path id="c" d="M.918 20.068h7.585v13.436H.918z"/></defs><clipPath id="d"><use xlink:href="#c" overflow="visible"/></clipPath><g clip-path="url(#d)"><path fill="#FFF" d="M1.225 20.068h7.041v12.006H1.225z"/><path fill="#52E892" d="M1.36 22.279h6.803v7.45H1.36z"/><g fill="#DBDCDD"><circle opacity=".3" cx="2.313" cy="21.191" r=".646"/><path opacity=".3" d="M3.299 21.021h4.218v.34H3.299zm-1.598 9.013h4.218v.578H1.701zm5.476 0h.646v.646h-.646zm-.239 1.082h.884v.408h-.884zm-1.734.007h.884v.408h-.884zm-1.783-.007h.884v.408h-.884zm-1.723 0h.884v.408h-.884z"/></g><path fill="#575656" d="M5.272 27.279s1.292 0 1.292.646v1.292s-1.292-1.598-1.292-1.938z"/><path fill="#575656" d="M4.66 26.19c-.918-.067-.748.782-.748.782v1.701h1.19c.612 0 .714-.205.714-.613 0-.578-.238-1.835-1.156-1.87z"/><path fill="#838F92" d="M4.116 28.674s0-.034 0 0v-1.701a.34.34 0 0 1 .68 0v1.701h.646v-2.449c0-.442-.442-.953-.885-.953h.068c-.646 0-1.157.443-1.157 1.088v2.279h.646v.035z"/><path fill="#AFBFC2" d="M4.048 28.674c.068 0 .102-.068.068-.103-.034-.17-.204-.272-.374-.272s-.34.103-.375.272c0 .068.034.103.068.103h.613zm1.496 0a.073.073 0 0 0 .068-.068.4.4 0 0 0-.374-.307c-.17 0-.34.137-.375.307 0 .034.034.068.068.068h.613zm.34-4.286c0 .68-.68 1.7-1.462 1.7s-1.361-1.02-1.361-1.7v-.102c0-.68.612-1.088 1.429-1.088.782 0 1.429.408 1.429 1.088v.102h-.035z"/><path fill="#F3A5AE" d="M4.252 25.306v.817c0 .135.136.271.272.271s.238-.137.238-.271v-.817h-.51z"/><path fill="#FFF" d="M5.17 25.272a.891.891 0 0 0-.17-.306.766.766 0 0 1-.272-.476c-.068-.476-.17-1.327-.17-1.327h-.17l-.136 1.293c-.034.17-.103.34-.238.442a.577.577 0 0 0-.239.34c-.068.271.306.477.714.477s.749-.17.681-.443z"/><path fill="#11201C" d="M4.456 25c-.306 0-.51.136-.374.306.306.374.544.17.714 0 .204-.17 0-.306-.34-.306z"/><path fill="#AFBFC2" d="M3.299 23.912s-.034-1.258.17-1.327c.204-.068.612.714.612.714l-.782.613zm2.279 0s.034-1.258-.17-1.327c-.204-.068-.612.714-.612.714l.782.613z"/><path fill="#FFD4BC" d="M5 23.299l.238-.34c.034-.034.068 0 .068.034l.034.476-.34-.17zm-1.088.034l-.272-.306c-.034-.034-.068 0-.068.034l-.034.477.374-.205z"/><ellipse fill="#11201C" cx="5.136" cy="24.354" rx=".102" ry=".136"/><ellipse fill="#11201C" cx="3.81" cy="24.354" rx=".102" ry=".136"/></g><defs><path id="e" d="M.918 20.068h7.585v13.436H.918z"/></defs><clipPath id="f"><use xlink:href="#e" overflow="visible"/></clipPath><g clip-path="url(#f)"><path fill="#FFF" d="M1.225 32.312h7.041V44.32H1.225z"/><path fill="#52E892" d="M1.36 34.523h6.803v7.449H1.36z"/><circle opacity=".3" fill="#DBDCDD" cx="2.313" cy="33.436" r=".646"/><path opacity=".3" fill="#C1C1C1" d="M3.299 33.266h4.218v.34H3.299z"/><path fill="#AFBFC2" d="M5.884 36.633c0 .68-.68 1.701-1.462 1.701s-1.361-1.021-1.361-1.701v-.102c0-.681.612-1.089 1.429-1.089.782 0 1.429.408 1.429 1.089v.102h-.035z"/><path fill="#FFF" d="M5.17 37.518a.887.887 0 0 0-.17-.307.77.77 0 0 1-.272-.477c-.068-.477-.17-1.326-.17-1.326h-.17l-.136 1.293c-.034.17-.103.34-.238.441a.58.58 0 0 0-.238.34c-.068.272.306.477.714.477s.748-.17.68-.441z"/><path fill="#AFBFC2" d="M3.299 36.156s-.034-1.258.17-1.326.612.715.612.715l-.782.611zm2.279 0s.034-1.258-.17-1.326-.612.715-.612.715l.782.611z"/><path fill="#FFD4BC" d="M5 35.545l.238-.341c.034-.034.068 0 .068.034l.034.477-.34-.17zm-1.088.033l-.272-.307c-.034-.033-.068 0-.068.035l-.034.476.374-.204z"/><ellipse fill="#11201C" cx="5.136" cy="36.599" rx=".102" ry=".136"/><ellipse fill="#11201C" cx="3.81" cy="36.599" rx=".102" ry=".136"/></g></g><path fill="#FFF" d="M18.979 17.007h22.108v3.401H18.979z"/><g><path opacity=".2" d="M19.49 17.347h6.803v.68H19.49zm7.143 0h6.803v.68h-6.803zm7.142 0h6.803v.68h-6.803zm-14.285 1.02h6.803v.681H19.49zm7.143 0h6.803v.681h-6.803zm7.142 0h6.803v.681h-6.803zM19.49 19.388h6.803v.68H19.49zm7.143 0h6.803v.68h-6.803z" fill="#E6E7E8"/><path opacity=".2" fill="#0074FF" d="M33.775 19.388h6.803v.68h-6.803z"/></g><g fill="#0074FF"><path opacity=".2" d="M40.816 15.986c-.204 0-.34-.136-.34-.34 0-.204.136-.34.34-.34.204 0 .34.136.34.34 0 .205-.135.34-.34.34zm-1.02 0c-.204 0-.341-.136-.341-.34 0-.204.137-.34.341-.34.204 0 .341.136.341.34 0 .205-.137.34-.341.34zm-20.748-.68h2.721v.68h-2.721zm19.727.68c-.204 0-.34-.136-.34-.34 0-.204.136-.34.34-.34.204 0 .34.136.34.34 0 .205-.136.34-.34.34zm-1.701 0c-.203 0-.34-.136-.34-.34 0-.204.137-.34.34-.34.205 0 .341.136.341.34 0 .205-.136.34-.341.34zm-1.019 0c-.204 0-.34-.136-.34-.34 0-.204.136-.34.34-.34.203 0 .34.136.34.34 0 .205-.137.34-.34.34z"/></g></svg>