<?xml version="1.0" encoding="utf-8"?>
<!-- Generator: Adobe Illustrator 16.0.0, SVG Export Plug-In . SVG Version: 6.00 Build 0)  -->
<!DOCTYPE svg PUBLIC "-//W3C//DTD SVG 1.1//EN" "http://www.w3.org/Graphics/SVG/1.1/DTD/svg11.dtd">
<svg version="1.1" id="_x32_1.5-inch_iMac" xmlns="http://www.w3.org/2000/svg" xmlns:xlink="http://www.w3.org/1999/xlink" x="0px"
	 y="0px" width="49.336px" height="41.922px" viewBox="0.664 3.953 49.336 41.922"
	 enable-background="new 0.664 3.953 49.336 41.922" xml:space="preserve">
<g>
	<g>
		<g>
			<path fill="#575656" d="M14.406,33.827c0,0,8.033,0,8.033,4.019c0,4.011,0,8.029,0,8.029S14.406,35.938,14.406,33.827z"/>
			<g>
				<path fill="#575656" d="M10.6,27.056c-5.706-0.418-4.649,4.861-4.649,4.861v10.574h7.4c3.807,0,4.441-1.274,4.441-3.811
					C17.79,35.087,16.31,27.27,10.6,27.056z"/>
				<path fill="#838F92" d="M7.219,42.493C7.219,42.493,7.219,42.281,7.219,42.493V31.919c0-1.269,1.057-2.112,2.112-2.112
					c1.269,0,2.117,1.058,2.117,2.112v8.463c0,0.838,0,1.475,0,2.111h4.019V27.27c0-2.749-2.75-5.921-5.499-5.921h0.424
					c-4.019,0-7.19,2.752-7.19,6.764v14.169h4.019V42.493z"/>
				<path fill="#AFBFC2" d="M6.799,42.493c0.423,0,0.631-0.424,0.423-0.637c-0.214-1.056-1.269-1.694-2.326-1.694
					c-1.059,0-2.117,0.639-2.33,1.694c0,0.425,0.212,0.637,0.426,0.637H6.799z"/>
				<path fill="#AFBFC2" d="M16.101,42.493c0.21,0,0.422-0.212,0.422-0.424c-0.211-1.058-1.268-1.907-2.325-1.907
					c-1.059,0-2.116,0.85-2.328,1.907c0,0.212,0.212,0.424,0.424,0.424H16.101z"/>
				<path fill="#AFBFC2" d="M18.213,15.851c0,4.229-4.229,10.567-9.09,10.567c-4.864,0-8.459-6.34-8.459-10.567v-0.634
					c0-4.229,3.806-6.764,8.881-6.764l0,0c4.861,0,8.879,2.537,8.879,6.764v0.634H18.213z"/>
				<g>
					<circle fill="#FFFFFF" cx="9.439" cy="29.888" r="3.13"/>
					<g>
						<g>
							<path fill="#0074FF" d="M7.792,31.535h1.497v-1.497H7.792V31.535z M8.094,30.336h0.897v0.896H8.094V30.336z"/>
							<rect x="8.394" y="30.637" fill="#0074FF" width="0.297" height="0.298"/>
							<rect x="10.19" y="31.236" fill="#0074FF" width="0.299" height="0.299"/>
							<rect x="10.787" y="31.236" fill="#0074FF" width="0.3" height="0.299"/>
							<polygon fill="#0074FF" points="10.787,30.336 10.488,30.336 10.488,30.038 9.59,30.038 9.59,31.535 9.891,31.535 
								9.891,30.637 10.19,30.637 10.19,30.935 11.088,30.935 11.088,30.038 11.088,30.038 10.787,30.038 							"/>
							<path fill="#0074FF" d="M7.792,29.74h1.497v-1.497H7.792V29.74z M8.094,28.54h0.897v0.898H8.094V28.54z"/>
							<rect x="8.394" y="28.84" fill="#0074FF" width="0.297" height="0.3"/>
							<path fill="#0074FF" d="M9.59,28.241v1.495h1.498v-1.495H9.59z M10.787,29.438H9.891V28.54h0.896V29.438z"/>
							<rect x="10.19" y="28.84" fill="#0074FF" width="0.299" height="0.3"/>
						</g>
					</g>
				</g>
				<path fill="#F3A5AE" d="M8.066,21.561v5.077c0,0.837,0.843,1.686,1.691,1.686l0,0c0.843,0,1.477-0.849,1.477-1.686v-5.077H8.066
					z"/>
				<path fill="#FFFFFF" d="M13.773,21.349c-0.21-0.635-0.634-1.478-1.057-1.903c-1.057-0.843-1.481-1.903-1.689-2.958
					C10.602,13.529,9.969,8.24,9.969,8.24H8.911l-0.843,8.037c-0.212,1.057-0.638,2.113-1.481,2.746
					c-0.846,0.634-1.269,1.269-1.48,2.117c-0.423,1.688,1.903,2.961,4.44,2.961C12.083,24.1,14.198,23.044,13.773,21.349z"/>
				<path fill="#11201C" d="M9.331,19.657L9.331,19.657L9.331,19.657L9.331,19.657L9.331,19.657c-1.903,0-3.168,0.847-2.325,1.904
					c1.903,2.322,3.383,1.057,4.44,0C12.715,20.504,11.448,19.657,9.331,19.657z"/>
				<path fill="#AFBFC2" d="M2.145,12.891c0,0-0.212-7.821,1.056-8.247C4.47,4.222,7.008,9.084,7.008,9.084L2.145,12.891z"/>
				<path fill="#AFBFC2" d="M16.31,12.891c0,0,0.211-7.821-1.058-8.247c-1.269-0.422-3.806,4.441-3.806,4.441L16.31,12.891z"/>
				<path fill="#FFD4BC" d="M12.715,9.086l1.481-2.115c0.209-0.21,0.422,0,0.422,0.212l0.214,2.96L12.715,9.086z"/>
				<path fill="#FFD4BC" d="M5.951,9.299L4.259,7.396c-0.211-0.212-0.424,0-0.424,0.209l-0.21,2.962L5.951,9.299z"/>
				<ellipse fill="#11201C" cx="13.563" cy="15.64" rx="0.635" ry="0.845"/>
				<ellipse fill="#11201C" cx="5.316" cy="15.64" rx="0.635" ry="0.845"/>
			</g>
		</g>
	</g>
</g>
<g>
	<g>
		<path fill="#404041" d="M33.911,44.246c-1.608,0-2.997-1.314-2.997-2.999V7.173c0-1.611,1.316-2.999,2.997-2.999h13.091
			C48.61,4.174,50,5.49,50,7.173v34.074c0,1.609-1.317,2.999-2.998,2.999H33.911z"/>
	</g>
	<rect x="31.498" y="8.416" display="none" fill="#58B4DD" width="17.551" height="31.442"/>
	<rect x="32.23" y="9.879" fill="#F2F3F4" width="16.305" height="28.884"/>
	<g display="none">
		<path display="inline" fill="#FFD4BC" d="M43.928,28.888l0.732,0.732c0,0,0,0.729-0.732,0.729c-0.729,0-0.729-1.462-0.729-1.462
			H43.928z"/>
		<g display="inline">
			<path fill="#D07422" d="M39.836,34.592v0.295c0,0.146-0.073,0.219-0.221,0.219h-1.242c-0.146,0-0.221-0.147-0.146-0.295
				c0.071-0.144,1.388-0.436,1.388-0.436C39.763,34.375,39.836,34.444,39.836,34.592z"/>
			<path fill="#D07422" d="M40.42,34.592v0.295c0,0.146,0.071,0.219,0.219,0.219h1.242c0.147,0,0.223-0.147,0.147-0.295
				c-0.072-0.144-1.39-0.436-1.39-0.436C40.491,34.375,40.42,34.444,40.42,34.592z"/>
			<path fill="#62C5CF" d="M41.956,28.672h-3.729l0.657,5.85h0.951c0,0-0.147-4.682,0.291-4.682c0.366,0,0.223,4.682,0.223,4.682
				h1.171L41.956,28.672z"/>
			<path fill="#FC6B79" d="M43.928,28.888c-0.729-2.193-1.752-5.992-2.998-5.992c-0.805,0-1.46,0-1.46,0s-0.659-0.075-1.242,0.437
				c-0.439,0.364-0.807,1.537-1.463,2.632c-0.803,1.316-1.243,2.12-1.9,2.562c-0.292,0.51,0.438,0.362,0.512,0.51
				c2.268-1.976,3.146-4.24,3.146-4.24s-0.585,2.707-0.438,4.606c0,0,1.095,0.072,2.045,0.072c0.951,0,2.05-0.147,2.05-0.147
				c0.072-1.899-0.438-4.531-0.438-4.531l1.461,4.825C43.637,29.401,43.928,28.888,43.928,28.888z"/>
			<path fill="#FFD4BC" d="M40.861,22.896c0,0.437-0.295,0.731-0.736,0.731l0,0c-0.438,0-0.876-0.293-0.876-0.731v-0.953
				c0-0.438,0.438-0.878,0.876-0.878l0,0c0.441,0,0.736,0.439,0.736,0.878V22.896z"/>
			<path fill="#FFD4BC" d="M36.617,17.044v3.801c0,1.023,0.876,1.828,1.901,1.828h3.07c1.023,0,1.899-0.804,1.899-1.828v-3.729
				L36.617,17.044z"/>
			<path fill="#FFC0AD" d="M39.983,22.382c-1.171,0-2.268,0-3.219-0.951c0.292,0.657,0.951,1.169,1.756,1.169h3.069
				c0.877,0,1.534-0.512,1.828-1.243C42.395,22.382,41.148,22.382,39.983,22.382z"/>
			<ellipse fill="#5A2A00" cx="38.373" cy="19.456" rx="0.293" ry="0.512"/>
			<ellipse fill="#5A2A00" cx="41.737" cy="19.456" rx="0.291" ry="0.512"/>
			<path opacity="0.8" fill="#191919" enable-background="new    " d="M40.054,20.333c-0.22,0-0.365-0.072-0.584-0.147
				c0,0.075,0,0.075,0,0.147c0,0.221,0.293,0.365,0.584,0.365c0.294,0,0.585-0.146,0.585-0.365c0-0.072,0-0.072,0-0.147
				C40.42,20.262,40.272,20.333,40.054,20.333z"/>
			<ellipse fill="#FFC0AD" cx="38.373" cy="20.554" rx="0.438" ry="0.438"/>
			<ellipse fill="#FFC0AD" cx="41.737" cy="20.554" rx="0.438" ry="0.438"/>
			<g>
				<g>
					<path id="XMLID_14_" fill="#B83336" d="M39.322,21.064c0,0.439,0.365,0.732,0.731,0.732c0.438,0,0.729-0.365,0.729-0.732"/>
				</g>
				<g>
					<g>
						<defs>
							<path id="SVGID_1_" d="M39.322,21.064c0,0.439,0.365,0.732,0.731,0.732c0.438,0,0.729-0.365,0.729-0.732"/>
						</defs>
						<clipPath id="SVGID_2_">
							<use xlink:href="#SVGID_1_"  overflow="visible"/>
						</clipPath>
						<circle clip-path="url(#SVGID_2_)" fill="#FC6B79" cx="39.906" cy="22.09" r="0.731"/>
					</g>
				</g>
			</g>
			<path fill="#9C571A" d="M37.421,16.971c0,0-1.533,2.632-0.436,5.557c0,0-2.708-3.508-0.366-6.582c0,0-0.365-1.096,1.463-1.388
				c1.826-0.292,4.533,0.365,5.338,1.752c0.876,1.537,0.876,3.952-0.219,5.706c0,0,0.729-3.073-0.295-4.021
				C41.737,16.971,40.639,19.165,37.421,16.971z"/>
			<path fill="#FFD4BC" d="M36.838,19.676c0,0-0.512-0.732-0.805-0.364c-0.219,0.364,0.22,1.463,0.731,1.242L36.838,19.676z"/>
		</g>
		<g display="inline">
			<g>
				<path fill="#D07422" d="M34.425,37.885c-0.147-0.075-0.147-0.075-0.219-0.147c0-0.071,0-0.071-0.074-0.147
					c-0.073-0.071-0.073-0.146-0.146-0.219c-0.073-0.146-0.146-0.217-0.219-0.364c-0.146-0.22-0.219-0.441-0.293-0.73
					c-0.145-0.442-0.219-0.954-0.219-1.39c0-0.878,0.293-1.685,0.73-2.268c0.731,0.146,1.389,0,1.901-0.295
					c0.293-0.142,0.512-0.364,0.657-0.653c0.074-0.147,0.146-0.295,0.22-0.441c0-0.072,0.073-0.147,0.073-0.22
					c0-0.075,0-0.075,0-0.146v-0.07c0,0,0-0.077-0.147-0.077L34.425,37.885z"/>
			</g>
			<path fill="#9C571A" d="M35.375,32.183l1.315,0.948v2.05h-1.169c-0.585,0-0.951-0.147-0.951-0.589
				C34.644,34.009,35.009,32.472,35.375,32.183z"/>
			<path fill="#D48B4D" d="M36.543,35.105L36.543,35.105V33.35c0-0.219-0.145-0.364-0.364-0.364c-0.219,0-0.364,0.146-0.364,0.364
				v1.39c0,0.147,0,0.219,0,0.366H35.23v-3.295h0.803c0.657,0,1.171,0.514,1.171,1.175v2.12H36.543z"/>
			<path fill="#FFE2D1" d="M36.617,35.181c-0.074,0-0.074-0.075-0.074-0.075c0.074-0.219,0.22-0.366,0.365-0.366
				s0.292,0.147,0.364,0.294c0,0.072,0,0.072-0.072,0.072h-0.585v0.075H36.617z"/>
			<path fill="#FFE2D1" d="M35.229,35.181c-0.074,0-0.074,0-0.074-0.075c0-0.219,0.146-0.366,0.366-0.366
				c0.22,0,0.365,0.147,0.365,0.294c0,0.072,0,0.072-0.074,0.072h-0.583V35.181z"/>
			<g>
				<path fill="#D48B4D" d="M34.352,30.062c0,0-0.584-0.075-0.95-0.588c-0.292-0.366-0.364-0.877-0.22-1.537l0.074-0.219
					l0.219-0.069c0,0,0.146,0,0.365,0c0.878,0,1.39,0.511,1.39,1.312v0.147l-0.731,0.954H34.352z"/>
				<path fill="#FFD4BC" d="M34.425,29.692c0,0-1.244-0.143-0.878-1.681c0,0,1.462-0.294,1.462,1.023L34.425,29.692z"/>
				<path fill="#D48B4D" d="M38.007,30.062c0,0,0.585-0.075,0.949-0.588c0.293-0.366,0.365-0.877,0.22-1.537l-0.072-0.219
					l-0.221-0.069c0,0-0.219,0-0.438,0c-0.878,0-1.461,0.511-1.461,1.312v0.147l0.803,0.954H38.007z"/>
				<path fill="#FFD4BC" d="M38.007,29.692c0,0,1.242-0.143,0.876-1.681c0,0-1.463-0.294-1.463,1.023L38.007,29.692z"/>
				<path fill="#D48B4D" d="M33.985,30.202c0,0.955,1.023,2.488,2.191,2.488c1.171,0,2.049-1.461,2.049-2.488v-0.141
					c0-0.954-0.951-1.611-2.12-1.611l0,0c-1.171,0-2.12,0.585-2.12,1.611V30.202z"/>
				<path fill="#FFE2D1" d="M34.57,31.671c0.364,0.583,1.023,1.02,1.683,1.02c0.657,0,1.242-0.508,1.61-1.099l-0.587-0.51
					c-0.584-0.514-1.462-0.514-2.046,0L34.57,31.671z"/>
				<ellipse fill="#5A2A00" cx="37.129" cy="30.354" rx="0.221" ry="0.293"/>
				<ellipse fill="#5A2A00" cx="35.375" cy="30.354" rx="0.219" ry="0.293"/>
				<path fill="#FFE2D1" d="M36.253,31.671L36.253,31.671c-0.146,0-0.22-0.147-0.22-0.223V29.62c0-0.146,0.146-0.219,0.22-0.219l0,0
					c0.146,0,0.219,0.148,0.219,0.219v1.828C36.472,31.523,36.398,31.671,36.253,31.671z"/>
				<path fill="#11201C" d="M36.253,31.229L36.253,31.229L36.253,31.229L36.253,31.229L36.253,31.229
					c0.364,0,0.585,0.075,0.438,0.362c-0.219,0.443-0.657,0.443-0.803,0C35.812,31.305,35.96,31.229,36.253,31.229z"/>
			</g>
			<path fill="#F3A5AE" d="M36.032,32.183v0.364c0,0.144,0.145,0.291,0.292,0.291l0,0c0.146,0,0.293-0.147,0.293-0.291v-0.364
				H36.032z"/>
		</g>
		<g display="inline">
			<path fill="#F3A5AE" d="M45.903,12.73c-0.657-0.365-1.243,0.219-1.243,0.73c0-0.511-0.585-1.168-1.242-0.73
				c-0.88,0.512,0,2.048,1.242,2.559C45.903,14.778,46.779,13.242,45.903,12.73z"/>
			<path fill="#F3A5AE" d="M35.229,25.673c-0.22-0.146-0.512,0.073-0.512,0.293c0-0.22-0.22-0.438-0.512-0.293
				c-0.366,0.22,0,0.803,0.512,0.95C35.229,26.476,35.594,25.893,35.229,25.673z"/>
			<path fill="#F3A5AE" d="M35.667,24.502c-0.146-0.074-0.292,0.072-0.292,0.219c0-0.147-0.146-0.293-0.293-0.147
				c-0.219,0.147,0,0.512,0.293,0.585C35.667,25.016,35.887,24.649,35.667,24.502z"/>
			<path fill="#F3A5AE" d="M47.512,11.999c-0.147-0.073-0.291,0.072-0.291,0.146c0-0.146-0.147-0.292-0.294-0.146
				c-0.22,0.146,0,0.512,0.294,0.583C47.512,12.511,47.659,12.146,47.512,11.999z"/>
			<path fill="#F3A5AE" d="M34.277,22.896c-0.146-0.075-0.292,0.072-0.292,0.146c0-0.146-0.147-0.292-0.293-0.146
				c-0.22,0.146,0,0.51,0.293,0.583C34.277,23.332,34.497,23.039,34.277,22.896z"/>
			<path fill="#F3A5AE" d="M45.612,18.798c-0.22-0.147-0.441,0.074-0.441,0.293c0-0.219-0.216-0.438-0.436-0.293
				c-0.294,0.219,0,0.731,0.436,0.95C45.612,19.529,45.903,18.944,45.612,18.798z"/>
		</g>
		<rect x="32.303" y="34.739" display="inline" fill="#52E892" width="16.308" height="4.023"/>
	</g>
	<circle fill="#5B5B5B" cx="40.491" cy="41.687" r="1.463"/>
	<path fill="#E6E7E8" d="M41.81,7.978c0.146,0,0.294-0.147,0.294-0.293l0,0c0-0.147-0.147-0.292-0.294-0.292h-2.634
		c-0.146,0-0.293,0.146-0.293,0.292l0,0c0,0.146,0.146,0.293,0.293,0.293H41.81z"/>
	<circle fill="#E6E7E8" cx="40.491" cy="6.221" r="0.365"/>
	<rect x="43.49" y="3.953" fill="#404041" width="3.07" height="0.44"/>
</g>
<g opacity="0.5">
	<rect x="34.353" y="25.734" fill="#DDDDDD" width="12.209" height="1.297"/>
	<rect x="34.353" y="27.488" fill="#DDDDDD" width="12.209" height="1.295"/>
	<rect x="34.353" y="29.24" fill="#DDDDDD" width="12.209" height="1.296"/>
	<rect x="34.353" y="30.993" fill="#DDDDDD" width="12.209" height="1.295"/>
	<rect x="34.353" y="32.745" fill="#DDDDDD" width="12.209" height="1.296"/>
	<rect x="34.353" y="34.498" fill="#DDDDDD" width="9.139" height="1.295"/>
</g>
<g>
	<g>
		<path fill="#0074FF" d="M34.683,23.209h5.248v-5.249h-5.248V23.209z M35.731,19.011h3.151v3.142h-3.151V19.011z"/>
		<rect x="36.781" y="20.059" fill="#0074FF" width="1.05" height="1.051"/>
		<rect x="43.081" y="22.16" fill="#0074FF" width="1.051" height="1.05"/>
		<rect x="45.181" y="22.16" fill="#0074FF" width="1.053" height="1.05"/>
		<polygon fill="#0074FF" points="45.181,19.011 44.128,19.011 44.128,17.961 40.979,17.961 40.979,23.209 42.032,23.209 
			42.032,20.059 43.081,20.059 43.081,21.11 46.229,21.11 46.229,17.961 46.229,17.961 45.181,17.961 		"/>
		<path fill="#0074FF" d="M34.683,16.909h5.248v-5.248h-5.248V16.909z M35.731,12.71h3.151v3.149h-3.151V12.71z"/>
		<rect x="36.781" y="13.76" fill="#0074FF" width="1.05" height="1.05"/>
		<path fill="#0074FF" d="M40.979,11.661v5.248h5.25v-5.248H40.979z M45.181,15.862h-3.148V12.71h3.148V15.862z"/>
		<rect x="43.081" y="13.76" fill="#0074FF" width="1.051" height="1.05"/>
	</g>
</g>
</svg>
