<svg xmlns="http://www.w3.org/2000/svg" width="49.336" height="41.922" viewBox="0.664 3.953 49.336 41.922"><path fill="#575656" d="M14.406 33.827s8.033 0 8.033 4.019v8.029s-8.033-9.937-8.033-12.048z"/><path fill="#575656" d="M10.6 27.056c-5.706-.418-4.649 4.861-4.649 4.861v10.574h7.4c3.807 0 4.441-1.274 4.441-3.811-.002-3.593-1.482-11.41-7.192-11.624z"/><path fill="#838F92" d="M7.219 42.493s0-.212 0 0V31.919c0-1.269 1.057-2.112 2.112-2.112 1.269 0 2.117 1.058 2.117 2.112v10.574h4.019V27.27c0-2.749-2.75-5.921-5.499-5.921h.424c-4.019 0-7.19 2.752-7.19 6.764v14.169h4.019v.211z"/><path fill="#AFBFC2" d="M6.799 42.493c.423 0 .631-.424.423-.637-.214-1.056-1.269-1.694-2.326-1.694-1.059 0-2.117.639-2.33 1.694 0 .425.212.637.426.637h3.807zM16.101 42.493c.21 0 .422-.212.422-.424-.211-1.058-1.268-1.907-2.325-1.907-1.059 0-2.116.85-2.328 1.907 0 .212.212.424.424.424h3.807zM18.213 15.851c0 4.229-4.229 10.567-9.09 10.567-4.864 0-8.459-6.34-8.459-10.567v-.634c0-4.229 3.806-6.764 8.881-6.764 4.861 0 8.879 2.537 8.879 6.764v.634h-.211z"/><circle fill="#FFF" cx="9.439" cy="29.888" r="3.13"/><g fill="#0074FF"><path d="M7.792 31.535h1.497v-1.497H7.792v1.497zm.302-1.199h.897v.896h-.897v-.896z"/><path d="M8.394 30.637h.297v.298h-.297zM10.19 31.236h.299v.299h-.299zM10.787 31.236h.3v.299h-.3z"/><path d="M10.787 30.336h-.299v-.298H9.59v1.497h.301v-.898h.299v.298h.898v-.897h-.301zM7.792 29.74h1.497v-1.497H7.792v1.497zm.302-1.2h.897v.898h-.897v-.898z"/><path d="M8.394 28.84h.297v.3h-.297zM9.59 28.241v1.495h1.498v-1.495H9.59zm1.197 1.197h-.896v-.898h.896v.898z"/><path d="M10.19 28.84h.299v.3h-.299z"/></g><path fill="#F3A5AE" d="M8.066 21.561v5.077c0 .837.843 1.686 1.691 1.686.843 0 1.477-.849 1.477-1.686v-5.077H8.066z"/><path fill="#FFF" d="M13.773 21.349c-.21-.635-.634-1.478-1.057-1.903-1.057-.843-1.481-1.903-1.689-2.958-.425-2.959-1.058-8.248-1.058-8.248H8.911l-.843 8.037c-.212 1.057-.638 2.113-1.481 2.746-.846.634-1.269 1.269-1.48 2.117-.423 1.688 1.903 2.961 4.44 2.961 2.536-.001 4.651-1.057 4.226-2.752z"/><path fill="#11201C" d="M9.331 19.657c-1.903 0-3.168.847-2.325 1.904 1.903 2.322 3.383 1.057 4.44 0 1.269-1.057.002-1.904-2.115-1.904z"/><path fill="#AFBFC2" d="M2.145 12.891S1.933 5.07 3.201 4.644c1.269-.422 3.807 4.44 3.807 4.44l-4.863 3.807zM16.31 12.891s.211-7.821-1.058-8.247c-1.269-.422-3.806 4.441-3.806 4.441l4.864 3.806z"/><path fill="#FFD4BC" d="M12.715 9.086l1.481-2.115c.209-.21.422 0 .422.212l.214 2.96-2.117-1.057zM5.951 9.299L4.259 7.396c-.211-.212-.424 0-.424.209l-.21 2.962 2.326-1.268z"/><ellipse fill="#11201C" cx="13.563" cy="15.64" rx=".635" ry=".845"/><ellipse fill="#11201C" cx="5.316" cy="15.64" rx=".635" ry=".845"/><g><path fill="#404041" d="M33.911 44.246c-1.608 0-2.997-1.314-2.997-2.999V7.173c0-1.611 1.316-2.999 2.997-2.999h13.091C48.61 4.174 50 5.49 50 7.173v34.074c0 1.609-1.317 2.999-2.998 2.999H33.911z"/><path fill="#F2F3F4" d="M32.23 9.879h16.305v28.884H32.23z"/><circle fill="#5B5B5B" cx="40.491" cy="41.687" r="1.463"/><path fill="#E6E7E8" d="M41.81 7.978c.146 0 .294-.147.294-.293 0-.147-.147-.292-.294-.292h-2.634c-.146 0-.293.146-.293.292s.146.293.293.293h2.634z"/><circle fill="#E6E7E8" cx="40.491" cy="6.221" r=".365"/><path fill="#404041" d="M43.49 3.953h3.07v.44h-3.07z"/></g><g opacity=".5" fill="#DDD"><path d="M34.353 25.734h12.209v1.297H34.353zM34.353 27.488h12.209v1.295H34.353zM34.353 29.24h12.209v1.296H34.353zM34.353 30.993h12.209v1.295H34.353zM34.353 32.745h12.209v1.296H34.353zM34.353 34.498h9.139v1.295h-9.139z"/></g><g><g fill="#0074FF"><path d="M34.683 23.209h5.248V17.96h-5.248v5.249zm1.048-4.198h3.151v3.142h-3.151v-3.142z"/><path d="M36.781 20.059h1.05v1.051h-1.05zM43.081 22.16h1.051v1.05h-1.051zM45.181 22.16h1.053v1.05h-1.053z"/><path d="M45.181 19.011h-1.053v-1.05h-3.149v5.248h1.053v-3.15h1.049v1.051h3.148v-3.149h-1.048zM34.683 16.909h5.248v-5.248h-5.248v5.248zm1.048-4.199h3.151v3.149h-3.151V12.71z"/><path d="M36.781 13.76h1.05v1.05h-1.05zM40.979 11.661v5.248h5.25v-5.248h-5.25zm4.202 4.201h-3.148V12.71h3.148v3.152z"/><path d="M43.081 13.76h1.051v1.05h-1.051z"/></g></g></svg>